<svg width="317" height="183" viewBox="0 0 317 183" fill="none" xmlns="http://www.w3.org/2000/svg">
<g filter="url(#filter0_d_645_456)">
<path d="M21.856 146C17.056 146 12.976 144.32 9.616 140.96C6.256 137.6 4.576 133.52 4.576 128.72V120.512H16.24V128.72C16.24 130.256 16.768 131.6 17.824 132.752C18.976 133.808 20.32 134.336 21.856 134.336H90.976C92.512 134.336 93.808 133.808 94.864 132.752C96.016 131.6 96.592 130.256 96.592 128.72V42.32H108.256V128.72C108.256 133.52 106.576 137.6 103.216 140.96C99.856 144.32 95.776 146 90.976 146H21.856Z" fill="white"/>
<path d="M9.616 140.96L10.3231 140.253L9.616 140.96ZM4.576 120.512V119.512H3.576V120.512H4.576ZM16.24 120.512H17.24V119.512H16.24V120.512ZM17.824 132.752L17.0868 133.428L17.1162 133.46L17.1483 133.489L17.824 132.752ZM94.864 132.752L95.5711 133.459L94.864 132.752ZM96.592 42.32V41.32H95.592V42.32H96.592ZM108.256 42.32H109.256V41.32H108.256V42.32ZM103.216 140.96L102.509 140.253L103.216 140.96ZM21.856 145C17.3182 145 13.4934 143.423 10.3231 140.253L8.90889 141.667C12.4586 145.217 16.7938 147 21.856 147V145ZM10.3231 140.253C7.15277 137.083 5.576 133.258 5.576 128.72H3.576C3.576 133.782 5.35923 138.117 8.90889 141.667L10.3231 140.253ZM5.576 128.72V120.512H3.576V128.72H5.576ZM4.576 121.512H16.24V119.512H4.576V121.512ZM15.24 120.512V128.72H17.24V120.512H15.24ZM15.24 128.72C15.24 130.511 15.865 132.095 17.0868 133.428L18.5612 132.076C17.671 131.105 17.24 130.001 17.24 128.72H15.24ZM17.1483 133.489C18.4811 134.711 20.065 135.336 21.856 135.336V133.336C20.575 133.336 19.4709 132.905 18.4997 132.015L17.1483 133.489ZM21.856 135.336H90.976V133.336H21.856V135.336ZM90.976 135.336C92.7688 135.336 94.3217 134.709 95.5711 133.459L94.1569 132.045C93.2943 132.907 92.2552 133.336 90.976 133.336V135.336ZM95.5711 133.459C96.898 132.132 97.592 130.539 97.592 128.72H95.592C95.592 129.973 95.134 131.068 94.1569 132.045L95.5711 133.459ZM97.592 128.72V42.32H95.592V128.72H97.592ZM96.592 43.32H108.256V41.32H96.592V43.32ZM107.256 42.32V128.72H109.256V42.32H107.256ZM107.256 128.72C107.256 133.258 105.679 137.083 102.509 140.253L103.923 141.667C107.473 138.117 109.256 133.782 109.256 128.72H107.256ZM102.509 140.253C99.3386 143.423 95.5138 145 90.976 145V147C96.0382 147 100.373 145.217 103.923 141.667L102.509 140.253ZM90.976 145H21.856V147H90.976V145Z" fill="#666666"/>
</g>
<g filter="url(#filter1_d_645_456)">
<path d="M129.672 146C127.272 146 125.232 145.16 123.552 143.48C121.872 141.8 121.032 139.76 121.032 137.36V102.8C121.032 100.4 121.872 98.36 123.552 96.68C125.232 95 127.272 94.16 129.672 94.16H164.232C166.632 94.16 168.672 95 170.352 96.68C172.032 98.36 172.872 100.4 172.872 102.8V104.888H167.04V102.8C167.04 102.032 166.752 101.384 166.176 100.856C165.648 100.28 165 99.992 164.232 99.992H129.672C128.904 99.992 128.232 100.28 127.656 100.856C127.128 101.384 126.864 102.032 126.864 102.8V137.36C126.864 138.128 127.128 138.8 127.656 139.376C128.232 139.904 128.904 140.168 129.672 140.168H164.232C165 140.168 165.648 139.904 166.176 139.376C166.752 138.8 167.04 138.128 167.04 137.36V124.544H154.224V118.64H172.872V137.36C172.872 139.76 172.032 141.8 170.352 143.48C168.672 145.16 166.632 146 164.232 146H129.672Z" fill="white"/>
<path d="M123.552 143.48L124.259 142.773L123.552 143.48ZM123.552 96.68L122.845 95.9729H122.845L123.552 96.68ZM170.352 96.68L171.059 95.9729H171.059L170.352 96.68ZM172.872 104.888V105.888H173.872V104.888H172.872ZM167.04 104.888H166.04V105.888H167.04V104.888ZM166.176 100.856L165.439 101.532L165.468 101.564L165.5 101.593L166.176 100.856ZM127.656 100.856L128.363 101.563H128.363L127.656 100.856ZM127.656 139.376L126.919 140.052L126.948 140.084L126.98 140.113L127.656 139.376ZM166.176 139.376L165.469 138.669L166.176 139.376ZM167.04 124.544H168.04V123.544H167.04V124.544ZM154.224 124.544H153.224V125.544H154.224V124.544ZM154.224 118.64V117.64H153.224V118.64H154.224ZM172.872 118.64H173.872V117.64H172.872V118.64ZM170.352 143.48L171.059 144.187H171.059L170.352 143.48ZM129.672 145C127.534 145 125.749 144.263 124.259 142.773L122.845 144.187C124.715 146.057 127.01 147 129.672 147V145ZM124.259 142.773C122.769 141.283 122.032 139.498 122.032 137.36H120.032C120.032 140.022 120.975 142.317 122.845 144.187L124.259 142.773ZM122.032 137.36V102.8H120.032V137.36H122.032ZM122.032 102.8C122.032 100.662 122.769 98.8774 124.259 97.3871L122.845 95.9729C120.975 97.8426 120.032 100.138 120.032 102.8H122.032ZM124.259 97.3871C125.749 95.8968 127.534 95.16 129.672 95.16V93.16C127.01 93.16 124.715 94.1032 122.845 95.9729L124.259 97.3871ZM129.672 95.16H164.232V93.16H129.672V95.16ZM164.232 95.16C166.37 95.16 168.155 95.8968 169.645 97.3871L171.059 95.9729C169.189 94.1032 166.894 93.16 164.232 93.16V95.16ZM169.645 97.3871C171.135 98.8774 171.872 100.662 171.872 102.8H173.872C173.872 100.138 172.929 97.8426 171.059 95.9729L169.645 97.3871ZM171.872 102.8V104.888H173.872V102.8H171.872ZM172.872 103.888H167.04V105.888H172.872V103.888ZM168.04 104.888V102.8H166.04V104.888H168.04ZM168.04 102.8C168.04 101.746 167.63 100.832 166.852 100.119L165.5 101.593C165.874 101.935 166.04 102.318 166.04 102.8H168.04ZM166.913 100.18C166.2 99.4017 165.286 98.992 164.232 98.992V100.992C164.714 100.992 165.097 101.158 165.439 101.532L166.913 100.18ZM164.232 98.992H129.672V100.992H164.232V98.992ZM129.672 98.992C128.621 98.992 127.7 99.398 126.949 100.149L128.363 101.563C128.764 101.162 129.187 100.992 129.672 100.992V98.992ZM126.949 100.149C126.227 100.87 125.864 101.775 125.864 102.8H127.864C127.864 102.289 128.029 101.898 128.363 101.563L126.949 100.149ZM125.864 102.8V137.36H127.864V102.8H125.864ZM125.864 137.36C125.864 138.383 126.225 139.295 126.919 140.052L128.393 138.7C128.031 138.305 127.864 137.873 127.864 137.36H125.864ZM126.98 140.113C127.737 140.807 128.649 141.168 129.672 141.168V139.168C129.159 139.168 128.727 139.001 128.332 138.639L126.98 140.113ZM129.672 141.168H164.232V139.168H129.672V141.168ZM164.232 141.168C165.257 141.168 166.162 140.805 166.883 140.083L165.469 138.669C165.134 139.003 164.743 139.168 164.232 139.168V141.168ZM166.883 140.083C167.634 139.332 168.04 138.411 168.04 137.36H166.04C166.04 137.845 165.87 138.268 165.469 138.669L166.883 140.083ZM168.04 137.36V124.544H166.04V137.36H168.04ZM167.04 123.544H154.224V125.544H167.04V123.544ZM155.224 124.544V118.64H153.224V124.544H155.224ZM154.224 119.64H172.872V117.64H154.224V119.64ZM171.872 118.64V137.36H173.872V118.64H171.872ZM171.872 137.36C171.872 139.498 171.135 141.283 169.645 142.773L171.059 144.187C172.929 142.317 173.872 140.022 173.872 137.36H171.872ZM169.645 142.773C168.155 144.263 166.37 145 164.232 145V147C166.894 147 169.189 146.057 171.059 144.187L169.645 142.773ZM164.232 145H129.672V147H164.232V145Z" fill="#666666"/>
</g>
<g filter="url(#filter2_d_645_456)">
<path d="M122.65 82C120.983 82 119.55 81.4167 118.35 80.25C117.183 79.05 116.6 77.6167 116.6 75.95V65.45H142V59.05C142 58.5167 141.8 58.0667 141.4 57.7C141.033 57.3 140.583 57.1 140.05 57.1H116.6V53H140.05C141.75 53 143.183 53.6 144.35 54.8C145.55 55.9667 146.15 57.3833 146.15 59.05V82H122.65ZM122.65 77.9H142V69.55H120.7V75.95C120.7 76.4833 120.883 76.95 121.25 77.35C121.65 77.7167 122.117 77.9 122.65 77.9ZM160.353 82L148.953 53H153.353L162.153 74.6L171.503 53H176.903L186.853 74.55L195.053 53H199.503L188.553 82H185.003L174.203 58.05L163.953 82H160.353ZM207.756 82C206.09 82 204.656 81.4167 203.456 80.25C202.29 79.05 201.706 77.6167 201.706 75.95V59.05C201.706 57.3833 202.29 55.9667 203.456 54.8C204.656 53.6 206.09 53 207.756 53H225.156C226.856 53 228.29 53.6 229.456 54.8C230.656 55.9667 231.256 57.3833 231.256 59.05V69.55H205.806V75.95C205.806 76.4833 205.99 76.95 206.356 77.35C206.756 77.7167 207.223 77.9 207.756 77.9H231.256V82H207.756ZM205.806 65.45H227.106V59.05C227.106 58.5167 226.906 58.0667 226.506 57.7C226.14 57.3 225.69 57.1 225.156 57.1H207.756C207.223 57.1 206.756 57.3 206.356 57.7C205.99 58.0667 205.806 58.5167 205.806 59.05V65.45ZM236.131 82V59.05C236.131 57.3833 236.715 55.9667 237.881 54.8C239.081 53.6 240.515 53 242.181 53H258.481V57.1H242.181C241.648 57.1 241.181 57.3 240.781 57.7C240.415 58.0667 240.231 58.5167 240.231 59.05V82H236.131ZM267.817 82C266.117 82 264.684 81.4167 263.517 80.25C262.351 79.05 261.767 77.6167 261.767 75.95V43.5H265.867V53H278.417V57.1H265.867V75.95C265.867 76.4833 266.051 76.95 266.417 77.35C266.817 77.7167 267.284 77.9 267.817 77.9H278.417V82H267.817ZM282.569 82V43.5H286.669V53H306.069C307.702 53 309.119 53.6 310.319 54.8C311.519 55.9667 312.119 57.3833 312.119 59.05V82H308.019V59.05C308.019 58.5167 307.819 58.0667 307.419 57.7C307.052 57.3 306.602 57.1 306.069 57.1H288.669C288.136 57.1 287.669 57.3 287.269 57.7C286.869 58.0667 286.669 58.5167 286.669 59.05V82H282.569Z" fill="#666666"/>
</g>
<g filter="url(#filter3_d_645_456)">
<path d="M181.756 145V120.673C181.756 118.906 182.374 117.405 183.611 116.168C184.883 114.896 186.402 114.26 188.169 114.26H205.447V118.606H188.169C187.604 118.606 187.109 118.818 186.685 119.242C186.296 119.631 186.102 120.108 186.102 120.673V145H181.756ZM214.978 145C213.212 145 211.692 144.382 210.42 143.145C209.184 141.873 208.565 140.354 208.565 138.587V120.673C208.565 118.906 209.184 117.405 210.42 116.168C211.692 114.896 213.212 114.26 214.978 114.26H233.422C235.224 114.26 236.744 114.896 237.98 116.168C239.252 117.405 239.888 118.906 239.888 120.673V138.587C239.888 140.354 239.252 141.873 237.98 143.145C236.744 144.382 235.224 145 233.422 145H214.978ZM214.978 140.654H233.422C233.988 140.654 234.465 140.46 234.853 140.071C235.277 139.647 235.489 139.152 235.489 138.587V120.673C235.489 120.108 235.277 119.631 234.853 119.242C234.465 118.818 233.988 118.606 233.422 118.606H214.978C214.413 118.606 213.918 118.818 213.494 119.242C213.106 119.631 212.911 120.108 212.911 120.673V138.587C212.911 139.152 213.106 139.647 213.494 140.071C213.918 140.46 214.413 140.654 214.978 140.654ZM250.538 145C248.772 145 247.252 144.382 245.98 143.145C244.744 141.873 244.125 140.354 244.125 138.587V114.26H248.471V138.587C248.471 139.152 248.666 139.647 249.054 140.071C249.478 140.46 249.973 140.654 250.538 140.654H268.982C269.548 140.654 270.042 140.46 270.466 140.071C270.89 139.647 271.102 139.152 271.102 138.587V114.26H275.448V138.587C275.448 140.354 274.812 141.873 273.54 143.145C272.304 144.382 270.784 145 268.982 145H250.538ZM280.254 157.19V114.26H305.164C306.93 114.26 308.432 114.896 309.669 116.168C310.941 117.405 311.577 118.906 311.577 120.673V138.587C311.577 140.354 310.941 141.873 309.669 143.145C308.432 144.382 306.93 145 305.164 145H284.6V157.19H280.254ZM286.72 140.654H305.164C305.729 140.654 306.206 140.46 306.595 140.071C307.019 139.647 307.231 139.152 307.231 138.587V120.673C307.231 120.108 307.019 119.631 306.595 119.242C306.206 118.818 305.729 118.606 305.164 118.606H286.72C286.154 118.606 285.66 118.818 285.236 119.242C284.812 119.631 284.6 120.108 284.6 120.673V138.587C284.6 139.152 284.812 139.647 285.236 140.071C285.66 140.46 286.154 140.654 286.72 140.654Z" fill="white"/>
<path d="M181.756 145H180.756V146H181.756V145ZM183.611 116.168L182.904 115.461L183.611 116.168ZM205.447 114.26H206.447V113.26H205.447V114.26ZM205.447 118.606V119.606H206.447V118.606H205.447ZM186.685 119.242L187.392 119.949L186.685 119.242ZM186.102 145V146H187.102V145H186.102ZM182.756 145V120.673H180.756V145H182.756ZM182.756 120.673C182.756 119.169 183.271 117.922 184.318 116.875L182.904 115.461C181.478 116.887 180.756 118.644 180.756 120.673H182.756ZM184.318 116.875C185.406 115.787 186.673 115.26 188.169 115.26V113.26C186.132 113.26 184.36 114.005 182.904 115.461L184.318 116.875ZM188.169 115.26H205.447V113.26H188.169V115.26ZM204.447 114.26V118.606H206.447V114.26H204.447ZM205.447 117.606H188.169V119.606H205.447V117.606ZM188.169 117.606C187.321 117.606 186.577 117.936 185.978 118.535L187.392 119.949C187.641 119.7 187.886 119.606 188.169 119.606V117.606ZM185.978 118.535C185.396 119.117 185.102 119.851 185.102 120.673H187.102C187.102 120.364 187.197 120.144 187.392 119.949L185.978 118.535ZM185.102 120.673V145H187.102V120.673H185.102ZM186.102 144H181.756V146H186.102V144ZM210.42 143.145L209.703 143.842L209.713 143.852L209.723 143.862L210.42 143.145ZM210.42 116.168L209.713 115.461L210.42 116.168ZM237.98 116.168L237.263 116.865L237.273 116.875L237.283 116.885L237.98 116.168ZM237.98 143.145L237.273 142.438L237.98 143.145ZM234.853 140.071L235.56 140.778L234.853 140.071ZM234.853 119.242L234.116 119.918L234.146 119.95L234.178 119.979L234.853 119.242ZM213.494 119.242L214.201 119.949L213.494 119.242ZM213.494 140.071L212.757 140.747L212.787 140.779L212.819 140.808L213.494 140.071ZM214.978 144C213.473 144 212.204 143.484 211.117 142.428L209.723 143.862C211.181 145.279 212.95 146 214.978 146V144ZM211.137 142.448C210.081 141.362 209.565 140.092 209.565 138.587H207.565C207.565 140.615 208.286 142.384 209.703 143.842L211.137 142.448ZM209.565 138.587V120.673H207.565V138.587H209.565ZM209.565 120.673C209.565 119.169 210.08 117.922 211.127 116.875L209.713 115.461C208.287 116.887 207.565 118.644 207.565 120.673H209.565ZM211.127 116.875C212.216 115.787 213.482 115.26 214.978 115.26V113.26C212.941 113.26 211.169 114.005 209.713 115.461L211.127 116.875ZM214.978 115.26H233.422V113.26H214.978V115.26ZM233.422 115.26C234.959 115.26 236.218 115.79 237.263 116.865L238.697 115.471C237.269 114.002 235.49 113.26 233.422 113.26V115.26ZM237.283 116.885C238.362 117.934 238.888 119.178 238.888 120.673H240.888C240.888 118.635 240.142 116.875 238.677 115.451L237.283 116.885ZM238.888 120.673V138.587H240.888V120.673H238.888ZM238.888 138.587C238.888 140.083 238.361 141.35 237.273 142.438L238.687 143.852C240.143 142.396 240.888 140.624 240.888 138.587H238.888ZM237.273 142.438C236.23 143.481 234.968 144 233.422 144V146C235.481 146 237.257 145.283 238.687 143.852L237.273 142.438ZM233.422 144H214.978V146H233.422V144ZM214.978 141.654H233.422V139.654H214.978V141.654ZM233.422 141.654C234.244 141.654 234.978 141.36 235.56 140.778L234.146 139.364C233.951 139.559 233.731 139.654 233.422 139.654V141.654ZM235.56 140.778C236.159 140.179 236.489 139.435 236.489 138.587H234.489C234.489 138.87 234.395 139.115 234.146 139.364L235.56 140.778ZM236.489 138.587V120.673H234.489V138.587H236.489ZM236.489 120.673C236.489 119.822 236.156 119.079 235.529 118.505L234.178 119.979C234.399 120.182 234.489 120.393 234.489 120.673H236.489ZM235.59 118.566C235.016 117.94 234.273 117.606 233.422 117.606V119.606C233.702 119.606 233.913 119.696 234.116 119.918L235.59 118.566ZM233.422 117.606H214.978V119.606H233.422V117.606ZM214.978 117.606C214.13 117.606 213.386 117.936 212.787 118.535L214.201 119.949C214.451 119.7 214.696 119.606 214.978 119.606V117.606ZM212.787 118.535C212.205 119.117 211.911 119.851 211.911 120.673H213.911C213.911 120.364 214.006 120.144 214.201 119.949L212.787 118.535ZM211.911 120.673V138.587H213.911V120.673H211.911ZM211.911 138.587C211.911 139.407 212.203 140.142 212.757 140.747L214.231 139.395C214.009 139.152 213.911 138.897 213.911 138.587H211.911ZM212.819 140.808C213.423 141.363 214.158 141.654 214.978 141.654V139.654C214.668 139.654 214.413 139.557 214.17 139.334L212.819 140.808ZM245.98 143.145L245.263 143.842L245.273 143.852L245.283 143.862L245.98 143.145ZM244.125 114.26V113.26H243.125V114.26H244.125ZM248.471 114.26H249.471V113.26H248.471V114.26ZM249.054 140.071L248.317 140.747L248.347 140.779L248.379 140.808L249.054 140.071ZM270.466 140.071L271.142 140.808L271.158 140.793L271.174 140.778L270.466 140.071ZM271.102 114.26V113.26H270.102V114.26H271.102ZM275.448 114.26H276.448V113.26H275.448V114.26ZM273.54 143.145L274.248 143.852L273.54 143.145ZM250.538 144C249.033 144 247.764 143.484 246.677 142.428L245.283 143.862C246.741 145.279 248.51 146 250.538 146V144ZM246.697 142.448C245.641 141.362 245.125 140.092 245.125 138.587H243.125C243.125 140.615 243.846 142.384 245.263 143.842L246.697 142.448ZM245.125 138.587V114.26H243.125V138.587H245.125ZM244.125 115.26H248.471V113.26H244.125V115.26ZM247.471 114.26V138.587H249.471V114.26H247.471ZM247.471 138.587C247.471 139.407 247.763 140.142 248.317 140.747L249.792 139.395C249.569 139.152 249.471 138.897 249.471 138.587H247.471ZM248.379 140.808C248.984 141.363 249.718 141.654 250.538 141.654V139.654C250.228 139.654 249.973 139.557 249.73 139.334L248.379 140.808ZM250.538 141.654H268.982V139.654H250.538V141.654ZM268.982 141.654C269.803 141.654 270.537 141.363 271.142 140.808L269.791 139.334C269.548 139.557 269.293 139.654 268.982 139.654V141.654ZM271.174 140.778C271.772 140.179 272.102 139.435 272.102 138.587H270.102C270.102 138.87 270.008 139.115 269.759 139.364L271.174 140.778ZM272.102 138.587V114.26H270.102V138.587H272.102ZM271.102 115.26H275.448V113.26H271.102V115.26ZM274.448 114.26V138.587H276.448V114.26H274.448ZM274.448 138.587C274.448 140.083 273.922 141.35 272.833 142.438L274.248 143.852C275.703 142.396 276.448 140.624 276.448 138.587H274.448ZM272.833 142.438C271.79 143.481 270.528 144 268.982 144V146C271.041 146 272.817 145.283 274.248 143.852L272.833 142.438ZM268.982 144H250.538V146H268.982V144ZM280.254 157.19H279.254V158.19H280.254V157.19ZM280.254 114.26V113.26H279.254V114.26H280.254ZM309.669 116.168L308.952 116.865L308.961 116.875L308.972 116.885L309.669 116.168ZM309.669 143.145L310.376 143.852H310.376L309.669 143.145ZM284.6 145V144H283.6V145H284.6ZM284.6 157.19V158.19H285.6V157.19H284.6ZM306.595 140.071L305.887 139.364V139.364L306.595 140.071ZM306.595 119.242L305.857 119.918L305.887 119.95L305.919 119.979L306.595 119.242ZM285.236 119.242L285.911 119.979L285.927 119.964L285.943 119.949L285.236 119.242ZM285.236 140.071L284.528 140.778L284.544 140.793L284.56 140.808L285.236 140.071ZM281.254 157.19V114.26H279.254V157.19H281.254ZM280.254 115.26H305.164V113.26H280.254V115.26ZM305.164 115.26C306.659 115.26 307.902 115.786 308.952 116.865L310.386 115.471C308.962 114.006 307.202 113.26 305.164 113.26V115.26ZM308.972 116.885C310.051 117.934 310.577 119.178 310.577 120.673H312.577C312.577 118.635 311.83 116.875 310.366 115.451L308.972 116.885ZM310.577 120.673V138.587H312.577V120.673H310.577ZM310.577 138.587C310.577 140.083 310.05 141.35 308.962 142.438L310.376 143.852C311.831 142.396 312.577 140.624 312.577 138.587H310.577ZM308.962 142.438C307.914 143.485 306.668 144 305.164 144V146C307.192 146 308.949 145.278 310.376 143.852L308.962 142.438ZM305.164 144H284.6V146H305.164V144ZM283.6 145V157.19H285.6V145H283.6ZM284.6 156.19H280.254V158.19H284.6V156.19ZM286.72 141.654H305.164V139.654H286.72V141.654ZM305.164 141.654C305.986 141.654 306.72 141.36 307.302 140.778L305.887 139.364C305.692 139.559 305.472 139.654 305.164 139.654V141.654ZM307.302 140.778C307.901 140.179 308.231 139.435 308.231 138.587H306.231C306.231 138.87 306.137 139.115 305.887 139.364L307.302 140.778ZM308.231 138.587V120.673H306.231V138.587H308.231ZM308.231 120.673C308.231 119.822 307.897 119.079 307.27 118.505L305.919 119.979C306.14 120.182 306.231 120.393 306.231 120.673H308.231ZM307.332 118.566C306.757 117.94 306.015 117.606 305.164 117.606V119.606C305.443 119.606 305.654 119.696 305.857 119.918L307.332 118.566ZM305.164 117.606H286.72V119.606H305.164V117.606ZM286.72 117.606C285.872 117.606 285.127 117.936 284.528 118.535L285.943 119.949C286.192 119.7 286.437 119.606 286.72 119.606V117.606ZM284.56 118.505C283.933 119.079 283.6 119.822 283.6 120.673H285.6C285.6 120.393 285.69 120.182 285.911 119.979L284.56 118.505ZM283.6 120.673V138.587H285.6V120.673H283.6ZM283.6 138.587C283.6 139.435 283.93 140.179 284.528 140.778L285.943 139.364C285.694 139.115 285.6 138.87 285.6 138.587H283.6ZM284.56 140.808C285.165 141.363 285.899 141.654 286.72 141.654V139.654C286.409 139.654 286.154 139.557 285.911 139.334L284.56 140.808Z" fill="#666666"/>
</g>
<path d="M40.135 104.07C40.135 105.22 39.1771 106.178 38.0275 106.178C36.8779 106.178 35.9199 105.22 35.9199 104.07C35.9199 102.921 36.8779 101.963 38.0275 101.963C39.1771 101.963 40.135 102.921 40.135 104.07Z" fill="#66E440"/>
<path d="M44.9562 110.17C45.9438 110.17 46.7444 109.369 46.7444 108.381C46.7444 107.394 45.9438 106.593 44.9562 106.593C43.9686 106.593 43.168 107.394 43.168 108.381C43.168 109.369 43.9686 110.17 44.9562 110.17Z" fill="#666666"/>
<path d="M46.1695 124.412C46.8397 124.412 47.3829 123.868 47.3829 123.198C47.3829 122.528 46.8397 121.985 46.1695 121.985C45.4993 121.985 44.9561 122.528 44.9561 123.198C44.9561 123.868 45.4993 124.412 46.1695 124.412Z" fill="#666666"/>
<path d="M53.2913 100.749C53.2913 101.899 52.3333 102.857 51.1837 102.857C50.0342 102.857 49.0762 101.899 49.0762 100.749C49.0762 99.5998 50.0342 98.6418 51.1837 98.6418C52.3652 98.6418 53.2913 99.5998 53.2913 100.749Z" fill="#66E440"/>
<path d="M46.8087 98.6419C46.8087 99.2167 46.3297 99.6957 45.755 99.6957C45.1802 99.6957 44.7012 99.2167 44.7012 98.6419C44.7012 98.0671 45.1802 97.5881 45.755 97.5881C46.3297 97.5881 46.8087 98.0671 46.8087 98.6419Z" fill="#666666"/>
<path d="M59.2653 111.094C59.6886 109.309 58.5851 107.519 56.8005 107.096C55.0158 106.672 53.2259 107.776 52.8026 109.561C52.3793 111.345 53.4829 113.135 55.2675 113.558C57.0521 113.982 58.842 112.878 59.2653 111.094Z" fill="#666666"/>
<path d="M44.7005 117.003C45.6176 117.003 46.361 116.26 46.361 115.343C46.361 114.426 45.6176 113.682 44.7005 113.682C43.7835 113.682 43.04 114.426 43.04 115.343C43.04 116.26 43.7835 117.003 44.7005 117.003Z" fill="#66E440"/>
<path d="M53.9294 121.474C54.6524 121.474 55.2386 120.888 55.2386 120.165C55.2386 119.442 54.6524 118.855 53.9294 118.855C53.2063 118.855 52.6201 119.442 52.6201 120.165C52.6201 120.888 53.2063 121.474 53.9294 121.474Z" fill="#66E440"/>
<path d="M38.8255 115.343C38.8255 116.396 37.9633 117.291 36.8776 117.291C35.8238 117.291 34.9297 116.428 34.9297 115.343C34.9297 114.257 35.7919 113.395 36.8776 113.395C37.9633 113.395 38.8255 114.257 38.8255 115.343Z" fill="#666666"/>
<path d="M47 130C36.5261 130 28 121.474 28 111C28 100.526 36.5261 92 47 92C57.474 92 66 100.526 66 111C66 121.474 57.474 130 47 130ZM47 94.2034C37.7395 94.2034 30.2034 101.739 30.2034 111C30.2034 120.261 37.7395 127.797 47 127.797C56.2605 127.797 63.7966 120.261 63.7966 111C63.7966 101.739 56.2605 94.2034 47 94.2034Z" fill="#666666"/>
<path d="M69.2608 98.2117C69.2608 99.089 68.5297 99.8201 67.6523 99.8201C66.775 99.8201 66.0439 99.089 66.0439 98.2117C66.0439 97.3344 66.775 96.6033 67.6523 96.6033C68.5297 96.6033 69.2608 97.3344 69.2608 98.2117Z" fill="#66E440"/>
<path d="M72.9399 102.866C73.6936 102.866 74.3046 102.255 74.3046 101.502C74.3046 100.748 73.6936 100.137 72.9399 100.137C72.1862 100.137 71.5752 100.748 71.5752 101.502C71.5752 102.255 72.1862 102.866 72.9399 102.866Z" fill="#666666"/>
<path d="M73.8665 113.735C74.3779 113.735 74.7925 113.321 74.7925 112.809C74.7925 112.298 74.3779 111.883 73.8665 111.883C73.355 111.883 72.9404 112.298 72.9404 112.809C72.9404 113.321 73.355 113.735 73.8665 113.735Z" fill="#666666"/>
<path d="M79.3008 95.6773C79.3008 96.5546 78.5697 97.2857 77.6924 97.2857C76.8151 97.2857 76.084 96.5546 76.084 95.6773C76.084 94.7999 76.8151 94.0688 77.6924 94.0688C78.5941 94.0688 79.3008 94.7999 79.3008 95.6773Z" fill="#66E440"/>
<path d="M74.3535 94.0689C74.3535 94.5075 73.988 94.8731 73.5493 94.8731C73.1107 94.8731 72.7451 94.5075 72.7451 94.0689C72.7451 93.6302 73.1107 93.2646 73.5493 93.2646C73.988 93.2646 74.3535 93.6302 74.3535 94.0689Z" fill="#666666"/>
<path d="M83.8598 103.572C84.1828 102.21 83.3406 100.844 81.9787 100.521C80.6168 100.198 79.2508 101.04 78.9277 102.402C78.6047 103.764 79.4469 105.13 80.8088 105.453C82.1707 105.776 83.5367 104.934 83.8598 103.572Z" fill="#666666"/>
<path d="M72.7448 108.081C73.4446 108.081 74.012 107.514 74.012 106.814C74.012 106.114 73.4446 105.547 72.7448 105.547C72.0449 105.547 71.4775 106.114 71.4775 106.814C71.4775 107.514 72.0449 108.081 72.7448 108.081Z" fill="#66E440"/>
<path d="M79.7882 111.493C80.34 111.493 80.7874 111.046 80.7874 110.494C80.7874 109.942 80.34 109.495 79.7882 109.495C79.2364 109.495 78.7891 109.942 78.7891 110.494C78.7891 111.046 79.2364 111.493 79.7882 111.493Z" fill="#66E440"/>
<path d="M68.2612 106.814C68.2612 107.618 67.6032 108.301 66.7746 108.301C65.9704 108.301 65.2881 107.643 65.2881 106.814C65.2881 105.986 65.9461 105.328 66.7746 105.328C67.6032 105.328 68.2612 105.986 68.2612 106.814Z" fill="#666666"/>
<path d="M74.5 118C66.5067 118 60 111.493 60 103.5C60 95.5067 66.5067 89 74.5 89C82.4933 89 89 95.5067 89 103.5C89 111.493 82.4933 118 74.5 118ZM74.5 90.6815C67.4328 90.6815 61.6815 96.4328 61.6815 103.5C61.6815 110.567 67.4328 116.318 74.5 116.318C81.5672 116.318 87.3185 110.567 87.3185 103.5C87.3185 96.4328 81.5672 90.6815 74.5 90.6815Z" fill="#666666"/>
<path d="M51.286 72.1999C51.286 73.7428 50.0003 75.0285 48.4575 75.0285C46.9146 75.0285 45.6289 73.7428 45.6289 72.1999C45.6289 70.6571 46.9146 69.3713 48.4575 69.3713C50.0003 69.3713 51.286 70.6571 51.286 72.1999Z" fill="#66E440"/>
<path d="M57.7574 80.3857C59.0829 80.3857 60.1574 79.3112 60.1574 77.9857C60.1574 76.6602 59.0829 75.5857 57.7574 75.5857C56.4319 75.5857 55.3574 76.6602 55.3574 77.9857C55.3574 79.3112 56.4319 80.3857 57.7574 80.3857Z" fill="#666666"/>
<path d="M59.3854 99.5001C60.2848 99.5001 61.014 98.7709 61.014 97.8715C61.014 96.9721 60.2848 96.2429 59.3854 96.2429C58.486 96.2429 57.7568 96.9721 57.7568 97.8715C57.7568 98.7709 58.486 99.5001 59.3854 99.5001Z" fill="#666666"/>
<path d="M68.9423 67.7429C68.9423 69.2857 67.6566 70.5715 66.1137 70.5715C64.5709 70.5715 63.2852 69.2857 63.2852 67.7429C63.2852 66.2 64.5709 64.9143 66.1137 64.9143C67.6994 64.9143 68.9423 66.2 68.9423 67.7429Z" fill="#66E440"/>
<path d="M60.2426 64.9143C60.2426 65.6857 59.5998 66.3286 58.8283 66.3286C58.0569 66.3286 57.4141 65.6857 57.4141 64.9143C57.4141 64.1429 58.0569 63.5 58.8283 63.5C59.5998 63.5 60.2426 64.1429 60.2426 64.9143Z" fill="#666666"/>
<path d="M76.9611 81.6256C77.5292 79.2305 76.0482 76.8283 73.653 76.2601C71.2579 75.692 68.8556 77.1731 68.2875 79.5682C67.7194 81.9634 69.2004 84.3656 71.5956 84.9337C73.9907 85.5019 76.393 84.0208 76.9611 81.6256Z" fill="#666666"/>
<path d="M57.4141 89.5572C58.6449 89.5572 59.6427 88.5595 59.6427 87.3287C59.6427 86.0979 58.6449 85.1001 57.4141 85.1001C56.1833 85.1001 55.1855 86.0979 55.1855 87.3287C55.1855 88.5595 56.1833 89.5572 57.4141 89.5572Z" fill="#66E440"/>
<path d="M69.7991 95.557C70.7696 95.557 71.5563 94.7703 71.5563 93.7999C71.5563 92.8294 70.7696 92.0427 69.7991 92.0427C68.8287 92.0427 68.042 92.8294 68.042 93.7999C68.042 94.7703 68.8287 95.557 69.7991 95.557Z" fill="#66E440"/>
<path d="M49.5284 87.3286C49.5284 88.7429 48.3712 89.9429 46.9141 89.9429C45.4998 89.9429 44.2998 88.7858 44.2998 87.3286C44.2998 85.8715 45.4569 84.7144 46.9141 84.7144C48.3712 84.7144 49.5284 85.8715 49.5284 87.3286Z" fill="#666666"/>
<path d="M60.5 107C46.4429 107 35 95.5571 35 81.5C35 67.4429 46.4429 56 60.5 56C74.5571 56 86 67.4429 86 81.5C86 95.5571 74.5571 107 60.5 107ZM60.5 58.9571C48.0714 58.9571 37.9571 69.0714 37.9571 81.5C37.9571 93.9286 48.0714 104.043 60.5 104.043C72.9286 104.043 83.0429 93.9286 83.0429 81.5C83.0429 69.0714 72.9286 58.9571 60.5 58.9571Z" fill="#666666"/>
<defs>
<filter id="filter0_d_645_456" x="0.576172" y="42.3201" width="111.68" height="111.68" filterUnits="userSpaceOnUse" color-interpolation-filters="sRGB">
<feFlood flood-opacity="0" result="BackgroundImageFix"/>
<feColorMatrix in="SourceAlpha" type="matrix" values="0 0 0 0 0 0 0 0 0 0 0 0 0 0 0 0 0 0 127 0" result="hardAlpha"/>
<feOffset dy="4"/>
<feGaussianBlur stdDeviation="2"/>
<feComposite in2="hardAlpha" operator="out"/>
<feColorMatrix type="matrix" values="0 0 0 0 0 0 0 0 0 0 0 0 0 0 0 0 0 0 0.25 0"/>
<feBlend mode="normal" in2="BackgroundImageFix" result="effect1_dropShadow_645_456"/>
<feBlend mode="normal" in="SourceGraphic" in2="effect1_dropShadow_645_456" result="shape"/>
</filter>
<filter id="filter1_d_645_456" x="117.032" y="94.1599" width="59.8398" height="59.8401" filterUnits="userSpaceOnUse" color-interpolation-filters="sRGB">
<feFlood flood-opacity="0" result="BackgroundImageFix"/>
<feColorMatrix in="SourceAlpha" type="matrix" values="0 0 0 0 0 0 0 0 0 0 0 0 0 0 0 0 0 0 127 0" result="hardAlpha"/>
<feOffset dy="4"/>
<feGaussianBlur stdDeviation="2"/>
<feComposite in2="hardAlpha" operator="out"/>
<feColorMatrix type="matrix" values="0 0 0 0 0 0 0 0 0 0 0 0 0 0 0 0 0 0 0.25 0"/>
<feBlend mode="normal" in2="BackgroundImageFix" result="effect1_dropShadow_645_456"/>
<feBlend mode="normal" in="SourceGraphic" in2="effect1_dropShadow_645_456" result="shape"/>
</filter>
<filter id="filter2_d_645_456" x="112.6" y="43.5" width="203.52" height="46.5" filterUnits="userSpaceOnUse" color-interpolation-filters="sRGB">
<feFlood flood-opacity="0" result="BackgroundImageFix"/>
<feColorMatrix in="SourceAlpha" type="matrix" values="0 0 0 0 0 0 0 0 0 0 0 0 0 0 0 0 0 0 127 0" result="hardAlpha"/>
<feOffset dy="4"/>
<feGaussianBlur stdDeviation="2"/>
<feComposite in2="hardAlpha" operator="out"/>
<feColorMatrix type="matrix" values="0 0 0 0 0 0 0 0 0 0 0 0 0 0 0 0 0 0 0.25 0"/>
<feBlend mode="normal" in2="BackgroundImageFix" result="effect1_dropShadow_645_456"/>
<feBlend mode="normal" in="SourceGraphic" in2="effect1_dropShadow_645_456" result="shape"/>
</filter>
<filter id="filter3_d_645_456" x="177.756" y="114.26" width="137.82" height="50.9299" filterUnits="userSpaceOnUse" color-interpolation-filters="sRGB">
<feFlood flood-opacity="0" result="BackgroundImageFix"/>
<feColorMatrix in="SourceAlpha" type="matrix" values="0 0 0 0 0 0 0 0 0 0 0 0 0 0 0 0 0 0 127 0" result="hardAlpha"/>
<feOffset dy="4"/>
<feGaussianBlur stdDeviation="2"/>
<feComposite in2="hardAlpha" operator="out"/>
<feColorMatrix type="matrix" values="0 0 0 0 0 0 0 0 0 0 0 0 0 0 0 0 0 0 0.25 0"/>
<feBlend mode="normal" in2="BackgroundImageFix" result="effect1_dropShadow_645_456"/>
<feBlend mode="normal" in="SourceGraphic" in2="effect1_dropShadow_645_456" result="shape"/>
</filter>
</defs>
</svg>
