<svg width="304" height="144" viewBox="0 0 304 144" fill="none" xmlns="http://www.w3.org/2000/svg">
<g filter="url(#filter0_d_609_15)">
<path d="M260 82H295V103L276 124.5L260.5 126L260 103V82Z" fill="#FF0000"/>
<path fill-rule="evenodd" clip-rule="evenodd" d="M246.359 27.8904C234.577 31.7854 225.651 39.5374 220.552 50.3014C217.379 56.9994 217.357 57.1574 217.031 75.2124C216.656 95.9254 217.75 102.397 223.146 111.405C227.233 118.228 232.643 122.965 240.859 126.916C246.889 129.816 248.118 130.04 257.859 130.01C266.428 129.984 269.423 129.555 274.144 127.675C281.251 124.846 290.414 116.612 294.203 109.652C297.494 103.605 299.818 93.3604 299.842 84.7924L299.859 78.5424H277.859H255.859V102.017V125.492L252.609 124.874C236.69 121.848 225.692 110.853 222.77 95.0424C222.142 91.6474 221.823 82.5304 222.035 74.0424C222.376 60.3744 222.643 58.5384 225.045 53.3674C228.726 45.4394 234.873 39.1524 242.719 35.2924C248.771 32.3144 250.123 32.0424 258.863 32.0424C267.634 32.0424 268.942 32.3084 275.105 35.3424C284.577 40.0064 292.774 50.8454 292.837 58.7924C292.856 61.1854 293.254 61.5424 295.904 61.5424C298.872 61.5424 298.933 61.4474 298.3 57.7924C296.371 46.6564 287.831 35.6234 277.022 30.3014C271.144 27.4084 269.447 27.0524 260.417 26.8234C254.087 26.6624 248.876 27.0584 246.359 27.8904ZM293.666 91.3124C292.648 108.905 281.495 121.569 264.109 124.874L260.859 125.492V104.517V83.5424H277.487H294.116L293.666 91.3124Z" fill="black"/>
</g>
<g filter="url(#filter1_d_609_15)">
<path d="M182.552 132.16C175.736 132.16 169.4 130.624 163.544 127.552C157.688 124.384 152.888 120.064 149.144 114.592C145.4 109.12 143.192 103.072 142.52 96.448H147.848C148.52 102.112 150.488 107.296 153.752 112C157.016 116.608 161.144 120.256 166.136 122.944C171.224 125.536 176.696 126.832 182.552 126.832C188.984 126.832 194.888 125.248 200.264 122.08C205.64 118.912 209.912 114.544 213.08 108.976C216.248 103.408 217.832 97.168 217.832 90.256V35.104H172.904V29.776H223.016V90.256C223.016 98.128 221.192 105.28 217.544 111.712C213.992 118.048 209.096 123.04 202.856 126.688C196.712 130.336 189.944 132.16 182.552 132.16Z" fill="black"/>
</g>
<g filter="url(#filter2_d_609_15)">
<path d="M5.152 69.336C5.728 69.72 6.436 70.044 7.276 70.308C8.116 70.572 9.064 70.704 10.12 70.704C11.944 70.704 13.288 70.284 14.152 69.444C15.04 68.604 15.628 67.38 15.916 65.772C16.204 64.14 16.348 62.136 16.348 59.76V46.44H18.184V59.436C18.184 61.356 18.088 63.12 17.896 64.728C17.728 66.312 17.38 67.68 16.852 68.832C16.324 69.96 15.52 70.836 14.44 71.46C13.384 72.084 11.968 72.396 10.192 72.396C9.04 72.396 7.996 72.264 7.06 72C6.148 71.736 5.32 71.34 4.576 70.812L5.152 69.336ZM32.0049 46.44H33.5889L44.3889 72H42.4449L38.8809 63.576H26.6769L23.1129 72H21.1329L32.0049 46.44ZM38.3769 62.064L32.7969 48.672L27.1089 62.064H38.3769ZM55.9173 46.62H57.7173L61.5333 55.908L65.3493 46.62H67.1493L62.6493 57.384L68.0133 69.84L77.8053 46.44H79.8213L68.8773 72H67.1853L61.5693 58.86L55.9173 72H54.2253L43.3173 46.44H45.2973L55.1253 69.84L60.4173 57.384L55.9173 46.62ZM100.7 70.344V72H83.6722V46.44H100.376V48.096H85.5082V58.14H98.5042V59.724H85.5082V70.344H100.7ZM105.715 72V46.44H116.335C117.775 46.44 119.059 46.836 120.187 47.628C121.315 48.396 122.191 49.392 122.815 50.616C123.463 51.816 123.787 53.064 123.787 54.36C123.787 55.632 123.535 56.82 123.031 57.924C122.527 59.028 121.819 59.952 120.907 60.696C120.019 61.44 118.975 61.896 117.775 62.064L124.147 72H122.023L115.831 62.352H107.551V72H105.715ZM107.551 60.66H116.515C117.619 60.66 118.579 60.36 119.395 59.76C120.211 59.16 120.835 58.38 121.267 57.42C121.723 56.46 121.951 55.44 121.951 54.36C121.951 53.256 121.687 52.236 121.159 51.3C120.655 50.34 119.971 49.572 119.107 48.996C118.243 48.396 117.295 48.096 116.263 48.096H107.551V60.66ZM146.634 48.096H137.274V72H135.438V48.096H126.078V46.44H146.634V48.096ZM170.41 46.44V72H168.574V59.76H152.446V72H150.61V46.44H152.446V58.104H168.574V46.44H170.41ZM17.572 114.18C15.844 114.18 14.248 113.808 12.784 113.064C11.32 112.32 10.048 111.336 8.968 110.112C7.888 108.864 7.048 107.472 6.448 105.936C5.872 104.376 5.584 102.792 5.584 101.184C5.584 99.504 5.872 97.896 6.448 96.36C7.024 94.8 7.84 93.42 8.896 92.22C9.952 90.996 11.2 90.036 12.64 89.34C14.08 88.62 15.652 88.26 17.356 88.26C19.9 88.26 21.952 88.788 23.512 89.844C25.072 90.876 26.272 92.208 27.112 93.84L25.6 94.74C24.736 93.06 23.584 91.848 22.144 91.104C20.728 90.336 19.12 89.952 17.32 89.952C15.808 89.952 14.44 90.276 13.216 90.924C11.992 91.548 10.948 92.4 10.084 93.48C9.22 94.536 8.56 95.736 8.104 97.08C7.648 98.424 7.42 99.804 7.42 101.22C7.42 102.708 7.684 104.136 8.212 105.504C8.74 106.848 9.472 108.048 10.408 109.104C11.344 110.16 12.436 110.988 13.684 111.588C14.932 112.188 16.264 112.488 17.68 112.488C19.24 112.488 20.716 112.128 22.108 111.408C23.5 110.688 24.856 109.548 26.176 107.988V103.056H20.38V101.58H27.76V114H26.176V110.004C23.704 112.788 20.836 114.18 17.572 114.18ZM33.1527 114V88.44H43.7727C45.2127 88.44 46.4967 88.836 47.6247 89.628C48.7527 90.396 49.6287 91.392 50.2527 92.616C50.9007 93.816 51.2247 95.064 51.2247 96.36C51.2247 97.632 50.9727 98.82 50.4687 99.924C49.9647 101.028 49.2567 101.952 48.3447 102.696C47.4567 103.44 46.4127 103.896 45.2127 104.064L51.5847 114H49.4607L43.2687 104.352H34.9887V114H33.1527ZM34.9887 102.66H43.9527C45.0567 102.66 46.0167 102.36 46.8327 101.76C47.6487 101.16 48.2727 100.38 48.7047 99.42C49.1607 98.46 49.3887 97.44 49.3887 96.36C49.3887 95.256 49.1247 94.236 48.5967 93.3C48.0927 92.34 47.4087 91.572 46.5447 90.996C45.6807 90.396 44.7327 90.096 43.7007 90.096H34.9887V102.66ZM66.7196 114.18C64.9436 114.18 63.3236 113.82 61.8596 113.1C60.3956 112.356 59.1356 111.372 58.0796 110.148C57.0236 108.924 56.2076 107.544 55.6316 106.008C55.0556 104.448 54.7676 102.852 54.7676 101.22C54.7676 99.516 55.0676 97.896 55.6676 96.36C56.2676 94.8 57.1076 93.42 58.1876 92.22C59.2916 90.996 60.5636 90.036 62.0036 89.34C63.4676 88.62 65.0516 88.26 66.7556 88.26C68.5316 88.26 70.1516 88.632 71.6156 89.376C73.0796 90.12 74.3396 91.116 75.3956 92.364C76.4516 93.612 77.2676 95.004 77.8436 96.54C78.4196 98.076 78.7076 99.636 78.7076 101.22C78.7076 102.948 78.3956 104.592 77.7716 106.152C77.1716 107.688 76.3316 109.068 75.2516 110.292C74.1716 111.492 72.8996 112.44 71.4356 113.136C69.9956 113.832 68.4236 114.18 66.7196 114.18ZM56.6036 101.22C56.6036 102.684 56.8436 104.088 57.3236 105.432C57.8276 106.776 58.5356 107.988 59.4476 109.068C60.3596 110.124 61.4276 110.964 62.6516 111.588C63.8996 112.188 65.2676 112.488 66.7556 112.488C68.2916 112.488 69.6716 112.164 70.8956 111.516C72.1436 110.868 73.2116 110.004 74.0996 108.924C74.9876 107.844 75.6596 106.644 76.1156 105.324C76.5956 103.98 76.8356 102.612 76.8356 101.22C76.8356 99.756 76.5836 98.352 76.0796 97.008C75.5996 95.664 74.9036 94.464 73.9916 93.408C73.0796 92.352 71.9996 91.512 70.7516 90.888C69.5276 90.264 68.1956 89.952 66.7556 89.952C65.2196 89.952 63.8276 90.276 62.5796 90.924C61.3316 91.572 60.2636 92.436 59.3756 93.516C58.4876 94.596 57.8036 95.808 57.3236 97.152C56.8436 98.472 56.6036 99.828 56.6036 101.22ZM93.9331 114.18C91.8931 114.18 90.1891 113.82 88.8211 113.1C87.4531 112.38 86.3611 111.408 85.5451 110.184C84.7291 108.936 84.1411 107.544 83.7811 106.008C83.4211 104.472 83.2411 102.9 83.2411 101.292V88.44H85.0771V101.292C85.0771 102.708 85.2211 104.088 85.5091 105.432C85.7971 106.752 86.2651 107.952 86.9131 109.032C87.5851 110.088 88.4851 110.928 89.6131 111.552C90.7651 112.176 92.1931 112.488 93.8971 112.488C95.6251 112.488 97.0531 112.176 98.1811 111.552C99.3331 110.904 100.233 110.04 100.881 108.96C101.553 107.88 102.021 106.68 102.285 105.36C102.573 104.016 102.717 102.66 102.717 101.292V88.44H104.553V101.292C104.553 102.996 104.361 104.628 103.977 106.188C103.617 107.724 103.017 109.092 102.177 110.292C101.337 111.492 100.233 112.44 98.8651 113.136C97.5211 113.832 95.8771 114.18 93.9331 114.18ZM110.848 114V88.44H121.36C122.8 88.44 124.072 88.836 125.176 89.628C126.304 90.396 127.192 91.392 127.84 92.616C128.488 93.816 128.812 95.064 128.812 96.36C128.812 97.728 128.5 99.024 127.876 100.248C127.276 101.448 126.436 102.432 125.356 103.2C124.276 103.968 123.016 104.352 121.576 104.352H112.684V114H110.848ZM112.684 102.66H121.504C122.632 102.66 123.592 102.36 124.384 101.76C125.2 101.16 125.824 100.38 126.256 99.42C126.712 98.46 126.94 97.44 126.94 96.36C126.94 95.256 126.676 94.224 126.148 93.264C125.644 92.304 124.96 91.536 124.096 90.96C123.256 90.384 122.32 90.096 121.288 90.096H112.684V102.66Z" fill="black"/>
</g>
<g filter="url(#filter3_d_609_15)">
<path d="M186.727 71.0894C186.482 71.0894 186.197 71.0486 185.952 70.967C185.299 70.7629 184.809 70.314 184.483 69.7427C184.197 69.1305 184.115 68.4776 184.319 67.8246C184.727 66.5187 186.156 65.7841 187.462 66.2331C188.768 66.6411 189.502 68.0695 189.053 69.3754C188.768 70.4364 187.788 71.0894 186.727 71.0894ZM186.727 67.0492C186.482 67.0492 186.237 67.0901 186.033 67.2125C185.666 67.4165 185.38 67.743 185.258 68.1103C185.136 68.5184 185.176 68.9265 185.34 69.2938C185.544 69.6611 185.87 69.9467 186.237 70.0692C187.054 70.314 187.951 69.9059 188.196 69.0897C188.319 68.6816 188.278 68.2735 188.115 67.9062C187.911 67.539 187.584 67.2533 187.217 67.1309C187.054 67.0901 186.89 67.0492 186.727 67.0492Z" fill="#666666"/>
<path d="M187.788 68.9264C187.584 69.4977 186.972 69.8242 186.4 69.6201C185.829 69.4161 185.503 68.8039 185.707 68.2326C185.911 67.6613 186.523 67.3348 187.094 67.5389C187.665 67.7429 187.951 68.355 187.788 68.9264Z" fill="#66E440"/>
<path d="M187.666 63.3354C187.625 63.3354 187.584 63.3354 187.503 63.2946L184.891 62.4376C184.646 62.3559 184.524 62.1111 184.605 61.8254L185.34 59.6217C185.503 59.132 185.993 58.8871 186.483 59.0504L188.278 59.6217C188.523 59.7033 188.686 59.8666 188.809 60.0706C188.931 60.2747 188.931 60.5195 188.849 60.7644L188.115 62.9681C188.033 63.2129 187.87 63.3354 187.666 63.3354ZM185.625 61.703L187.34 62.2743L187.911 60.5195L186.156 59.9482L185.625 61.703Z" fill="#666666"/>
<path d="M182.443 81.1283C182.32 81.1283 182.239 81.1283 182.116 81.0875L178.729 79.9857C178.199 79.8224 177.913 79.2103 178.076 78.6798L178.321 77.8636C178.403 77.6187 178.688 77.4555 178.974 77.5371L183.341 79.0062C183.626 79.0879 183.749 79.3735 183.667 79.6592L183.422 80.4754C183.259 80.8835 182.851 81.1283 182.443 81.1283ZM179.137 78.6798L179.015 79.0062L182.443 80.1489L182.565 79.8224L179.137 78.6798Z" fill="#666666"/>
<path d="M181.912 85.3726C181.83 85.3726 181.789 85.3726 181.708 85.3318L169.547 81.9038C169.342 81.863 169.179 81.7406 169.098 81.5365C169.016 81.3733 168.975 81.1693 169.016 80.9652L169.138 80.4755C169.179 80.2714 169.302 80.1082 169.506 80.0266C169.669 79.945 169.873 79.9042 170.077 79.945L182.238 83.373C182.442 83.4138 182.606 83.5362 182.687 83.7403C182.769 83.9035 182.81 84.1075 182.769 84.3116L182.646 84.8013C182.606 85.0054 182.483 85.1686 182.279 85.2502C182.157 85.3318 182.034 85.3726 181.912 85.3726ZM169.914 80.6795L169.751 81.1693L181.912 84.6381H181.953L182.075 84.1484L169.914 80.6795Z" fill="#666666"/>
<path d="M192.481 98.84H185.543C185.258 98.84 185.054 98.5951 185.054 98.3503V91.9431C185.054 89.7394 186.849 87.9846 189.012 87.9846C191.175 87.9846 192.971 89.7802 192.971 91.9431V98.3094C192.971 98.5951 192.767 98.84 192.481 98.84ZM186.033 97.8197H191.951V91.9431C191.951 90.3108 190.645 89.0049 189.012 89.0049C187.38 89.0049 186.074 90.3108 186.074 91.9431V97.8197H186.033Z" fill="#666666"/>
<path d="M183.177 79.9854C183.137 79.9854 183.055 79.9854 183.014 79.9446L178.648 78.5162C178.403 78.4346 178.239 78.149 178.321 77.8633L182.28 65.702C182.361 65.4572 182.647 65.2939 182.933 65.3756C183.218 65.4572 183.341 65.7428 183.259 66.0285L179.423 77.7L182.851 78.8019L185.463 70.7624C185.014 70.5176 184.687 70.1503 184.442 69.7014C184.116 69.0892 184.075 68.3955 184.279 67.7833C184.647 66.6406 185.789 65.9061 186.973 66.0693L187.707 63.784C187.748 63.7024 187.748 63.5799 187.666 63.4983C187.626 63.4167 187.544 63.3351 187.462 63.3351L184.728 62.4373C184.524 62.3965 184.32 62.4781 184.279 62.6821L183.953 63.6615C183.871 63.9064 183.585 64.0696 183.3 63.988C183.055 63.9064 182.892 63.6207 182.973 63.3351L183.3 62.3556C183.545 61.6211 184.32 61.2538 185.014 61.4986L187.748 62.3965C188.483 62.6413 188.85 63.4167 188.605 64.1105L187.707 66.8447C187.626 67.0896 187.34 67.2528 187.054 67.1712C186.687 67.0487 186.238 67.0896 185.912 67.2528C185.544 67.4568 185.299 67.7425 185.136 68.1506C185.014 68.5179 185.055 68.9668 185.218 69.2933C185.422 69.6606 185.708 69.9054 186.116 70.0687C186.238 70.1095 186.361 70.1911 186.401 70.3135C186.442 70.4359 186.483 70.5584 186.442 70.6808L183.504 79.6181C183.463 79.7405 183.381 79.863 183.259 79.9038C183.341 79.9446 183.259 79.9854 183.177 79.9854Z" fill="#666666"/>
<path d="M192.319 91.4532C192.279 91.4532 192.197 91.4532 192.156 91.4124C192.034 91.3716 191.911 91.2492 191.87 91.086C191.707 90.5554 191.422 90.1065 191.013 89.7392C190.891 89.6576 190.85 89.4944 190.85 89.3719C190.85 89.2087 190.932 89.0863 191.054 89.0047C194.033 87.0866 195.829 83.8627 195.829 80.3122C195.829 75.6191 192.646 71.5382 188.116 70.3547C187.953 70.3139 187.83 70.1914 187.789 70.0282C187.749 69.865 187.789 69.7017 187.871 69.5793C187.993 69.4161 188.116 69.2528 188.157 69.0488C188.157 68.9672 188.198 68.9263 188.198 68.8855C188.238 68.7631 188.279 68.6407 188.402 68.5591C188.524 68.4774 188.646 68.4366 188.769 68.4774C194.278 69.9874 198.155 75.0478 198.155 80.7611C198.155 85.0053 196.033 88.9639 192.483 91.3308C192.523 91.4124 192.442 91.4532 192.319 91.4532ZM192.074 89.4944C192.279 89.7392 192.401 89.9841 192.564 90.2289C195.543 87.9844 197.339 84.5156 197.339 80.7611C197.339 75.6191 193.952 71.0484 189.095 69.5385C189.095 69.5793 189.055 69.6201 189.055 69.6609C193.666 71.1301 196.849 75.4559 196.849 80.353C196.808 83.9851 195.054 87.3723 192.074 89.4944ZM188.728 68.9672L189.177 69.0488L188.728 68.9672Z" fill="#666666"/>
<path d="M190.645 92.147C190.645 93.0448 189.91 93.7794 189.012 93.7794C188.114 93.7794 187.38 93.0448 187.38 92.147C187.38 91.2492 188.114 90.5146 189.012 90.5146C189.91 90.5146 190.645 91.2084 190.645 92.147Z" fill="#66E440"/>
<path d="M185.503 93.4936C181.054 93.4936 177.014 91.2083 174.688 87.413C174.607 87.2498 174.607 87.0457 174.688 86.9233C174.77 86.8009 174.974 86.6784 175.137 86.7192C175.382 86.7601 175.504 86.7601 175.749 86.7192C176.076 86.6784 176.361 86.5152 176.606 86.3112C176.688 86.2295 176.851 86.1887 176.974 86.1887C177.096 86.1887 177.218 86.2703 177.3 86.3928C179.218 89.0454 182.32 90.5962 185.584 90.5962H185.666C185.788 90.5962 185.952 90.6778 186.033 90.7594C186.115 90.8818 186.156 91.0043 186.115 91.1675C186.033 91.4124 186.033 91.6572 186.033 91.9021V93.0039C186.033 93.2488 185.829 93.4528 185.584 93.4528C185.544 93.4936 185.503 93.4936 185.503 93.4936ZM175.953 87.6579C178.075 90.637 181.422 92.4326 185.095 92.5958V91.9837C185.095 91.8613 185.095 91.7388 185.095 91.6164C181.871 91.494 178.81 89.9432 176.81 87.3722C176.525 87.4946 176.239 87.5762 175.953 87.6579Z" fill="#666666"/>
<path d="M175.423 87.6987C173.872 87.6987 172.647 86.4336 172.647 84.9236C172.647 83.985 173.096 83.128 173.872 82.6383C173.994 82.5566 174.117 82.5566 174.28 82.5566L176.157 83.0872L177.708 83.5361C177.83 83.5769 177.953 83.6585 177.994 83.7809C178.157 84.1482 178.238 84.5563 178.238 84.9236C178.238 86.4336 176.973 87.6987 175.423 87.6987ZM174.239 83.4953C173.831 83.8625 173.586 84.3523 173.586 84.8828C173.586 85.903 174.402 86.7192 175.423 86.7192C176.443 86.7192 177.259 85.903 177.259 84.8828C177.259 84.6787 177.218 84.5155 177.177 84.3115L174.239 83.4953Z" fill="#666666"/>
<path d="M195.707 97.8196H179.546C179.26 97.8196 179.056 98.0644 179.056 98.3093C179.056 98.595 179.301 98.799 179.546 98.799H195.707C196.604 98.799 197.298 99.5336 197.298 100.391C197.298 100.595 197.094 100.758 196.89 100.758H173.465C173.261 100.758 173.057 100.595 173.057 100.391C173.057 99.4928 173.751 98.799 174.649 98.799H176.118C176.404 98.799 176.608 98.5542 176.608 98.3093C176.608 98.0236 176.363 97.8196 176.118 97.8196H174.649C173.221 97.8196 172.037 99.0031 172.037 100.431C172.037 101.207 172.69 101.819 173.425 101.819H196.809C197.584 101.819 198.196 101.207 198.196 100.431C198.318 99.0031 197.135 97.8196 195.707 97.8196Z" fill="#666666"/>
</g>
<defs>
<filter id="filter0_d_609_15" x="212.964" y="26.7881" width="90.8945" height="111.225" filterUnits="userSpaceOnUse" color-interpolation-filters="sRGB">
<feFlood flood-opacity="0" result="BackgroundImageFix"/>
<feColorMatrix in="SourceAlpha" type="matrix" values="0 0 0 0 0 0 0 0 0 0 0 0 0 0 0 0 0 0 127 0" result="hardAlpha"/>
<feOffset dy="4"/>
<feGaussianBlur stdDeviation="2"/>
<feComposite in2="hardAlpha" operator="out"/>
<feColorMatrix type="matrix" values="0 0 0 0 0 0 0 0 0 0 0 0 0 0 0 0 0 0 0.25 0"/>
<feBlend mode="normal" in2="BackgroundImageFix" result="effect1_dropShadow_609_15"/>
<feBlend mode="normal" in="SourceGraphic" in2="effect1_dropShadow_609_15" result="shape"/>
</filter>
<filter id="filter1_d_609_15" x="138.52" y="29.7759" width="88.4961" height="110.384" filterUnits="userSpaceOnUse" color-interpolation-filters="sRGB">
<feFlood flood-opacity="0" result="BackgroundImageFix"/>
<feColorMatrix in="SourceAlpha" type="matrix" values="0 0 0 0 0 0 0 0 0 0 0 0 0 0 0 0 0 0 127 0" result="hardAlpha"/>
<feOffset dy="4"/>
<feGaussianBlur stdDeviation="2"/>
<feComposite in2="hardAlpha" operator="out"/>
<feColorMatrix type="matrix" values="0 0 0 0 0 0 0 0 0 0 0 0 0 0 0 0 0 0 0.25 0"/>
<feBlend mode="normal" in2="BackgroundImageFix" result="effect1_dropShadow_609_15"/>
<feBlend mode="normal" in="SourceGraphic" in2="effect1_dropShadow_609_15" result="shape"/>
</filter>
<filter id="filter2_d_609_15" x="0.576172" y="46.4399" width="173.834" height="75.74" filterUnits="userSpaceOnUse" color-interpolation-filters="sRGB">
<feFlood flood-opacity="0" result="BackgroundImageFix"/>
<feColorMatrix in="SourceAlpha" type="matrix" values="0 0 0 0 0 0 0 0 0 0 0 0 0 0 0 0 0 0 127 0" result="hardAlpha"/>
<feOffset dy="4"/>
<feGaussianBlur stdDeviation="2"/>
<feComposite in2="hardAlpha" operator="out"/>
<feColorMatrix type="matrix" values="0 0 0 0 0 0 0 0 0 0 0 0 0 0 0 0 0 0 0.25 0"/>
<feBlend mode="normal" in2="BackgroundImageFix" result="effect1_dropShadow_609_15"/>
<feBlend mode="normal" in="SourceGraphic" in2="effect1_dropShadow_609_15" result="shape"/>
</filter>
<filter id="filter3_d_609_15" x="165" y="59" width="37.2051" height="50.8188" filterUnits="userSpaceOnUse" color-interpolation-filters="sRGB">
<feFlood flood-opacity="0" result="BackgroundImageFix"/>
<feColorMatrix in="SourceAlpha" type="matrix" values="0 0 0 0 0 0 0 0 0 0 0 0 0 0 0 0 0 0 127 0" result="hardAlpha"/>
<feOffset dy="4"/>
<feGaussianBlur stdDeviation="2"/>
<feComposite in2="hardAlpha" operator="out"/>
<feColorMatrix type="matrix" values="0 0 0 0 0 0 0 0 0 0 0 0 0 0 0 0 0 0 0.25 0"/>
<feBlend mode="normal" in2="BackgroundImageFix" result="effect1_dropShadow_609_15"/>
<feBlend mode="normal" in="SourceGraphic" in2="effect1_dropShadow_609_15" result="shape"/>
</filter>
</defs>
</svg>
