<svg id="Layer_1" data-name="Layer 1" xmlns="http://www.w3.org/2000/svg" viewBox="0 0 396.67 393.09"><defs><style>.cls-1{fill:#ccc;}</style></defs><path class="cls-1" d="M23.24,3.77c-1.43,1.41-1.53,4.74-.21,6.86a2.45,2.45,0,0,1-.3,3c-1,1.31-1,1.31.51.2,1.22-1,1.52-2.22,1.22-4.23-.51-2,0-3.33,1.72-4.94,2.24-2,2.24-2.12.31-2.12A5.16,5.16,0,0,0,23.24,3.77Z" transform="translate(-2.58 -2.56)"/><path class="cls-1" d="M36.15,5.18a6.65,6.65,0,0,1,1.52,5.75c-.4,3.22-.4,3.22.72.5.81-2.11.71-3.32-.61-5.74C37,4,35.74,2.56,35.13,2.56S35,3.77,36.15,5.18Z" transform="translate(-2.58 -2.56)"/><path class="cls-1" d="M46.42,3c0,.9,4,1.31,5.19.5,1-.61.4-.91-1.84-.91C47.94,2.56,46.42,2.76,46.42,3Z" transform="translate(-2.58 -2.56)"/><path class="cls-1" d="M60.55,3.77a5.74,5.74,0,0,0,4.17,1.82,5.72,5.72,0,0,0,4.17-1.82c1.12-1.41,1.12-1.51-.1-.5a7.25,7.25,0,0,1-4.07,1.31,7.3,7.3,0,0,1-4.07-1.31C59.43,2.26,59.43,2.36,60.55,3.77Z" transform="translate(-2.58 -2.56)"/><path class="cls-1" d="M96.24,5.08C97.56,6.49,99,7.6,99.39,7.6s-.3-1.11-1.72-2.52a12.14,12.14,0,0,0-3.16-2.52C94.11,2.56,94.92,3.67,96.24,5.08Z" transform="translate(-2.58 -2.56)"/><path class="cls-1" d="M107.43,4.58c-.61,1.11-.82,2-.61,2s1-.9,1.62-2,.82-2,.61-2S108,3.47,107.43,4.58Z" transform="translate(-2.58 -2.56)"/><path class="cls-1" d="M190.81,3.47c0,1,1.93,2.52,2.54,2,.1-.21-.31-1-1.12-1.72S190.81,3,190.81,3.47Z" transform="translate(-2.58 -2.56)"/><path class="cls-1" d="M196.09,4.18c-.71.8-.81,1.41-.3,1.41,1,0,2.54-1.92,2-2.52C197.62,3,196.8,3.37,196.09,4.18Z" transform="translate(-2.58 -2.56)"/><path class="cls-1" d="M223,4.28c-3,3.42-3.15,6.75-.21,10.18,4.28,5,11.39,4.63,14.24-.91,2-3.73,1.93-5.14-.61-8.37-1.73-2.21-3-2.62-6.91-2.62C226.19,2.56,224.16,3.07,223,4.28Zm12.81,2.41c2.34,2.93,2.24,4.54-.81,7.46a8,8,0,0,1-10.48.91c-3.15-2.12-3.05-7.76.11-10C227.61,3,233.41,3.77,235.85,6.69Z" transform="translate(-2.58 -2.56)"/><path class="cls-1" d="M249.27,3.67c-.41.61-.51,1.21-.2,1.51s.71-.2,1-1.11C250.8,2.36,250.19,2.06,249.27,3.67Z" transform="translate(-2.58 -2.56)"/><path class="cls-1" d="M257.91,5.08c1.33,1.41,2.65,2.32,2.85,2,.71-.71-2.95-4.54-4.17-4.54C256,2.56,256.59,3.67,257.91,5.08Z" transform="translate(-2.58 -2.56)"/><path class="cls-1" d="M347.39,4.07c-.71.91-1.12,1.72-.91,2s1-.5,1.73-1.51C349.63,2.16,349.22,2,347.39,4.07Z" transform="translate(-2.58 -2.56)"/><path class="cls-1" d="M354.71,4.58c.72,1.11,1.63,2,2.14,2s.3-.9-.31-2-1.52-2-2-2S354,3.47,354.71,4.58Z" transform="translate(-2.58 -2.56)"/><path class="cls-1" d="M385.42,4.07a6.76,6.76,0,0,0,8.34,0c2.34-1.81,1.12-2-1.63-.3-1.52,1-2.74,1-5.28.1C383.79,2.76,383.69,2.76,385.42,4.07Z" transform="translate(-2.58 -2.56)"/><path class="cls-1" d="M326.24,5.18c-3.45,2.42-2.64,10.49,1.12,10.49.51,0,.1-.71-.71-1.62-2.34-2.21-2-7.15.31-8.46,3.55-1.82,7-1.21,8.94,1.61,1.63,2.52,1.63,2.82,0,5.74-1.42,2.32-1.42,2.73-.3,1.82,3.15-2.62,2.74-8.07-.82-10.38C332.85,3.07,328.68,3.47,326.24,5.18Z" transform="translate(-2.58 -2.56)"/><path class="cls-1" d="M145.76,5.28c-1,.91-.91,5.14.2,5.75.41.3.61-.51.41-1.82-.3-1.51.1-2.52,1-2.92,2-.7,4.17,1.82,3.35,3.83-.3.91-.2,1.31.41,1,1.42-.81,1.32-3.83-.2-5.34C149.62,4.48,146.78,4.18,145.76,5.28Z" transform="translate(-2.58 -2.56)"/><path class="cls-1" d="M65.61,9.52,63.2,11.43l2.11,2.92c3.32,4.44,6.75,6,9.87,4.54s3.63-6.25.91-8.37c-1.51-1.1-1.61-1.1-.51.11a4.54,4.54,0,0,1-5.43,7.15c-4.23-1.91-2.62-8.06,2.11-8.26,2,0,2,0,0-.91C69.24,7.3,68.13,7.4,65.61,9.52Z" transform="translate(-2.58 -2.56)"/><path class="cls-1" d="M248.76,8.21c0,1.21,3.77,5.44,4.78,5.44.41,0-.4-1.21-1.83-2.82s-2.54-2.93-2.64-3.13S248.76,7.7,248.76,8.21Z" transform="translate(-2.58 -2.56)"/><path class="cls-1" d="M346.38,8.51c0,1,2.95,3.63,3.45,3,.11-.2-.61-1.21-1.62-2.21S346.38,8,346.38,8.51Z" transform="translate(-2.58 -2.56)"/><path class="cls-1" d="M354.31,9.82c-1,1-1.43,1.81-.92,1.81,1,0,3.66-2.92,3.05-3.42C356.24,8.11,355.22,8.81,354.31,9.82Z" transform="translate(-2.58 -2.56)"/><path class="cls-1" d="M260.46,10.52c-.31,1.11-1.83,2.42-3.36,3-1.73.6-2.13,1-.91,1,1.83.1,5.79-3.23,5.79-4.94S261.17,8.51,260.46,10.52Z" transform="translate(-2.58 -2.56)"/><path class="cls-1" d="M114.14,12.24c-2.54,2.42-3,5.84-1.22,10,2.85,6.75,8.44,8.66,12.61,4.23,4.88-5.14,5-11,.3-14.51C123.49,10.12,116,10.32,114.14,12.24Zm11.79,1.11c2.55,3,2.85,5.24,1.33,9-2.75,6.45-10.38,7-12.71.8C111.7,15.87,121.15,7.9,125.93,13.35Z" transform="translate(-2.58 -2.56)"/><path class="cls-1" d="M162.54,11.84c.61,1.81,2.85,2.11,2.85.4a1.6,1.6,0,0,0-1.63-1.61C162.84,10.63,162.33,11.13,162.54,11.84Z" transform="translate(-2.58 -2.56)"/><path class="cls-1" d="M361.83,12.84c-2.85,2.83-.3,7.26,4,6.66,3.05-.41,4.78-3.33,3.35-5.65C367.73,11.73,363.56,11.13,361.83,12.84Zm5.9,1.31c1,1.21,1,1.82,0,3-2.75,3.22-7.22.8-5.69-3a2.78,2.78,0,0,1,2.44-1.51A5,5,0,0,1,367.73,14.15Z" transform="translate(-2.58 -2.56)"/><path class="cls-1" d="M14.59,14.46c-2.23,2.41-2.13,3.22.11,3.12,1.11,0,1.22-.2.4-.6-1-.41-.91-.91.41-2.42.91-1,1.52-1.92,1.22-1.92A6.49,6.49,0,0,0,14.59,14.46Z" transform="translate(-2.58 -2.56)"/><path class="cls-1" d="M34.22,14.66c-.92.6-1,1-.31,1s1.32,2,1.63,4.73c.3,4.74.3,4.74.51-1a45.84,45.84,0,0,0,0-5.74A8.62,8.62,0,0,0,34.22,14.66Z" transform="translate(-2.58 -2.56)"/><path class="cls-1" d="M26.9,18.59c.3,3,0,4-1.22,4.43s-1.33.51.1.31,1.93-1.11,2.13-3.53c.21-1.82,0-3.73-.5-4.24S26.69,16.47,26.9,18.59Z" transform="translate(-2.58 -2.56)"/><path class="cls-1" d="M151.76,15.36a1.9,1.9,0,0,0,1.42,3.33c1.12,0,2-.61,2-1.41C155.22,15.77,152.78,14.46,151.76,15.36Z" transform="translate(-2.58 -2.56)"/><path class="cls-1" d="M30,16.37a2.09,2.09,0,0,0,1.93-.1c.41-.3-.2-.6-1.32-.5S29.13,16.07,30,16.37Z" transform="translate(-2.58 -2.56)"/><path class="cls-1" d="M284.05,16.37c-1.53,1.41-.61,2.32,1.22,1.21,2.64-1.71,5.39-.4,5,2.32-.41,2.92-3.76,3.63-5.59,1.21-.72-1-1.33-1.31-1.33-.81,0,1.61,2.24,3.43,4.17,3.43,2.75,0,5.09-3.93,3.87-6.25C290.45,15.67,285.47,14.86,284.05,16.37Z" transform="translate(-2.58 -2.56)"/><path class="cls-1" d="M329.9,16.37a5.49,5.49,0,0,0,2.55,0c.61-.3.1-.5-1.33-.5S329.19,16.07,329.9,16.37Z" transform="translate(-2.58 -2.56)"/><path class="cls-1" d="M80,17.38c-5.89,2.12-6.5,6.75-1.62,11.79,3.76,4,6.91,4.64,10.57,2C97,25.64,89.43,14,80,17.38Zm9.77,3.43a6.45,6.45,0,0,1-6.21,10.58C76.31,30,75.91,20.7,83,18.49,85.26,17.78,87.7,18.69,89.74,20.81Z" transform="translate(-2.58 -2.56)"/><path class="cls-1" d="M202.8,17.78c-2.94,1.61-1.72,10,1.43,10,.61,0,.4-.81-.51-1.81-2-2.22-2.24-4.34-.51-6.05,1.93-1.92,5.59-1.41,7.32,1,1.32,1.81,1.63,1.91,1.63.6,0-1.91-3.76-4.84-6.1-4.84A7.45,7.45,0,0,0,202.8,17.78Z" transform="translate(-2.58 -2.56)"/><path class="cls-1" d="M167.42,19.19c-1.73,2-.51,6.25,2.13,7.06,2.14.7,5-.91,5-2.82,0-.61-.61-.21-1.43.9-1.22,1.52-1.83,1.72-3.35.81a5.23,5.23,0,0,1-2.14-2.82c-.51-2.12,2.65-3.23,5-1.72,1.12.61,1.94.71,1.94.1,0-1-3.26-3-4.88-3A4.39,4.39,0,0,0,167.42,19.19Z" transform="translate(-2.58 -2.56)"/><path class="cls-1" d="M392.34,19.29a4.66,4.66,0,0,0-.41,7.56c1.42,1.11,1.52,1.11.51-.1-3.26-3.53.2-9,4.88-7.76,1,.3,1.73.1,1.32-.4C397.83,17.18,394.88,17.48,392.34,19.29Z" transform="translate(-2.58 -2.56)"/><path class="cls-1" d="M233.21,21.31A24.29,24.29,0,0,0,232,26c-.61,3.12-.31,4.13,1.93,6.25,3.25,3.32,6.1,3.32,9.25.1,3-2.93,3.25-5.55.71-8.57C242.05,21.51,234.22,19.7,233.21,21.31Zm10,3.43c4,4.33-1.52,10.78-7.12,8.26s-3.56-10.28,2.55-10.28A7.06,7.06,0,0,1,243.17,24.74Z" transform="translate(-2.58 -2.56)"/><path class="cls-1" d="M28.22,24c-1.32,2.12-1.22,2.12.51.5,1-1,1.62-2,1.32-2.21S28.93,22.82,28.22,24Z" transform="translate(-2.58 -2.56)"/><path class="cls-1" d="M185,23.22c-2.95,2-3.76,6-1.83,9.58,2.64,5,10.27,5.34,12.51.5,1.72-3.73,1.52-5-1.43-8.46S188.37,20.91,185,23.22Zm8.34,2c3,2.82,3.15,5.14.91,8.37s-6.81,2.92-9.45-.41a9.28,9.28,0,0,1-2.14-4.13c0-1.91,4.58-6.35,6.61-6.35C190.2,22.72,192,23.83,193.35,25.24Z" transform="translate(-2.58 -2.56)"/><path class="cls-1" d="M335.6,24c-4.07,2.22-4.68,6.75-1.22,9.17,4.68,3.23,10,.71,10-4.63C344.34,24.53,339.36,21.91,335.6,24Zm6.71,2.12a5.31,5.31,0,0,1-1.22,7.05c-2.54,1.62-7.32-.4-7.73-3.22-.51-3.13,1.53-5.24,4.88-5.24A6.7,6.7,0,0,1,342.31,26.15Z" transform="translate(-2.58 -2.56)"/><path class="cls-1" d="M210.73,25.24a5.81,5.81,0,0,1-2.84,2.52c-1.53.5-1.73.91-.71.91,1.72.1,5.69-3.63,4.77-4.44C211.65,23.93,211.14,24.33,210.73,25.24Z" transform="translate(-2.58 -2.56)"/><path class="cls-1" d="M223.34,27.76a1.1,1.1,0,0,0,1,1,1,1,0,0,0,1-1,1,1,0,0,0-1-1A1,1,0,0,0,223.34,27.76Z" transform="translate(-2.58 -2.56)"/><path class="cls-1" d="M396.2,27.76c-2.34.71-2.34.81-.31.91a3.57,3.57,0,0,0,2.85-.91c.31-.6.51-1,.31-.91S397.62,27.36,396.2,27.76Z" transform="translate(-2.58 -2.56)"/><path class="cls-1" d="M293.1,32.9c-3.16,3.73-3.26,4.94-.51,8.37a7.12,7.12,0,0,0,10.88.3c3-3.23,2.84-7.16-.41-9.68C299.3,29,296.15,29.27,293.1,32.9Zm9.55-.1c4.17,4.13,1.33,10.08-4.67,10.08-2.34,0-3.87-.71-4.88-2.22-2.24-3.12-2-4.53.91-7.36C297,30.28,299.91,30.08,302.65,32.8Z" transform="translate(-2.58 -2.56)"/><path class="cls-1" d="M78.14,36c-1.83,1.81-1.52,7.25.61,9.17,4.48,4,12.1-.31,9.36-5.24-1.32-2.52-4.78-4.44-6.61-3.73a1.3,1.3,0,0,1-1.73-.51C79.57,35.12,79,35.22,78.14,36ZM85,37.84c4.47,2.32,3.15,8.06-1.94,8.06-6,0-6.2-7.46-.2-9A4.9,4.9,0,0,1,85,37.84Z" transform="translate(-2.58 -2.56)"/><path class="cls-1" d="M144.44,37.34c-.92,2.31.3,4.53,2.64,4.53a2.63,2.63,0,0,0,2-4.53C147.49,35.42,145.15,35.42,144.44,37.34ZM148.61,39a2.15,2.15,0,0,1-1.73,1.71c-1.83.3-2.54-1.81-1.12-3.22C146.78,36.43,148.61,37.34,148.61,39Z" transform="translate(-2.58 -2.56)"/><path class="cls-1" d="M394.37,38c-2.34,2.32-.81,7.86,2.24,7.86.5,0,.2-.6-.82-1.31a3.88,3.88,0,0,1,1.43-6.85c2.13-.61,2.23-.71.51-.81A4.69,4.69,0,0,0,394.37,38Z" transform="translate(-2.58 -2.56)"/><path class="cls-1" d="M28.73,40.46c-2.34,2.32-2,4.74,1.22,7.56,1.52,1.31,2.13,1.71,1.52.91-1.62-1.82-1.73-6.25-.1-7.87,2.95-2.92,10-.1,10,4,0,2-3,4.53-6.11,5.14-2.54.4-2.44.4.31.6,3.15.1,6.81-2.92,6.81-5.74a7.56,7.56,0,0,0-2-4C37.78,38.34,31.17,38,28.73,40.46Z" transform="translate(-2.58 -2.56)"/><path class="cls-1" d="M65.74,40.76a2.52,2.52,0,0,0,4.07,2.12c1.83-1.11.4-4-2-4A1.78,1.78,0,0,0,65.74,40.76Zm4.07.1a1,1,0,0,1-1,1,1.09,1.09,0,0,1-1-1,1,1,0,0,1,1-1A1,1,0,0,1,69.81,40.86Z" transform="translate(-2.58 -2.56)"/><path class="cls-1" d="M265.34,43.18c2.44,2,2.13,4.64-.51,5.75-1.32.5-1.83.9-1.12.9,4.58.31,6.2-5,2.14-6.95C263.71,41.87,263.71,41.87,265.34,43.18Z" transform="translate(-2.58 -2.56)"/><path class="cls-1" d="M260.56,44.49a4.09,4.09,0,0,0,.51,3.23c.91,1.51,1,1.51.51-.2a3.57,3.57,0,0,1,.5-3.23c.72-.91.82-1.41.11-1.41C261.68,42.88,260.86,43.58,260.56,44.49Z" transform="translate(-2.58 -2.56)"/><path class="cls-1" d="M77,49.53c-.1,3.43,7.42,29,14,48.18,3.15,9.07,3.76,11.69,2.64,11.69-.81,0-1.52-.4-1.52-.91s-.82-1.21-1.73-1.51c-1.42-.6-1.42-.3.3,1.51,1,1.11,1.83,3,1.63,4s.81,4.53,2.24,7.66,3.86,10.18,5.59,15.42C104.87,150,109,161.11,112,166.85c3.26,6.45,1.73,5.85-2.13-.8-3.15-5.35-20.64-26.81-29.39-36-9.15-9.57-9.35-10-6.3-13.6,2.24-2.62,2.44-3.43,1.63-5.95a6.85,6.85,0,0,0-9.26-4.33c-2.94,1.1-3.25.9-8.74-5-7-7.36-9.66-11.29-10-14.82-.3-3-4.67-7.16-7.52-7.16a22,22,0,0,0-6.1,1.62c-5.8,2.31-6.51,5.54-1.93,10a17.43,17.43,0,0,0,6.51,4c2.94.5,2.94.5.5-.51-4.06-1.81-6.1-4.13-6.1-7.25,0-5.65,6.1-8.67,11-5.25,3,2,3.05,7.66.21,10.49-1.12,1.11-1.63,2-1.12,2a2.05,2.05,0,0,0,1.63-1.11c.4-.5,1-.9,1.52-.7,1.83.7,14.24,16.53,14.24,18.14,0,2.52-.61,2.32-6.51-2.12-2.85-2.11-6.51-4.63-8.24-5.64l-3-1.81,2,2C46,104.16,52.4,109.5,59,114.94c10.57,8.47,12.71,10.79,16.47,17.34,2.44,4.13,8.64,13.51,13.93,20.76s10.88,15.32,12.41,17.84,4.78,7.06,7.11,10.08,8.55,11.9,13.73,19.66,11,15.92,12.81,18.14c4.58,5.64,5.8,8.87,3.87,10.78-1.32,1.31-2.44,1.11-9.36-1.2-4.27-1.42-10.78-3.43-14.33-4.44a42.7,42.7,0,0,1-8.85-3.33c-1.42-.9-2.34-1-2.64-.4-.72,2.22-44.54-14.21-44.54-16.63s-4.68-4.64-8-3.93c-4,.81-13.83-3.43-33.66-14.51-11.49-6.35-14.84-7.87-15-6.56-.51,1.92-2.24.71,14.64,10.69,13.22,7.86,14.24,8.67,13,10.38s-1.63,1.81-7.22.2c-7.83-2.22-18.1-4.74-19.52-4.74-1.63,0-1.32,3,.4,3.63a2.57,2.57,0,0,1,1.53,1.92c0,1.81,2.13,2.42,4.37,1.31s8.34.5,31.22,9c9.76,3.63,23.69,8.06,30.91,10,12.5,3.22,17.89,5.44,13.11,5.44-4.57,0-17.18-3.33-18.4-4.84-1-1.31-1.63-1.41-3-.5s-4.78.5-13.93-1.31c-6.71-1.21-14.44-2.62-17.18-2.93-3.56-.5-5.09-1.21-5.39-2.52-.61-2.41-3.26-3.42-5-1.91-1,.81-3.25.3-9.15-2.12-10-4-10.88-3.32-1.22.91a60.64,60.64,0,0,1,9,4.64c1.53,1.31,3.15,1.61,18.81,4,19.42,3,28.57,4.63,32,5.64,6.81,2,6.71,1.92,5.19,2.82-.71.51.91.61,3.76.31a62.58,62.58,0,0,1,13.73,1.31c4.77.9,9.25,1.41,9.76,1s4,.31,7.52,1.42,10.07,3.22,14.75,4.63,8.33,3,8.33,3.43c0,.81-9.45,5.14-11.08,5.14-.51,0-2.24,1.11-3.86,2.32a15.45,15.45,0,0,1-6.41,2.92c-2,.4-8.34,2.72-14,5.24a101.93,101.93,0,0,1-18.1,6.15,65.09,65.09,0,0,0-8.54,2c-1.43.9-2.24-1.31-.82-2.22.72-.4,7.94-3.13,16-5.85,15.86-5.44,20.94-9,8-5.44C79.65,255,15.08,277.12,13.35,278.93c-.71.71-.4.91,1,.51,1.12-.31,5.7-1.52,10.17-2.72s15.35-4.64,24.2-7.67c16.17-5.44,20-6.34,20-4.43,0,.5-5.39,2.62-11.9,4.54s-12.4,3.83-13,4,.3.4,1.93.4,9.05-1.61,16.27-3.83,16.07-4.33,19.52-5a109.89,109.89,0,0,0,16.58-5.24c10.47-4,17-4.94,8-1.11-2.64,1.21-7.32,3.73-10.47,5.65s-8.24,4.93-11.39,6.55c-7.83,3.93-18.61,11.49-26.74,18.84a162,162,0,0,1-15.26,11.7c-4.78,3.12-12.71,8.87-17.59,12.8-5.59,4.53-9.86,7.15-11.39,7.15-1.83,0-2.64.71-3.15,2.42-1.52,6.25,3.36,6.15,11.39-.2,7.32-5.85,20.85-15.12,26.13-17.84a147.75,147.75,0,0,0,12.92-8.57c17-12.29,23.89-16.83,34.16-22.57,8.75-4.84,11-5.65,15.46-5.65,6.81,0,9.35-1.11,14.64-6.25,4.68-4.73,11-8.26,12.3-6.95.41.4.31,4-.3,8s-.92,7.56-.61,8.06-.92,3.53-2.55,6.86c-4.47,8.67-8.84,23.28-8.74,29v4.93l1.93-4.43c1-2.42,1.63-3.33,1.32-1.92a47.72,47.72,0,0,0-1.11,7.56c-.72,7.16,1,3.83,3-6,.91-4.44,2.54-10.59,3.55-13.61,2.55-7.46,3.77-11.89,4.07-14.92a1.22,1.22,0,0,1,1-1.21c.41,0,1.12,4.24,1.52,9.38a144.65,144.65,0,0,0,2.14,15.82,98.08,98.08,0,0,1,1.32,18.14c-.1,11.19,1.22,29.54,3.36,45.36.5,4.13.91,9.27.91,11.39,0,2.42.51,4,1.53,4.33s1.52,1.92,1.52,3.53.51,2.92,1.12,2.92.81-1.61.41-4.33c-1-7.56-2.65-33-3.26-52.11l-.51-18.65,4,4c6.71,6.65,8.44,7.76,8.44,5,0-.81-2.85-4.14-6.2-7.36l-6.21-5.85.82-18.14c.51-9.88.61-20.56.3-23.59-.51-4.63-.3-5.84,1.22-7.35a6.31,6.31,0,0,0,1.94-4.14c0-2.42,1.83-3.73,5.38-4.13a4.44,4.44,0,0,0,3.77-4.23c0-.81,1.73-.41,4.88,1.11,2.64,1.41,10.47,4.33,17.49,6.55s13.42,4.63,14.23,5.14c3.05,2-2.64,1-9.66-1.51-7.93-3-12.4-2.93-6.1,0a29.45,29.45,0,0,1,5.39,3.22,4.47,4.47,0,0,0,2.44,1.31c1,0,25.93,9.48,33,12.6,1.83.81,9.86,3.53,17.79,6.15s14.95,5,15.56,5.54a5.61,5.61,0,0,0,3.25.91c3.36,0,30.61,10.08,46.37,17.24,7.22,3.22,12.61,5.24,12,4.53a3.83,3.83,0,0,1-.41-3.43c.41-1.71.1-2.21-1.53-2.21-1.11,0-2.23.5-2.44,1.21s-4.78-.91-13.11-4.94c-6.92-3.43-18.51-8.47-25.83-11.39s-14-5.95-14.95-6.76a3.67,3.67,0,0,0-3.25-1c-2.75,1.11-52.47-16-53.28-18.25-.2-.6,3.46-.2,8.13.91s8.95,1.92,9.46,1.92.1.5-1,1c-1.93.71-1.83.91.82,1.92,3.56,1.41,6.1,1.41,5.28.1s-.1-1.31,4.38.6c6.5,2.62,20.84,7.26,24.91,8,2,.3,8.84,2.82,14.94,5.54s11.6,5,12.21,5,1.72,1.11,2.64,2.52c3.05,4.64,8.54,4.33,8.54-.4,0-5.95-5.49-9.28-8.44-5.14-1.42,2-1.73,1.81-16.06-4.84-8-3.83-17.8-8-21.56-9.27l-7-2.42,5.19-1.21c4.88-1,10.88-4.14,10-5-.2-.2-1.72.2-3.25,1-1.93,1-6,1.51-11.9,1.51-7.52,0-10.06-.51-16.16-3-4.07-1.61-8.14-2.92-9.15-2.92-2.75,0-23.09-8-24.61-9.57-.61-.81-1.83-2.12-2.54-3-.92-1-3.16-1.51-6.92-1.51a30.73,30.73,0,0,1-9.25-1.51,19.66,19.66,0,0,0-5.8-1.51c-3.05,0-4.88-1.42-4.16-3.23.5-1.31,1.32-1.41,4.27-.6a19,19,0,0,0,7.11.3c1.94-.3,3.36-.3,3,.2-.81,1.31,34.78.71,39.76-.6,3.36-.91,18.91-1.11,61.82-.71,36.1.3,57.15.1,56.84-.5s.51-.91,1.93-.91c3.46,0,5.09-3,3.05-5.85s-6.1-2.92-7.42-.4a3.34,3.34,0,0,0,.41,3.93c1.42,2,1.32,2-10.47,1.61-6.51-.2-23-1.11-36.51-1.91s-30.91-1.51-38.64-1.51c-11.79-.1-13.22-.31-8.94-1.11,2.84-.51,9.66-2,15.25-3.33,18.5-4.43,22.47-4.84,35.38-4.23,12.61.6,13.73,0,3.87-2.32-7.43-1.71-19.53-.81-32.64,2.42-14.44,3.63-14.34,3.53-13.63,2.52.81-1.31-.51-1.11-6.51,1.11-4.47,1.71-15.65,2.92-14.33,1.51a45.77,45.77,0,0,1,6-1.92c3.05-.8,10.77-2.82,17.08-4.53s12.81-3,14.44-2.92a7,7,0,0,0,4.78-1.52c1.11-1,6-2.31,12-3.22,19-3,44.64-10.38,39.66-11.39-1.12-.2-3.86-2.12-6.1-4.13-2.54-2.32-8.24-5.45-15.25-8.37-19.93-8.36-18.71-7.66-15.66-7.76,2.44-.1,22.77,3.23,27.05,4.43,1,.31.5-.1-1.23-.9a139.55,139.55,0,0,0-15.76-4.13c-7-1.42-13.42-2.93-14.23-3.23-2.75-.91,3.05-3,15.76-5.75,22.06-4.83,34.06-7.86,34.06-8.76,0-1.52-3.76-1.11-18.81,2-7.83,1.51-18.1,3.43-22.88,4.13-9.25,1.31-16.37,4.34-33,13.61-12.71,7.16-17.49,9.68-32,16.53-7,3.33-16.37,8.06-20.85,10.48a113,113,0,0,1-11.89,5.65,19.07,19.07,0,0,0-6.92,4.84,53.17,53.17,0,0,1-7.93,6.75c-4.17,2.82-5.49,3.12-10.06,2.82-3.16-.2-5.39-.91-5.39-1.51s4.06-3.13,9-5.44a127.52,127.52,0,0,0,16.47-9.88c4.17-3,8.13-5.55,8.84-5.55s2.85-1.61,4.88-3.52,4.38-3.53,5.39-3.53a2.78,2.78,0,0,0,2.44-1.51c.41-.81,2.44-2.32,4.58-3.43,4.78-2.42,31.42-22.17,41.18-30.44,3.86-3.32,7.32-5.95,7.73-5.95a4.17,4.17,0,0,1,2.13,1.52,4,4,0,0,0,5.9.3c1.63-1.61,1.53-3.83-.3-5.85s-1.12-2.52,19.82-19.65c14.85-12.1,17.19-14.21,21.86-19.45,3.16-3.43,5.6-5.24,7.12-5.24a5.92,5.92,0,0,0,3.56-1.42c1.73-2.21.81-6-1.52-6.45-1.94-.4-1.94-.3-.11,1,2.85,2.22,1.73,5.34-1.93,5.34s-4.78-3.12-1.93-5.34c1.83-1.31,1.83-1.41-.1-1-1.53.2-2.14,1.21-2.34,4.14-.3,3.93-1.42,4.93-22.06,19.85-3.36,2.52-10.48,8.06-15.56,12.3-23.29,19.55-27.76,23.18-37.32,30.44-11.28,8.56-31.52,22.78-32.43,22.78-2,0,.4-2.73,7.83-8.57,4.57-3.73,13.93-11.79,20.84-17.94s13.83-12,15.46-12.9,2.74-1.92,2.44-2.22c-1-1,25.21-21.87,27.55-21.87,2.54,0,4.58-1.72,4.58-4,.1-2,9.86-9.48,10.37-7.87.3.71,1.22.91,2.23.51,1.43-.61,1.63-1,.72-2.12s-.41-2,2.84-4.33c2.24-1.51,4.38-3.43,4.58-4.14.71-1.71-6.31,1.92-15.66,8.17A70.51,70.51,0,0,1,278,122.71c-1.53.6-2.85,1.41-2.85,1.91s-3.05,3.33-6.91,6.35c-4.78,3.83-7.93,5.54-10.37,5.85-2.95.2-3.66.8-4.07,3-.81,4.23-18.61,18.85-26.64,21.87-4.27,1.61-6.41,2-6.71,1.21a2,2,0,0,0-1.83-1.11c-.82,0-1.43-.3-1.43-.7s3.36-5.65,7.53-11.8,7.93-12.7,8.64-14.61c1.42-4.23,1.53-13.91.1-14.72-.51-.3-1,.31-1,1.31a2.8,2.8,0,0,1-2,2.52,2.82,2.82,0,0,0,.1,5.45c3.77,1,1.12,7.86-7.72,19.45a153.63,153.63,0,0,0-8.54,12.8c-2.85,4.94-5.29,7.86-7.53,9a56.74,56.74,0,0,0-6.71,4.23l-3.46,2.62,3.16-4.63a85.15,85.15,0,0,0,6.71-14c8.94-24.29,8.84-24.09,11.38-23.49,1.73.41,2.44.21,2.44-.9a2.55,2.55,0,0,0-1.52-2.12c-1.42-.5-1.32-1.11.61-4.84a112.46,112.46,0,0,1,5.9-9.88c5.59-8.26,5.49-8.06,3.76-7.45-2.54,1-18.91,24.39-18.91,27s-4.58,10.68-6.31,11.29-1.93,1.21-1.42,4.33c.41,2.82-.1,5.14-2.34,9.88-3.76,7.76-12.3,19.85-20.64,29.13-3.56,3.93-7.73,8.67-9.46,10.58a36.57,36.57,0,0,0-4.37,6.45c-1.63,3.63-14.34,15.83-15.76,14.92-.61-.3-.71-4.34-.31-10.28.41-5.34.72-12.4.72-15.73a42.36,42.36,0,0,1,.71-9.07c.91-2.92.91-2.92,1.73,1.82.4,2.62.81,7.66,1,11.08.41,12.8.51,12.91,2.14,7.76a43.65,43.65,0,0,0,1.52-11.08c.11-3.63.51-7.06.92-7.56,1.22-1.72,1.93-5.55.91-5.55-.5,0-.91.71-.91,1.72s-.31,1.31-.71.91-.92-7.77-1.12-16.53c-.41-21.67-.41-24,.71-31,.61-3.32,1.32-8.16,1.63-10.88.61-4.34.81-4.74,3-4.14,3,.71,5.49-2,4-4.43a3.7,3.7,0,0,0-3.25-1.61c-2.44.1-2.54-1.31-1.53-12.9.61-5.85,1-6.76,3-7.26,3-.81,3.76-2.92,1.93-5.54-2.64-3.73-7.52-2.12-7.52,2.62a29.35,29.35,0,0,1-2,7.35c-1.12,2.83-2,6.35-1.94,7.87.11,2,.51,1.51,1.63-2.32,3.56-12.3,5-12.5,3.36-.41-.72,4.64-1.53,13.41-2,19.36s-1.22,11.39-1.73,11.89-1.93.3-3.35-.4c-2.34-1.11-2.65-1-3.76,1.11-1.73,3.22-1.63,5.24.3,7.35,1.43,1.62,1.53,3.23.51,14-.61,6.66-.92,13.21-.61,14.42s-.41,4.93-1.63,8.26c-2.44,6.55-2.84,10.28-1.73,15.32.41,1.82.41,3.33,0,3.33-1.52,0-4.27-10.08-4.27-15.73a45.65,45.65,0,0,0-1-9.47c-.61-1.92-1.22-7.66-1.43-12.6-.2-7.05-.81-10.08-2.54-13.4-2.54-4.84-4-5.25-1.93-.61.61,1.61,1.32,8.06,1.42,14.51s.61,13.31,1.22,15.32.72,3.83.31,3.83c-.71,0-4.37-10.78-9.76-28.72-1.53-5-3.87-12.5-5.19-16.63-2.24-7.16-3.35-10.08-10.68-28.42-2.54-6.25-3.05-8.57-2.44-11.9.61-3.53.31-4.53-1.62-6.65a7.84,7.84,0,0,0-4.68-2.42c-1.73,0-2.44-.7-2.95-2.82-1-4.74-1.22-4.84-1.32-.51-.1,4.64-.92,7.36-2.14,7.36-1,0-4.06-8.67-4.06-11.59a5.07,5.07,0,0,0-.92-3c-.51-.61-2.74-5.75-5-11.59S81,55,79.55,52C77.21,46.81,77,46.61,77,49.53ZM91.57,86.72c2.64,7.76,8.23,21.67,12.3,30.85,8,17.84,9.25,21.87,10.07,32.05.5,7.25-.61,6.65-2.55-1.41-.61-2.73-4.67-13.91-9-24.7-9-22.37-14.94-39.41-18.81-54.43C80.69,58.2,85.36,68.48,91.57,86.72Zm15.35,6.55c1.32,1.52,1.63,2.83,1.12,5.65-.71,3.33-.92,3.53-3.46,2.92-5.19-1.31-6.61-4.23-4.27-8.67C101.73,90.75,104.58,90.75,106.92,93.27Zm58.36.81c1.22,2.22-.3,4.23-3.15,4.23-2.44,0-3.46-2.62-1.83-4.53S164.06,91.86,165.28,94.08ZM102,102.35c2.13,0,14.54,31.54,13,33.16-.2.2.21,1.31,1,2.52,1.73,2.31,2,4.63.61,4.63-.51,0-2.44-3.73-4.17-8.36s-5.49-13-8.34-18.75-5.49-11.79-6-13.51c-.81-2.82-.71-2.92,1-1.31A5.59,5.59,0,0,0,102,102.35Zm-29,5.74a5.8,5.8,0,0,1-.71,9c-2.95,1.92-6.1,1.11-8.24-2.12-1.32-1.91-1.32-2.82-.3-4.73C66,106,69.81,105.17,73.06,108.09Zm27.86,15.42c2,5.24,4.78,12.1,6,15.12a45.74,45.74,0,0,1,3,9.58l.71,4-1.93-3.53a49.75,49.75,0,0,1-3.66-10c-1.43-5.44-4-11.29-11.59-26.61-.21-.5.5-.3,1.72.51S98.68,117.67,100.92,123.51Zm64-1.61c0,2.22-1.43,2.92-3.46,1.71s-.61-4.33,1.63-3.93A2.37,2.37,0,0,1,164.88,121.9ZM299,125.33c-3.35,3.12-8.44,7.66-11.18,9.87-12.2,10.28-23.29,20-23.59,20.57-.2.4.71,1,1.83,1.31,1.63.4,2.13,1.21,1.83,2.92-.41,3.12-4.78,3.83-5.59.91-.61-2.52-2.55-2.73-4.48-.51-5.18,6.25-46,35.68-49.31,35.68A14.7,14.7,0,0,0,205,198.4c-4.17,3.53-19.22,11-20.44,10.18-.61-.3-2.44.4-4.17,1.61-6.1,4.44-3.76,1,4.48-6.75,14.74-13.91,19.32-17.94,30.81-27,6.2-4.94,15.76-13.11,21.35-18.14s12-10.69,14.24-12.6c3.05-2.52,4-4,3.66-5.85-.21-2.22,0-2.42,2.64-1.91,2.34.4,4.17-.51,10.17-4.94,4.06-3,7.73-6.25,8.23-7.16,1-1.71,8.34-4.64,8.34-3.23a.91.91,0,0,1-.91.91c-.51,0-1.12,1.21-1.33,2.72-.2,2.32-.91,2.93-3.55,3.33-3.66.5-10.78,6.15-32.14,25.2-18.2,16.12-24.6,21.67-33.85,29.23-4.48,3.63-11.6,9.57-16.07,13.3s-8.34,6.86-8.85,6.86-1.42,1-2,2.21c-1.22,2.22-1.22,2.22,1.22.51,1.32-.91,5-3,8.13-4.64a62.69,62.69,0,0,0,8.75-5.54c1.73-1.41,3.46-2.62,3.86-2.62.82,0,11.7-7.76,19.22-13.71,2.85-2.22,8.64-6.65,12.81-9.78s11.59-9,16.47-13c23-19,46.88-37.7,48.61-38C305,119.58,302.45,122.1,299,125.33Zm-66.09,2.31c-.81,1.42-3.46,1.11-3.46-.4a2.81,2.81,0,0,1,.72-2C231.07,124.32,233.61,126.54,232.9,127.64ZM153,145.08c-.41,2.82-3.56,3.33-4.37.61-.92-2.93,1.22-5.55,3.25-3.83A3.63,3.63,0,0,1,153,145.08Zm-53.79,12.2c6.51,8.67,19.12,28.32,17.59,27.31-.51-.3-5.08-6.55-10.17-13.91s-12-17-15.15-21.47C84.65,139.44,89.63,144.68,99.19,157.28Zm26.23-2c1.73,5.54,5.5,17.34,8.34,26.11,4.58,13.91,5.09,16.22,3.66,16.93a4.63,4.63,0,0,0-1.52,3.53c0,4.63-1.73,1.41-6.2-11.8-3.16-9.37-4.28-14.41-4.48-19.65-.2-9.78-3-18.44-6.1-19.86-2.74-1.21-3.25-2.72-1.32-4.63C120.54,143.17,122.17,145.18,125.42,155.26Zm82.26-5a3.39,3.39,0,0,1-.71,3.13c-1.12,1.31-1.42,1.31-2.74,0-1.73-1.72-.92-4.64,1.32-4.64A2.45,2.45,0,0,1,207.68,150.22ZM203.52,162c-2.24,6.76-19.63,31.45-25.42,36.09-2,1.61,2.23-4.64,13.72-20.06a122.37,122.37,0,0,0,9.87-15.82c1.52-3.43,3.05-6.05,3.25-5.95A30.93,30.93,0,0,1,203.52,162Zm-85.92-.9c0,1.61-1.83-.31-2.34-2.52s-.51-2.22.81-.41A8,8,0,0,1,117.6,161.11Zm37,1.61a1.21,1.21,0,0,1,0,1.41c-.82.81-3.46-.3-3.46-1.41S153.9,161.51,154.61,162.72Zm62.63,3.12c-2.44,1.62-3.15,1.11-1.93-1.1.81-1.62,1.42-1.82,2.24-1S218.36,165.14,217.24,165.84Zm7.63,1.62c-8.24,7.35-15.76,12.6-17,11.89-.61-.4-.82-.3-.41.4s-8.13,8.77-19.83,19.05c-20,17.54-24.6,21.17-20.64,16.33,11.8-14.81,18.2-22.37,19.32-22.78.71-.2,1.53-1.41,1.83-2.72.51-2.22,10.17-10.68,12.1-10.68.61,0-.71,1.91-2.95,4.23a73.85,73.85,0,0,0-5.39,6.35c-.81,1.11,1.12-.6,4.07-3.83,3.46-3.73,6.31-5.74,7.73-5.74,1.63,0,2.24-.71,2.54-2.83.31-2.42,1.63-3.32,11-8,5.9-2.82,10.88-5.24,11.19-5.24S227.11,165.54,224.87,167.46ZM124.71,180c4.48,14.31,4.38,14,2.44,10.68-1.62-2.92-8.54-22.28-8.54-24.29C118.61,163.53,121.76,170.68,124.71,180Zm-17.08-4.54c.92,1.71.92,1.81-.3.81a17,17,0,0,1-3.26-4.54l-1.93-3.33,2.14,2.52A34.42,34.42,0,0,1,107.63,175.42Zm175.6-.81c-5.59,1.62-9.25,4.94-7,6.35,1,.61.3,1.21-2.55,2.42A20.82,20.82,0,0,1,269,185a45.13,45.13,0,0,0-7.22,3.94c-3.56,2.11-9.76,5.74-13.73,8.06-7.22,4-8.54,5.64-6.4,7.76,1.22,1.21-.41,3.93-1.94,3a3,3,0,0,1-1.11-2.21c0-2.62-4-1.52-16.58,4.53-18.4,8.77-29,12.8-30.4,11.39-.71-.7-1-1.41-.71-1.61s5.28-2.72,11.39-5.44,10.88-5.65,10.88-6.25,6.5-4.34,14.54-8.17,18.3-9.17,23.08-11.89c17.69-10.28,27.55-14.72,32.43-14.82l4.68-.1Zm-128.32,6.55c-.2,1.32-.4.31-.4-2.21s.2-3.53.4-2.32A16.36,16.36,0,0,1,154.91,181.16ZM204.43,178a1,1,0,0,1-1.52.3,1,1,0,0,1-.31-1.51,1.05,1.05,0,0,1,1.53-.3A1,1,0,0,1,204.43,178Zm-55.31,11.09a19.28,19.28,0,0,0-.72,7.56c.61,3.42.51,3.63-.71,1.81-2.13-2.92-2.13-4.33,0-11.49,1.43-4.74,2-5.85,2.24-4.13A18.27,18.27,0,0,1,149.12,189.13Zm135.94-2.22c3.26,1.61,10.37,4.94,16,7.26,10.06,4.33,16.67,8.66,15.15,10-1.12,1.1-16.88,4.53-31.83,6.95-7,1.21-13.73,2.42-14.84,2.72s-2.55.1-2.85-.5c-.71-1.11-3.76-.31-4.88,1.31-.41.6-2.44,1.51-4.58,2.11-3.45,1-4,.91-4.88-1a3.92,3.92,0,0,0-3-2c-1.52,0-2,.71-2,2.82.1,2.52-.41,2.82-8.14,5.14-15.76,4.54-20.43,5.55-28,5.95-9,.5-10.47.2-9.15-2.12a20.73,20.73,0,0,0,1.42-3.52c.31-1,6.92-4.74,16.58-9.48,15.86-7.66,16-7.66,17.39-5.54,1.72,2.62,3.55,2.82,5.38.6,1-1.21,1-2,.11-3.53-1.43-2.11-1.12-2.41,16.06-12.09C274.59,183,276.52,182.58,285.06,186.91Zm-159.33,7.56c0,.6-.71.2-1.53-.81a8.23,8.23,0,0,1-1.52-3c0-.61.71-.2,1.52.81A8.06,8.06,0,0,1,125.73,194.47Zm-96.6-.81c0,.2-.91,0-2-.6s-2-1.31-2-1.61.91,0,2,.6S29.13,193.36,29.13,193.66Zm102.7,7c0,.5-.51.3-1-.51a6.86,6.86,0,0,1-1-2.52c0-.6.51-.3,1,.51A6.15,6.15,0,0,1,131.83,200.62Zm-95.58.5a1.82,1.82,0,0,1-2,2,2,2,0,1,1,0-4A1.81,1.81,0,0,1,36.25,201.12Zm-6.4,2.22c8.74,3.22,5.69,3.12-4.38-.2-5.28-1.72-7.42-2.72-5.08-2.42A54.19,54.19,0,0,1,29.85,203.34Zm26.94-1.51c2.44,2.11,2.34,4.53-.2,6.85-3,2.62-7.12.71-7.12-3.33C49.47,200.42,53.23,198.6,56.79,201.83Zm-13.42.9c2.64,1.11,4.07,2.22,4.07,3.53,0,1.72-.31,1.72-4.17.41-5.49-1.92-6-2.32-5.29-4S38.39,200.82,43.37,202.73Zm1.52,6.45c1.33.61,1.53.91.51.91a7,7,0,0,1-3-.91C40.52,208,42.15,208,44.89,209.18Zm19.32,2.52c2.85,1.31,4.38,2.42,3.46,2.42-2.74.21-11.08-3-10.47-4C57.91,208.88,58.42,209,64.21,211.7ZM147,211a3.25,3.25,0,0,1,0,3.33c-.71,1.1-.91,1-.91-.71a5.08,5.08,0,0,0-1.22-3.23c-.92-.9-.92-1.21,0-1.21A3.23,3.23,0,0,1,147,211Zm-75.75,5.74c6.61,1.92,12.3,3.73,12.71,4.14,2.24,2.42-26.13-4.74-30.4-7.76C51.3,211.6,56.69,212.71,71.23,216.74Zm108.49-.5c-2.23,1.92-4.17,2.62-4.17,1.51,0-.5,5.19-3.42,6.1-3.42C182,214.33,181,215.23,179.72,216.24Zm71.69-.91a1.79,1.79,0,0,1-2.75,2.22,1.93,1.93,0,0,1,1.12-3.33A2.43,2.43,0,0,1,251.41,215.33Zm15.45,1.21c.21,1-.3,1.72-1.22,1.72a2.14,2.14,0,0,1-2.13-3.13C264.42,213.72,266.46,214.53,266.86,216.54ZM106.41,226c7,2.32,10.68,4.13,9.86,4.94-.61.6-17.08-4.24-22.57-6.56l-5.08-2.11,5.08.6A74.49,74.49,0,0,1,106.41,226Zm90.5-1.21c-.72.9-1.53,1.31-1.94,1s.11-1,.92-1.52C198,222.89,198.33,223.09,196.91,224.81Zm2.74,1.51c-.41,1.51.1,2.22,1.93,2.62,3,.81,2.24,2.42-1.22,2.42-3.76,0-3,2,.92,2.12,2.95.1,2.74.2-1.83,1.51a31.8,31.8,0,0,1-11.9.9,32.65,32.65,0,0,0-10.88.61,13.64,13.64,0,0,1-8.74-.1c-2.54-.71-4.58-1.61-4.58-2s2.44-.7,5.39-.7a158.35,158.35,0,0,0,16-1.41c8.14-1.11,10.68-1.82,10.68-2.93,0-1.31,3.25-4.94,4.48-5C200.06,224.3,200,225.21,199.65,226.32Zm-99.85,2c1.83.8,1.83.9-.51.8a22.38,22.38,0,0,1-5.08-.8c-2.44-.81-2.44-.81.51-.81A14.74,14.74,0,0,1,99.8,228.34Zm54.4-.11a6.26,6.26,0,0,1-.91,2c-.82,1.21-1.22,1.21-2.55-.2-2.23-2.12-2-2.52.92-2.52C153.08,227.53,154.2,227.83,154.2,228.23ZM186,230.05a5.49,5.49,0,0,1-2.55,0c-.71-.3-.2-.51,1.22-.51S186.64,229.75,186,230.05Zm153,.2c2.13,1.31,1,4.64-1.63,4.94-2.44.4-3.87-1.82-2.85-4.34C335.19,229.14,337,228.94,339.06,230.25Zm-211.8,3.12c.4.71-.31.81-2.24.41-3.87-.91-4.27-1.41-1-1.41C125.42,232.37,127,232.87,127.26,233.37Zm10.16,2c-.51.81-1.12.81-2.13-.1-1.22-1-1.22-1.41-.21-2C136.71,232.27,138.44,233.78,137.42,235.39Zm123-1c3.66.41-5.39.71-22.88.71-16,0-27.15-.3-24.91-.71C218.06,233.37,252.73,233.37,260.46,234.38Zm-120.09,7c.82,1.31-1.12,6.15-2.44,6.15-1.12,0-1.32-3-.41-5.45C138.24,240.23,139.56,239.93,140.37,241.34Zm9.76,1.91a5.68,5.68,0,0,1-1.22,3.13c-1.12,1-.91,1.11.71.5a13.24,13.24,0,0,0,3.67-2.12c1.32-1.1,1.83-1.1,2.74,0,1.63,1.82.41,5.35-2.34,7.16-1.52,1-2.23,2.22-1.83,3.53.61,2.32-1.63,3.93-2.85,2a14.84,14.84,0,0,1-1.52-4.13c-.61-2.82-4.17-4.53-5.9-2.82-1.42,1.41-2.64,1.21-2.64-.4,0-.71,1.42-1.62,3.05-2a6.76,6.76,0,0,0,4.88-3.63C148.81,241,150.13,240.53,150.13,243.25Zm-13.22,5.65c0,.7-2.64,2.52-5.79,3.93a36.57,36.57,0,0,0-10,6.65c-2.13,2.32-4.37,4.13-4.88,4.13s1.22-2,3.77-4.53,4.67-4.94,4.67-5.55,2-2,4.58-3.12,4.78-2.42,5.08-2.92C135.19,246.18,136.91,247.18,136.91,248.9Zm63.56,6.65c7.82,3.22,16.06,6.15,18.3,6.55a37.73,37.73,0,0,1,9.66,3.63c5.49,2.92,4.78,3-4.07.3-2.54-.7-8-2.22-12.2-3.22s-10.17-3-13.22-4.24-8.24-3.42-11.59-4.73a50.23,50.23,0,0,1-8.14-3.94C174.74,246.68,185.92,249.6,200.47,255.55Zm-56,4.53c-.1,1.72-.51,5.14-.92,7.87-.61,3.83-.4,5.14.92,6.65,2.24,2.42.71,3.53-2.85,2.12a3.69,3.69,0,0,1-2.84-3.73c-.31-5,.4-10.89,1.52-12.91a6.15,6.15,0,0,0,.92-2.82c-.11-.5.5-.7,1.52-.5C144,257,144.54,258,144.44,260.08Zm3.35.71c-.3.71-.5.2-.5-1.21s.2-1.91.5-1.31A5.11,5.11,0,0,1,147.79,260.79Zm-1.62,6.95c-.61,2.42-.92,2.83-1,1.21-.1-2.41.92-5.64,1.63-5C147,264.22,146.78,265.93,146.17,267.74Zm-44-.6c-.3.3-5.9,3.23-12.51,6.55-13.11,6.55-16.88,7.66-12.71,3.63,3.87-3.73,18.31-10.68,22.27-10.68C101.12,266.64,102.45,266.84,102.14,267.14ZM145,283c-.1,3.73-.21,3.94-.92,1.82-1.22-3.63-1.22-6,0-6C144.64,278.73,145.05,280.65,145,283Zm-10.48,3.94c-1.22,2.92-1.42,3-1.52,1.1-.1-2.42,2.24-6.95,2.74-5.34C135.9,283.17,135.29,285.08,134.47,286.9Zm157-.71c1.63,2,.91,6.05-1.22,6.45s-3.86-2.72-2.75-5.64C288.52,284.38,289.74,284.17,291.47,286.19ZM132,295.06c-.81.81-.91.4-.5-1.31.4-1.31.81-1.82,1.11-1A2.7,2.7,0,0,1,132,295.06Z" transform="translate(-2.58 -2.56)"/><path class="cls-1" d="M268.79,191.65c-1.42,1.51-.61,3.42,1.43,3.42,1.42,0,1.93-.5,1.73-1.71C271.64,191.55,269.91,190.64,268.79,191.65Z" transform="translate(-2.58 -2.56)"/><path class="cls-1" d="M168.13,48.72a6.25,6.25,0,0,0-1.73,3.83c0,2.42,2.75,6.46,4.37,6.35.82,0,.82-.2-.1-.6a5.84,5.84,0,0,1-2.34-3c-1.32-3.43,1.12-7.06,4.88-7.66,2.85-.41,2.85-.41-.3-.61A6.62,6.62,0,0,0,168.13,48.72Z" transform="translate(-2.58 -2.56)"/><path class="cls-1" d="M182.47,47.92c-1.32.8-1.53,1.61-.71,4.33,1.52,5.45,7.22,7.66,10.16,4,1.33-1.51,1.22-1.51-.71-.3-2.74,1.61-7.22.61-8-1.91-1.93-6.25,7.22-8.57,9.56-2.32.61,1.71,1,2.12,1,.91C194,48.42,186.94,45.4,182.47,47.92Z" transform="translate(-2.58 -2.56)"/><path class="cls-1" d="M177.38,48.93a9.45,9.45,0,0,1,1.22,4.73c0,2.93-.5,3.63-3.25,4.84-2,.91-2.64,1.41-1.53,1.51,2.34,0,6.82-4.43,6.82-6.85a6.65,6.65,0,0,0-2.24-3.83C177.08,48.32,176.67,48.12,177.38,48.93Z" transform="translate(-2.58 -2.56)"/><path class="cls-1" d="M250.39,51.55c-3.56,3.42-.91,8.67,4.17,8.36,1,0,.3-.5-1.53-1-2.84-.8-3.35-1.41-3.05-3.62.72-6,7.43-5.55,7.43.5,0,1.61.3,2.82.71,2.52,1.42-.81.91-5.14-.82-6.75a4.49,4.49,0,0,0-6.91,0Z" transform="translate(-2.58 -2.56)"/><path class="cls-1" d="M222.53,53.26c-2.75,2.92-2.95,7.86-.41,10.08A5.94,5.94,0,0,0,225,65.05c.41,0-.2-.7-1.42-1.61-1.53-1-2.24-2.52-2.24-4.94,0-7,8.85-8.57,12-2.22,1.73,3.43.2,6.45-4.17,8.27-2,.91-2.54,1.41-1.42,1.51,2.33,0,7.82-5.34,7.82-7.56,0-2.52-5.59-7.56-8.33-7.56A7.39,7.39,0,0,0,222.53,53.26Z" transform="translate(-2.58 -2.56)"/><path class="cls-1" d="M360.92,53.56c-1,2.62,1.12,4.94,4.37,4.94,2.34,0,3-.5,3.25-2.42.21-1.31-.2-2.82-1-3.22C365.29,51.45,361.63,51.85,360.92,53.56Zm6.3,1.92c0,2.22-3.15,3.32-4.78,1.71s-.1-4.43,2.44-4C366.41,53.36,367.22,54.17,367.22,55.48Z" transform="translate(-2.58 -2.56)"/><path class="cls-1" d="M27.51,54c-2.85,1.1-3.77,2.62-3,4.93s5.18,4.44,7.73,3.63C36,61.32,35.64,54,32,54c-.51,0-.2.7.61,1.61,2,1.91,2,3.83.1,5.44s-5.28.4-6.2-2.22c-.51-1.51,0-2.62,1.73-3.93C30.86,52.86,30.76,52.66,27.51,54Z" transform="translate(-2.58 -2.56)"/><path class="cls-1" d="M299.4,58.1c-1,.5-1.83,1.51-1.83,2s.71.31,1.63-.5c3.15-3.23,8.54-1.41,8.54,2.92s-4.78,6-8.34,2.83c-2.24-2-2.44-1.11-.2,1.1,3.56,3.63,9.55.61,9.55-4.73C308.75,57.7,303.57,55.68,299.4,58.1Z" transform="translate(-2.58 -2.56)"/><path class="cls-1" d="M94.31,59.51c-.1,3,5.59,23.69,6.92,25,.81.8,1.11.4,1.11-1.42C102.34,80.07,94.41,56.69,94.31,59.51Z" transform="translate(-2.58 -2.56)"/><path class="cls-1" d="M154.2,61c-.81,1.51-.61,2.42,1,4a7.83,7.83,0,0,0,2.84,2c1.83,0,4.48-2.82,4-4.13-.41-1.11-.61-1-.61.2a3.22,3.22,0,0,1-1.63,2.32c-2.54.9-4.67-.51-4.37-2.83.2-1.51,1-2.11,3.05-2.11,1.42.1,2.44-.3,2.24-.71C159.69,58.2,155.32,59,154.2,61Z" transform="translate(-2.58 -2.56)"/><path class="cls-1" d="M336.82,60.32a3.81,3.81,0,0,0-1.43,3.83c.31,2.11.82,2.41,4.28,2.52,3.05,0,4.16.5,4.77,2.21,1.63,4.24,9.36,5.85,12.31,2.42,3.25-3.53,3.15-6-.1-9.27-3.77-3.83-6.61-3.83-10.27-.1-2.75,2.72-2.95,2.72-3.26.8a3.12,3.12,0,0,0-1.83-2.41c-1.22-.41-1.22-.31-.2.5,2.34,1.61,1,4.74-2.14,5-2.23.3-2.74-.1-2.74-1.92A4.81,4.81,0,0,1,338,60.42C340.28,58.7,339.16,58.6,336.82,60.32Zm18.5,1.31c1.53,1,2.24,2.52,2.24,4.83,0,4-1.52,5.65-5.59,5.65-6.51,0-9.36-5.44-5.19-9.58C349.73,59.61,352.07,59.41,355.32,61.63Z" transform="translate(-2.58 -2.56)"/><path class="cls-1" d="M197.21,65.15a4.78,4.78,0,0,0-2.34,7c1.53,2.82,2.24,2.52.82-.51-1.43-3.22.5-5.74,4.06-5.34,5.49.61,5.49,6.45.11,8-2.14.6-2.24.7-.31.8a5.89,5.89,0,0,0,4-1.91C207.18,69.08,202.5,63.14,197.21,65.15Z" transform="translate(-2.58 -2.56)"/><path class="cls-1" d="M261.58,68.78A1.9,1.9,0,0,0,263,72.11c1.12,0,2-.61,2-1.41C265,69.19,262.59,67.88,261.58,68.78Z" transform="translate(-2.58 -2.56)"/><path class="cls-1" d="M368.14,70.6c-1.53,2.31-1.53,2.72,0,4.94,2.13,3.32,5.28,4.13,8.23,2.21,5.49-3.52,3.46-9.67-3.15-9.67C370.68,68.08,369.36,68.78,368.14,70.6Zm8.54-.31c3.66,3.63-1.12,9.38-5.8,7-2-1.11-3.05-6-1.42-7.46C370.58,68.68,375.36,69,376.68,70.29Z" transform="translate(-2.58 -2.56)"/><path class="cls-1" d="M300.42,70.19a3.23,3.23,0,0,0-1.83,2.12c0,.6.91.3,2-.71,4.27-3.83,10.68,1.82,7.12,6.15-2,2.32-5.7,1.72-8-1.41-1.53-1.91-1.94-2.22-1.53-.7,1.53,4.53,6.91,6,9.86,2.72C312.72,73.32,306.42,66.67,300.42,70.19Z" transform="translate(-2.58 -2.56)"/><path class="cls-1" d="M241.65,73.12c-1.83,1.11-.41,4.23,1.72,3.83A2.78,2.78,0,0,0,245.51,75C245.92,73.12,243.58,71.91,241.65,73.12Zm3,2.11c0,.51-.72.91-1.53.91-1.52,0-2-1.21-.91-2.32C243.07,73,244.7,73.92,244.7,75.23Z" transform="translate(-2.58 -2.56)"/><path class="cls-1" d="M177.59,74.53a5.24,5.24,0,0,0,1.12,7c2.33,1.41,6.81,0,7.52-2.42C187.65,74.73,180.54,71.1,177.59,74.53Zm7.22,1.21c1.72,2.11,0,4.83-3.46,5.24-2.14.3-2.85-.2-3.36-2.22-.3-1.41-.3-3,.11-3.53C179.11,73.62,183.28,73.92,184.81,75.74Z" transform="translate(-2.58 -2.56)"/><path class="cls-1" d="M133.56,77c-2.24,2.42-2.14,4.53.1,6.55,2.54,2.32,5.8,2.11,8.34-.51,1.12-1.21,2-1.61,2-1s1.12,1.71,2.54,2.42c1.94.9,3,.8,5.09-.61,1.42-.91,2.54-2.52,2.54-3.53,0-4.23-7.42-7-10.17-3.63-1.12,1.31-1.52,1.31-3.35,0C137.73,74.63,135.59,74.73,133.56,77Zm6.51.2a3.63,3.63,0,0,1,.71,5.84c-3.66,3.63-9.76-1.1-6.31-4.93C136.51,75.84,137.32,75.74,140.07,77.15Zm11.89.2c2,2,1.43,4.84-1.32,6.05-2.24,1-2.95.9-4.68-.91s-1.93-2.42-1-4.23A4.69,4.69,0,0,1,152,77.35Z" transform="translate(-2.58 -2.56)"/><path class="cls-1" d="M6.56,81.18c1.83,2.12,1.53,6.75-.61,8-.91.61-1.22,1.11-.61,1.11,3.46.1,4.78-6.85,1.73-9.17C5.54,80,5.44,80,6.56,81.18Z" transform="translate(-2.58 -2.56)"/><path class="cls-1" d="M239.41,81.28c-3,1.71-1.73,8.06,1.73,8,.51,0,.2-.5-.71-1.11-4-2.21-.82-8.16,3.15-5.94a3.39,3.39,0,0,1,.4,6c-1.72,1.1-1.72,1.1,0,.6a20.77,20.77,0,0,1,2.34-.6c.21,0,.41-1.32.41-2.83a3.79,3.79,0,0,0-2.54-4C241.14,80,241.54,80,239.41,81.28Z" transform="translate(-2.58 -2.56)"/><path class="cls-1" d="M211.14,83.2a7,7,0,0,0-2,3.93c0,2,4.37,6.14,6.51,6.14.61,0-.41-.9-2.14-2s-3.36-2.82-3.36-3.83c0-2.22,3.06-5.24,5.39-5.24,4.17,0,6.51,7,3.05,9-1,.6-1.32,1.11-.71,1.11,1.73,0,3.46-2.32,3.46-4.74,0-2.82-3.36-6.35-6.1-6.35A7.06,7.06,0,0,0,211.14,83.2Z" transform="translate(-2.58 -2.56)"/><path class="cls-1" d="M378.1,82.39a3.87,3.87,0,0,0,.51,6c1.52,1.31,1.52,1.21.3-.81-1.72-2.72,0-5.34,3.66-5.34,4.48,0,4,7-.5,7.15-1.12,0-1.22.21-.31.61,1.63.6,6.31-2.32,6.31-4.13C388.07,82.19,380.85,79.67,378.1,82.39Z" transform="translate(-2.58 -2.56)"/><path class="cls-1" d="M303.87,84.81C299.3,88,302.15,95.29,308,95.29c3,0,6.82-3.12,6.82-5.54,0-2.22-4.58-6.55-6.82-6.55A8.69,8.69,0,0,0,303.87,84.81Zm7.94,1.41c1.11,1.11,2,2.52,2,3.22,0,2.12-3.36,4.84-6.1,4.84-3.36,0-5.09-1.71-5.09-5.24C302.65,84.41,308.14,82.59,311.81,86.22Z" transform="translate(-2.58 -2.56)"/><path class="cls-1" d="M322.38,84.71c-.81,2.11.41,3.53,3.15,3.53s4-2.22,2.24-3.94S323,82.89,322.38,84.71Zm4.68,1a1.47,1.47,0,0,1-1.43,1.51c-1.72,0-2.84-1.41-1.93-2.42C324.92,83.6,327.06,84.2,327.06,85.72Z" transform="translate(-2.58 -2.56)"/><path class="cls-1" d="M16,85.11c-2.44,1.51,1.22,6,5.18,6.35,2.65.2,4.58,1.81,10.68,8.77,6.2,7.16,7.22,8.87,6.71,11.29-.41,2.11,0,3.12,2,4.33a7.3,7.3,0,0,0,3.77,1.41c.71-.2,5.18,4.74,10.06,10.89s13.22,16.43,18.71,22.68C83,162.12,83,162.12,81,164a5.4,5.4,0,0,0-.2,8.16c2.34,2.12,4.17,2.12,7,.21,2-1.42,2.34-1.21,7.12,4.93,16.47,21.37,34.37,42.34,37.83,44.35,1.22.81,1.22.41-.31-2-4.07-6-16.06-21.77-27.15-35.38-6.4-7.76-14.54-17.94-18.2-22.58s-10.27-12.6-14.74-17.54c-12.92-14.31-24.61-29.12-24.1-30.54.51-1.71-1.63-4.23-4.68-5.34a5.22,5.22,0,0,1-3-2.92c-.3-1.11-1-2-1.73-2-1.62,0-14.84-13.5-14.84-15.22C24.05,84.81,19.37,83,16,85.11Zm6.61,4a2.64,2.64,0,0,1-4.17.1,2.48,2.48,0,0,1,.61-2.62c1.12-1.31,1.42-1.31,2.74,0A2.48,2.48,0,0,1,22.63,89.14Zm23.79,22.18a3,3,0,0,1-4.17,4.13c-2.24-1.21-2.54-3-.71-4.84S45.2,109.1,46.42,111.32Zm41.69,54c1.32,1.61.61,4.74-1.63,6.65-3.76,3-8.74-3.52-5.29-7C82.82,163.43,86.58,163.53,88.11,165.34Zm29.59,37c1.93,2.42,2.64,3.73,1.62,2.92-2-1.61-6.2-7.15-5.49-7.15C114.14,198.1,115.87,200,117.7,202.33Z" transform="translate(-2.58 -2.56)"/><path class="cls-1" d="M153.79,86c-.3.5.51.8,1.73.8s2.24.51,2.24,1.42-.92,1.51-2.34,1.41-1.93.3-1.32.9c1.73,1.72,4.68.31,4.68-2.31,0-1.82-.61-2.63-2.24-2.83C155.42,85.21,154.1,85.51,153.79,86Z" transform="translate(-2.58 -2.56)"/><path class="cls-1" d="M227.61,91.36a157.84,157.84,0,0,1-9.55,14.72c-5.7,7.76-6.41,8.36-8.95,7.86-4.88-1-8.24,4.53-4.58,7.56,2.24,1.81,1.12,2.42-1.42.8a4,4,0,0,0-6,2.32c-.2.81.2.61,1-.5,2.23-2.83,6.1-1.31,5.69,2.21-.41,3.23-2.95,4-5.29,1.72-.91-.91-1.62-1.21-1.62-.51s1.11,1.52,2.44,2.12l2.44,1.11-6.21,9.78c-3.35,5.34-7.52,11.89-9.35,14.71a82.33,82.33,0,0,0-6,12.6,177.67,177.67,0,0,1-8.85,18.85c-5.49,10.48-11.89,24.69-10.47,23.18a69.79,69.79,0,0,0,4.48-6.85c2.94-4.64,4-5.65,4.37-4.34.2,1.31,2.54-2.52,6.61-10.88,4.78-9.78,6.91-13.11,9-14.11,2.64-1.31,2.84-1.82,2.54-6.56-.31-5.64,2.74-14,5.39-15a3.11,3.11,0,0,0,1.52-2.62c0-1.21,1.73-4.84,4-8.27s5.29-9,7-12.3,3.87-6.45,4.78-6.75,1.53-1.11,1.53-1.71-.71-.4-1.63.4c-1.83,1.92-2,1.92-4.57.61a3.64,3.64,0,0,1-.72-5.85c1.73-1.71,3.56-1.51,5.7.91,1.73,1.71,2,1.81,2.54.4a67.1,67.1,0,0,1,4.68-6.85c3.86-5,13.83-23.69,13-24.5C231,85.41,229.34,88,227.61,91.36ZM187,168.06c1.53,2.32.1,4.84-2.84,4.84-2.14,0-2.55-.5-2.55-2.92C181.65,165.84,184.91,164.74,187,168.06Z" transform="translate(-2.58 -2.56)"/><path class="cls-1" d="M191,87.43c-2.75,2.72.3,9,4.37,8.87.51-.1-.3-.81-1.83-1.61-2.24-1.21-2.85-2.12-2.54-4.24s.91-2.82,3.35-3a4.14,4.14,0,0,1,4.27,1.41c.72,1,1.33,1.31,1.33.81,0-1.82-2.44-3.43-5.09-3.43A6.25,6.25,0,0,0,191,87.43Z" transform="translate(-2.58 -2.56)"/><path class="cls-1" d="M175.55,90.75c-1.62,1.92-.61,4.54,1.83,4.54,3.16,0,4.68-2.52,2.75-4.43S177.18,88.84,175.55,90.75Zm4.07,1c1,1.21.92,1.62-.51,2.12-1.93.81-4.06-.91-3.15-2.52S178.1,90,179.62,91.76Z" transform="translate(-2.58 -2.56)"/><path class="cls-1" d="M198.13,93.27c-.72,1.11-.82,2-.31,2,.92,0,2.44-3,1.83-3.63C199.55,91.46,198.84,92.27,198.13,93.27Z" transform="translate(-2.58 -2.56)"/><path class="cls-1" d="M244,96c-1.42.5-1.83,3.93-.5,4.73.5.31.81-.5.81-1.71-.1-1.61.51-2.22,1.93-2.22s2,.61,1.93,2.32.21,2,1,1.21C251.41,98.11,247.24,94.58,244,96Z" transform="translate(-2.58 -2.56)"/><path class="cls-1" d="M350.34,96.9a2.35,2.35,0,0,0-.2,3.23A4.26,4.26,0,0,0,357,100c.92-1.51.71-2.12-.81-3.33C353.6,94.89,352.07,94.89,350.34,96.9Zm4.88.51a2.25,2.25,0,0,1-1.73,3.93c-2.33,0-3.45-1.61-2.64-3.53C351.46,96,353.7,95.9,355.22,97.41Z" transform="translate(-2.58 -2.56)"/><path class="cls-1" d="M168.64,97.51a3.8,3.8,0,0,0,.61,5.94c1.52,1.31,1.63,1.21.41-.3-1.94-2.42-.61-5.84,2.23-5.84,5,0,6,5.14,1.43,7-1.53.51-1.73.91-.72.91,1.73.1,5-2.92,5-4.64s-3.56-4.33-5.7-4.33A5.11,5.11,0,0,0,168.64,97.51Z" transform="translate(-2.58 -2.56)"/><path class="cls-1" d="M121.87,98.52c-2.85,2.82.1,6.85,5,6.85,2.54,0,3-.4,3-2.82,0-3.33-1.63-5.24-4.58-5.24A5.17,5.17,0,0,0,121.87,98.52Zm6.71,3c.3,2.42,0,2.82-2.24,2.82-3,0-5.19-3.12-3.36-4.94C125.12,97.31,128.27,98.52,128.58,101.54Z" transform="translate(-2.58 -2.56)"/><path class="cls-1" d="M376.88,99.32a6.53,6.53,0,0,0-2,3.43c0,1.81,4,6.65,5.39,6.65.71,0,.4-.5-.51-1.11-5.29-3-3.76-10,2.23-10,5.7,0,8.34,6.45,3.87,9.48-1.22.91-1.83,1.61-1.22,1.61,1.93,0,4.47-3.63,4.47-6.35C389.08,97.91,380.85,95.39,376.88,99.32Z" transform="translate(-2.58 -2.56)"/><path class="cls-1" d="M341.29,104.36a7.41,7.41,0,0,0-2,4.34c0,2.31,2.74,5.74,4.68,5.74.4,0-.21-.7-1.43-1.61a4.79,4.79,0,0,1-.4-7.76c4-3.63,9.35-1.31,9.35,3.93,0,3-.51,3.73-3.25,4.94-1.83.8-2.65,1.41-1.73,1.51,2.95,0,6.3-3.43,6.3-6.55C352.78,103.25,345.36,100.33,341.29,104.36Z" transform="translate(-2.58 -2.56)"/><path class="cls-1" d="M282.52,105.57c-3,3-.2,7.26,4.58,6.65,2.13-.2,2.95-.9,3.15-2.72C290.86,105.47,285.37,102.75,282.52,105.57Zm5.9,1.31c1.83,2.12.51,4.54-2.54,4.54-1.43,0-2.85-.71-3.16-1.51-.71-1.72,1.22-4.54,3.16-4.54A4.32,4.32,0,0,1,288.42,106.88Z" transform="translate(-2.58 -2.56)"/><path class="cls-1" d="M189.18,106.88c-.81,2,.41,3.53,2.64,3.53,2.54,0,3.56-1.71,2-3.53S189.89,105,189.18,106.88Zm4,1c.11.5-.61,1.11-1.52,1.31-1.12.2-1.83-.3-1.83-1.31C189.79,106.18,192.84,106.08,193.14,107.89Z" transform="translate(-2.58 -2.56)"/><path class="cls-1" d="M237.17,106.88c-1.73,1.82-3,5.44-2.24,6.25.31.4.61-.1.61-1.11,0-1.31.41-1.51,1.94-.6a5.73,5.73,0,0,0,3.56.4c1.72-.71,2.23-3.93.71-4.84-.51-.4-.71.2-.41,1.31.61,2.42-1.32,3.63-3.35,2-1.33-1-1.22-1.41.2-3C240.22,105,239.41,104.66,237.17,106.88Z" transform="translate(-2.58 -2.56)"/><path class="cls-1" d="M264.73,116.15a2.83,2.83,0,0,0-.71,2c0,1.51,2.64,1.81,3.45.4C268.18,117.46,265.64,115.25,264.73,116.15Z" transform="translate(-2.58 -2.56)"/><path class="cls-1" d="M331.94,118.57a3.55,3.55,0,0,0,.71,6.55c3.86.91,5.8-.2,5.39-3.32-.2-1.41-1-2.92-1.83-3.13-1.32-.5-1.32-.3-.1,1.11,1.93,2.32.61,4.94-2.14,4.54-3-.4-3.56-3.53-1.12-5.34C335,117.26,334.48,117.06,331.94,118.57Z" transform="translate(-2.58 -2.56)"/><path class="cls-1" d="M142.1,120.19c-5.19,3.52-.2,12.09,5.49,9.57,3.26-1.51,4.37-5.74,2.14-8.16C147.29,119,144.54,118.47,142.1,120.19Zm7.12,1.91c1.63,1.92.3,6.15-2.24,7-2.34.8-6-1.92-6-4.34C141,120.49,146.37,118.77,149.22,122.1Z" transform="translate(-2.58 -2.56)"/><path class="cls-1" d="M85.77,120.89c-.81,2,1.93,4.74,4,3.93,2.23-.8,1.32-4.73-1.23-5.14A2.54,2.54,0,0,0,85.77,120.89ZM90.14,122a1.53,1.53,0,1,1-1.52-1.51A1.55,1.55,0,0,1,90.14,122Z" transform="translate(-2.58 -2.56)"/><path class="cls-1" d="M183.18,123.51c-3.76,4.13,2.44,9.78,6.41,5.85,1.83-1.82,1.42-5.65-.72-6.86C186.13,121.09,185.31,121.19,183.18,123.51Zm5.39-.1c.81.4,1.22,1.92,1,3.23-.41,3-4.58,3.32-6.31.6-.91-1.51-.71-2.12.81-3.32C186.43,122.3,186.74,122.2,188.57,123.41Z" transform="translate(-2.58 -2.56)"/><path class="cls-1" d="M356.65,128.15c-2.65,3.32-2.65,3.63,0,6.55l2,2.42-1.53-2.52c-2.33-3.93-.2-7.56,4.48-7.56,7,0,7.32,8.16.41,9.68l-3,.7,2.84.1c3.16.1,6.82-3,6.82-5.74s-4.27-6.25-7.32-6.25A6.44,6.44,0,0,0,356.65,128.15Z" transform="translate(-2.58 -2.56)"/><path class="cls-1" d="M338,127.64c-2.14,1.21-2.44,6-.61,7.77.71.7,2.74,1.2,4.57,1.2,4.38,0,6.21-3.12,3.87-6.65-.82-1.31-1.83-2.42-2.14-2.42s-.1.71.61,1.41a5.85,5.85,0,0,1,.82,3.83c-.21,1.92-.92,2.32-3.87,2.32-3.25,0-3.56-.2-3.56-3a4.11,4.11,0,0,1,2.55-4.23c1.42-.71,1.83-1.31,1-1.31A8.94,8.94,0,0,0,338,127.64Z" transform="translate(-2.58 -2.56)"/><path class="cls-1" d="M164.88,130.57c-1,1.71,2,4.43,4.06,3.63a2.12,2.12,0,0,0,1.33-2.32C169.86,129.76,165.89,128.85,164.88,130.57Zm4.37,1.21a2.25,2.25,0,0,1-1.83,1.31,2,2,0,0,1-1.73-1.31c-.3-.71.41-1.21,1.73-1.21S169.45,131.07,169.25,131.78Z" transform="translate(-2.58 -2.56)"/><path class="cls-1" d="M23.24,134.2a4.11,4.11,0,0,0-2,4.23c.21,2.22,1,2.92,4.07,3.63s4.17.6,5.9-.91c2.54-2.32,2.64-4.74.2-6.85S26.18,132.08,23.24,134.2Zm7.93,1.31c1.83,3.62-1.12,6.85-5.09,5.64-4.27-1.31-2.95-7.56,1.53-7.56A4.26,4.26,0,0,1,31.17,135.51Z" transform="translate(-2.58 -2.56)"/><path class="cls-1" d="M396.81,135.81a5.77,5.77,0,0,0-1,4.33c.41,1.51,0,2.42-1,2.82-3.87,1.52-.72,8,3.66,7.66.71,0,0-.5-1.53-1.1-3.66-1.31-3.46-4.94.31-5.85,1.73-.4,2.13-.81,1.22-1.41-1.53-.91-1.63-5.85,0-7.46.71-.7.91-1.21.61-1.21S397.62,134.6,396.81,135.81Z" transform="translate(-2.58 -2.56)"/><path class="cls-1" d="M372.3,137.62c-1.52,1.62-1.72,2.62-.91,4.74.51,1.41,1.63,2.92,2.44,3.12,1.22.41,1.12.11-.2-1.51-2.14-2.32-2.34-4.43-.61-6.15,2.64-2.62,8.94-.3,8.94,3.33a5,5,0,0,1-1.62,2.92c-.82.91-1.22,1.62-.71,1.62,3.66,0,4.37-6.25,1.11-8.47S374.54,135.2,372.3,137.62Z" transform="translate(-2.58 -2.56)"/><path class="cls-1" d="M243.88,141.86c.41,3.12,5.39,3.42,5.39.3,0-1.51-.81-2.12-2.85-2.32C243.88,139.54,243.58,139.84,243.88,141.86Zm4.88.3c0,.8-.91,1.51-2,1.51s-2-.71-2-1.51.91-1.51,2-1.51S248.76,141.35,248.76,142.16Z" transform="translate(-2.58 -2.56)"/><path class="cls-1" d="M200.16,142.36a3.24,3.24,0,0,0,2.64,2.12c1.94.3,2.34-.1,2-1.52a3.27,3.27,0,0,0-2.65-2.11C200.26,140.55,199.86,141,200.16,142.36Zm3.86.3c0,.51-.71,1-1.52,1s-1.53-.5-1.53-1,.72-1,1.53-1S204,142.06,204,142.66Z" transform="translate(-2.58 -2.56)"/><path class="cls-1" d="M298.59,151.23c-2.55,3,1.42,7.46,5.39,6,2.33-.81,2.74-2.93,1.11-5.35S300.42,149.11,298.59,151.23Zm5.89,2.32c.41,2.82-2.44,4-4.57,1.91s-.92-4.94,1.93-4.53A2.82,2.82,0,0,1,304.48,153.55Z" transform="translate(-2.58 -2.56)"/><path class="cls-1" d="M355.53,151.73c-2.44,2.42-2.54,3.23-.21,5.75.92,1,1.33,1.31.92.7-1.53-2.21-.31-5.84,2.34-7.15,1.83-.91,2-1.31.81-1.31A6.84,6.84,0,0,0,355.53,151.73Z" transform="translate(-2.58 -2.56)"/><path class="cls-1" d="M363.05,152.34a5,5,0,0,1,1.63,2.92c0,1.92-2.85,4.54-4.88,4.64-.92,0-1.22.3-.61.5,2.24.91,6.51-1.51,6.51-3.63,0-2.72-1.73-6-3.16-6C361.93,150.73,362.24,151.43,363.05,152.34Z" transform="translate(-2.58 -2.56)"/><path class="cls-1" d="M381,153.55c-2.75,2.22-3.05,6.75-.61,9.07,1.62,1.61,1.62,1.51.2-1.21-1.83-3.63-.81-6.85,2.75-8.06,4.37-1.52,7.83.6,7.83,4.83,0,3.94-1.33,5.25-5.6,5.95l-3,.4,3.36.21c4.37.2,7.73-3.13,6.81-6.76C391.32,152.34,385.32,150,381,153.55Z" transform="translate(-2.58 -2.56)"/><path class="cls-1" d="M35.34,155.16c-3.56,3.73-2.34,7.26,3,8.87,4.06,1.11,4.37,1.11,6.71-1.61s2.44-5.45.1-8.47C43.37,151.83,37.88,152.54,35.34,155.16Zm10.06,1.21c1.83,4.74-2.64,8.87-7,6.55-5-2.72-3.26-9.17,2.54-9.17C43.78,153.75,44.59,154.25,45.4,156.37Z" transform="translate(-2.58 -2.56)"/><path class="cls-1" d="M284.76,156.27c-1.53,2.32-1.53,2.72,0,5,2.85,4.33,9.76,2.62,9.76-2.32,0-3.53-1.73-5.24-5.29-5.24A5.12,5.12,0,0,0,284.76,156.27Zm8.54,1.31c.41,3-1.42,5.24-4.47,5.24a4,4,0,0,1-3.46-6.15C287,153.65,292.89,154.35,293.3,157.58Z" transform="translate(-2.58 -2.56)"/><path class="cls-1" d="M338.24,160.3c-1.73,2,.31,4.54,3.76,4.54,3.16,0,4.27-2.93,1.83-4.64S339.77,158.39,338.24,160.3Zm4.88,1.82c.21,1.2-.3,1.71-1.73,1.71s-2.13-.61-2.13-2.12C339.26,159.19,342.61,159.49,343.12,162.12Z" transform="translate(-2.58 -2.56)"/><path class="cls-1" d="M55.37,161.31c.61,1.11,3.76,4.23,6.91,7.05,10.07,8.57,21,18.65,25,22.88s7.22,4.74,7.73,1c.41-2.62-2.34-4-4.78-2.52-1.32.91-3.15-.4-9.86-6.65C65.64,169.27,54.25,159.39,55.37,161.31Zm37.82,30.74c0,1.11-.4,2-.91,2a2.07,2.07,0,0,1-1.63-3C91.67,189.33,93.19,189.93,93.19,192.05Z" transform="translate(-2.58 -2.56)"/><path class="cls-1" d="M397.62,160.91a1.84,1.84,0,0,0,.31,2c.51.51.91.1.91-1.11C398.84,159.49,398.64,159.39,397.62,160.91Z" transform="translate(-2.58 -2.56)"/><path class="cls-1" d="M393.25,167.26c-2.24,2.62,1,6.35,4.48,5,2-.81,1.93-5-.11-5.85C395.28,165.54,394.57,165.64,393.25,167.26Zm4.78,1.91c.2,1.11-.3,1.71-1.63,1.71-2.44,0-3.25-.8-2.54-2.62C394.57,166.25,397.62,167,398,169.17Z" transform="translate(-2.58 -2.56)"/><path class="cls-1" d="M334.48,171c-2.64,2.63,2.24,6.86,5.8,4.94,2.54-1.41,2.64-3.62.1-5S335.9,169.57,334.48,171Zm5.59,2.22c.31,1.41-.1,1.82-2,1.51a3.26,3.26,0,0,1-2.65-2.11c-.3-1.41.11-1.82,2-1.51A3.23,3.23,0,0,1,340.07,173.2Z" transform="translate(-2.58 -2.56)"/><path class="cls-1" d="M48.45,171.19A28.57,28.57,0,0,0,51,174.92c1.43,1.81,2.34,3.52,2.14,3.73s-2-.31-4.07-1.11-3.66-1.31-3.66-1.11c0,.7,13.63,7.56,15.05,7.56a.9.9,0,0,1,.92,1.31c-.31.8.5,1.41,2.33,1.51,1.53.1,5.39,1.41,8.65,2.82,7.32,3.33,8.54,2.42,1.52-1.11-3.56-1.81-5.08-3.12-4.67-4,.5-1.41-1.83-4.53-3.46-4.53a4.73,4.73,0,0,0-2.44,1.61c-2.44,2.32-5.09.91-8.95-4.64C51.61,172.9,48.45,169.88,48.45,171.19Zm19.32,12.29c0,1.92-2,2.93-3.25,1.72-1.53-1.52-.2-4.34,1.73-3.63A2.41,2.41,0,0,1,67.77,183.48Z" transform="translate(-2.58 -2.56)"/><path class="cls-1" d="M164.88,171.69c-1.73,1.21-4.58,7.26-4.58,9.58,0,2.11.1,2.11,2-.31,1.84-2.21,4.38-9.07,3.77-9.67C166,171.09,165.39,171.29,164.88,171.69Z" transform="translate(-2.58 -2.56)"/><path class="cls-1" d="M16.42,173.91A4.19,4.19,0,0,1,12,175.32c-2.14-.51-1.93-.1,1.42,2,2.24,1.42,4.78,2.63,5.6,2.63,5.38.1,48,14.11,49.31,16.12.31.51-.41,2.52-1.63,4.44-1.93,3.22-1.93,3.73-.5,4.23a13.24,13.24,0,0,0,5,.1,13,13,0,0,1,6.2,1c3,1.51,3,1.51-.71-2.82-2-2.32-3.56-4.44-3.26-4.74s7.22,3.12,15.46,7.56c16.47,8.77,25.32,12.7,22.67,10-2.33-2.42-38.43-20.67-45.24-23-3.36-1.11-9.26-3.33-13.22-5a98.38,98.38,0,0,0-13.73-4.44C26.39,180.46,23,179.05,23,176.43a4.44,4.44,0,0,0-1.93-3.53C18.46,171.59,18.56,171.59,16.42,173.91ZM21.61,175a2.63,2.63,0,0,1-.71,2.52c-1.83,1.71-4.48.2-3.66-2A2.52,2.52,0,0,1,21.61,175Zm51,26.4c.21,1.21-.3,1.72-1.73,1.72s-2.13-.61-2.13-2.12C68.79,198.5,72.14,198.8,72.65,201.42Z" transform="translate(-2.58 -2.56)"/><path class="cls-1" d="M315.77,175.42a147.81,147.81,0,0,1-16.27,2.52c-5.69.5-10.67,1.31-11,1.61s5.08.41,12.1.1c9.66-.4,14.54-1.11,20.34-3,6.4-2.12,7-2.52,4.06-2.52A54.19,54.19,0,0,0,315.77,175.42Z" transform="translate(-2.58 -2.56)"/><path class="cls-1" d="M371.8,191a6.56,6.56,0,0,0-2,3.43c0,2.12,4.07,6.65,5.9,6.65,1.22,0,1-.4-.71-1.31-3.36-1.71-4.37-4.94-2.54-7.66,1.62-2.32,4.47-2.72,7.62-1.11,2.75,1.51,2.54,6.45-.3,8.47-1.83,1.31-1.93,1.61-.61,1.61,1.83,0,4.88-3.63,4.88-5.84s-4.88-6.25-7.63-6.25A7.52,7.52,0,0,0,371.8,191Z" transform="translate(-2.58 -2.56)"/><path class="cls-1" d="M81,193.16c.81.5,6.3,3.43,12.2,6.45,7.32,3.73,12.2,6.95,15.76,10.48,5.39,5.55,9,7.26,4,1.92l-3-3.23,3,1.92c1.73,1,4.78,3,6.91,4.33s4.07,2.32,4.27,2c.92-.91-10.06-8.87-18.7-13.51-4.78-2.62-9-5.14-9-5.64a.84.84,0,0,0-1.22-.31c-.41.31-3.87-.8-7.63-2.52C80.58,192,78.25,191.24,81,193.16Z" transform="translate(-2.58 -2.56)"/><path class="cls-1" d="M348.92,201.73c-2.14,2.11-1.63,4.23,1.63,6.65,2,1.51,3.05,1.71,5.28.91,3.46-1.31,3.76-5.35.51-7.56C353.39,199.71,351.05,199.71,348.92,201.73Zm7,1c2.14,2.12,2,3-.61,4.84a3.45,3.45,0,0,1-4.06.51c-1.73-.91-2.54-4.94-1.12-6.25C351.26,200.62,354.31,201.12,355.93,202.73Z" transform="translate(-2.58 -2.56)"/><path class="cls-1" d="M84,212.21a7,7,0,0,0,2.54,1c.61,0,.31-.51-.51-1a6.24,6.24,0,0,0-2.54-1C83,211.2,83.23,211.7,84,212.21Z" transform="translate(-2.58 -2.56)"/><path class="cls-1" d="M89.63,212.21c.31.5,0,1-.71,1.21-1.22.4,7.83,4.23,12.41,5.24,1.62.4,1.22-.1-1.33-1.31A19.73,19.73,0,0,1,94.92,214C93.7,212.41,88.72,210.8,89.63,212.21Z" transform="translate(-2.58 -2.56)"/><path class="cls-1" d="M353.8,214.93c-.71.2-1.32,1.51-1.32,2.92,0,1.72.71,2.52,2.44,3,4.47,1.11,6.3-1.92,3.05-5C356.34,214.12,355.83,214,353.8,214.93Zm3.46,3.73c-.41.91-1.12,1.61-1.73,1.61-1.73,0-2.44-3.12-.92-4.13C356.44,215,358.07,216.64,357.26,218.66Z" transform="translate(-2.58 -2.56)"/><path class="cls-1" d="M119.12,220.37c4.17,2.72,8.64,5.14,8.64,4.44,0-1-8.44-6.55-10.06-6.55C116.68,218.26,117.19,219.06,119.12,220.37Z" transform="translate(-2.58 -2.56)"/><path class="cls-1" d="M250.8,223.8c-1.43.81-2,1.41-1.43,1.51a8.16,8.16,0,0,0,3-1.51C254.86,222,254.05,221.88,250.8,223.8Z" transform="translate(-2.58 -2.56)"/><path class="cls-1" d="M304.69,225.71a5.25,5.25,0,0,0,1.12,7c2.23,1.41,6.71.1,7.32-2.22s-.1-3.43-3.05-5S306.21,224,304.69,225.71Zm5.59,1.21c1.83,1.82,1.63,3.33-.71,4.74-3.56,2.22-6.71-2.12-3.66-5.14C307.53,224.91,308.25,225,310.28,226.92Z" transform="translate(-2.58 -2.56)"/><path class="cls-1" d="M349.12,228.13c-3.66,4-.4,10.28,5.29,10.28,6,0,8.24-5.84,3.86-9.87C355.43,225.82,351.36,225.71,349.12,228.13Zm8.64.91c2.24,2,2.34,4.13.11,6.55-2,2.22-5.19,2.32-7.63.1-2.24-2-2.34-4.63-.2-6.75A5.48,5.48,0,0,1,357.76,229Z" transform="translate(-2.58 -2.56)"/><path class="cls-1" d="M36.05,231.06a36.48,36.48,0,0,0,6.61,0c1.73-.21.3-.41-3.36-.41S34.22,230.85,36.05,231.06Z" transform="translate(-2.58 -2.56)"/><path class="cls-1" d="M50,232.37c2.24.5,8.23.8,13.22.8s13,.31,17.79.61c6.91.5,8,.4,5.59-.51-1.62-.6-11.49-1.31-21.86-1.41C52.32,231.56,47.33,231.76,50,232.37Z" transform="translate(-2.58 -2.56)"/><path class="cls-1" d="M92.28,234.79a20.31,20.31,0,0,0,4.47.9c2.75.41,3.56.31,2.54-.3C97.87,234.48,91.26,233.88,92.28,234.79Z" transform="translate(-2.58 -2.56)"/><path class="cls-1" d="M324,240.43c-2,1.21-.21,4.43,2.74,4.84,2.65.4,3.76-2.32,1.73-4.34C326.65,239.22,326,239.12,324,240.43Zm3.86,2.12a1.37,1.37,0,0,1-2.64,0c-.21-.61.4-1.11,1.32-1.11S328.07,241.94,327.87,242.55Z" transform="translate(-2.58 -2.56)"/><path class="cls-1" d="M94.21,242.14c-6.61.91-19.93,1.52-34.78,1.62-16,.1-23.28.5-21.35,1.1,1.53.51,11.9.91,23.08,1s20.64.51,21,1,3.46.5,8.14-.2c4.06-.61,11.49-1.61,16.37-2.32,6-.7,8.64-1.51,8-2.12C113,240.53,105.5,240.53,94.21,242.14Z" transform="translate(-2.58 -2.56)"/><path class="cls-1" d="M296.45,242c-1.93,2.32.1,4.94,3.76,4.94,3.46,0,4.38-2.42,1.94-4.94C300,240,298.18,240,296.45,242Zm5.19,1.92c0,2.11-1.93,2.82-3.66,1.51-1-.91-1.12-1.61-.31-2.62C298.89,241.34,301.64,242,301.64,244Z" transform="translate(-2.58 -2.56)"/><path class="cls-1" d="M383.18,245.67c-3.05,3,.11,8.87,4.68,8.87,2.34,0,5.29-2.42,5.29-4.43C393.15,246.18,385.93,243,383.18,245.67Zm6.31,1.11c3.35,2.42,0,7.66-4,6.15-2-.81-2.95-4.23-1.52-6C385.52,245.07,387.15,245.07,389.49,246.78Z" transform="translate(-2.58 -2.56)"/><path class="cls-1" d="M19.68,248.29c-3.26,3.53-1.43,7.26,3.56,7.26,3.55,0,5.39-3.43,3.35-6.55C24.86,246.28,21.81,246,19.68,248.29Zm5.79,1.92a2.83,2.83,0,0,1-.71,3,2.9,2.9,0,0,1-3.05.71c-1.73-.61-2.34-3.53-1-4.74S24.86,248.49,25.47,250.21Z" transform="translate(-2.58 -2.56)"/><path class="cls-1" d="M198,248.8c.31.4,5.29,1.31,11.09,2.21s11,1.92,11.39,2.32a9.29,9.29,0,0,1,1,3.23c.41,3.32,4.27,3.52,4.68.2.41-2.52.41-2.62,7.32-1.11,5.39,1.11,6.61,2.52,2.85,3.22-2,.41-1.93.41.51.61,1.52,0,2.74-.4,2.74-1.21.1-.6.71.3,1.53,2s1.83,3.32,2.44,3.32c2.34,0,4.17-1.41,4.17-3.12,0-2.42-.11-2.42,6.91.5,8.75,3.63,30.81,10.89,31.32,10.38.3-.3-1.93-1.31-4.88-2.21s-9.05-3.23-13.53-5c-18.3-7.46-45.65-14.22-61.51-15.32C201.28,248.49,197.62,248.49,198,248.8Zm47.49,11.89a1.37,1.37,0,0,1-2.64,0c-.21-.61.4-1.11,1.32-1.11S245.71,260.08,245.51,260.69Z" transform="translate(-2.58 -2.56)"/><path class="cls-1" d="M355.32,251c-1.32,2.93.82,7,4.27,8.07,3,.9,7.12-2,7.12-4.94C366.71,248.7,357.56,246.07,355.32,251Zm9.36.51c2.13,3.83-2.24,8.06-6.2,6-1.94-1-2.75-5.94-1.22-7.35S363.66,249.5,364.68,251.52Z" transform="translate(-2.58 -2.56)"/><path class="cls-1" d="M328.58,250.51c-1,1.61.41,4.84,2.44,5.54,4.17,1.31,6.92-2.42,4-5.34C333.46,249.2,329.5,249.1,328.58,250.51Zm5.39,2.32c.2,1.21-.3,1.71-1.73,1.71s-2.13-.6-2.13-2.12C330.11,249.9,333.46,250.21,334,252.83Z" transform="translate(-2.58 -2.56)"/><path class="cls-1" d="M396.3,252.42c-1.73,1.11-.71,5.65,1.43,6.56.81.3,1.52.1,1.52-.41a1,1,0,0,0-1-1c-1.42,0-1.32-3.32.21-4.83S398.44,251.11,396.3,252.42Z" transform="translate(-2.58 -2.56)"/><path class="cls-1" d="M289,254.34c-.92,1.51,1.22,3.53,3,2.82,1.42-.5,1.52-.91.51-2.12C291.06,253.33,289.84,253.13,289,254.34Z" transform="translate(-2.58 -2.56)"/><path class="cls-1" d="M315.06,257.77c-1.93,1.91-1.42,5.54,1,7.25,2.84,2,4.37,2,6.3,0,2.14-2.11,2-4-.41-6.45S316.89,256,315.06,257.77Zm6.71,4.13c-.41,3.22-5.49,3.63-6.41.6a2.76,2.76,0,0,1,1-3.52C318.92,257.16,322.18,259,321.77,261.9Z" transform="translate(-2.58 -2.56)"/><path class="cls-1" d="M174.23,260.29c2.75,4.53,5.59,7.25,12,11.89,12.4,8.87,34,34,34.57,40.32a13.23,13.23,0,0,0,1.63,3.52c.91,1.41,4.27,7.26,7.52,13,5,8.76,5.8,10.68,4.78,12.29-1.63,2.62-1.52,4.44.41,6.05,1.22,1,2,1,3.56.1a7.37,7.37,0,0,1,2.44-1.21c.3,0,2.64,2.82,5.18,6.25,7.43,10.08,13.83,16.93,15.87,16.93,2.64,0,4.37-4.13,2.94-6.95-1.22-2.22-5.59-2.92-6.71-1.11-1.32,2.12-2.74.6-10.37-10.78A208,208,0,0,1,228.83,315c-7-16.33-22.16-34.27-38.63-45.86-5.29-3.73-9.56-7.36-9.56-8.07,0-1.21-4.88-3.53-7.32-3.53C172.81,257.56,173.21,258.77,174.23,260.29Z" transform="translate(-2.58 -2.56)"/><path class="cls-1" d="M272.56,259.08c-1,2.52.4,4.53,3.15,4.53,3.05,0,4.37-2.42,2.54-4.53C276.62,257.16,273.27,257.16,272.56,259.08Zm4.17,1.51a2,2,0,0,1-1.22,1.71c-.82.3-1.33-.4-1.33-1.71s.51-2,1.33-1.82A2.33,2.33,0,0,1,276.73,260.59Z" transform="translate(-2.58 -2.56)"/><path class="cls-1" d="M349.12,261.39c-2.44,2.63-2.13,4.94.82,7.77,3.15,3.22,7.11,3.22,9.15.1C363.05,263.31,353.9,256.15,349.12,261.39Zm7.83.81c2.44,2.42,2,6.35-.81,7.56-5,2.32-9.46-3.43-5.59-7.26C352.88,260.19,354.82,260.08,357,262.2Z" transform="translate(-2.58 -2.56)"/><path class="cls-1" d="M8.39,263.21a2.73,2.73,0,0,0,.31,2.72c1.52,1.51,4.67.3,4.67-1.81C13.37,261.5,9.31,260.79,8.39,263.21Z" transform="translate(-2.58 -2.56)"/><path class="cls-1" d="M126.75,265.63c-2.44,1.51-.82,1.71,3.05.4,3-1.11,3.25-1.31,1-1.31A7.1,7.1,0,0,0,126.75,265.63Z" transform="translate(-2.58 -2.56)"/><path class="cls-1" d="M385.42,266.13c-.81,2.12,1.43,4.54,4.27,4.54,3.15,0,4-1.72,1.83-4.13S386.24,264,385.42,266.13Zm4.68,1.51c0,.51-.71,1-1.53,1s-1.52-.5-1.52-1,.71-1,1.52-1S390.1,267,390.1,267.64Z" transform="translate(-2.58 -2.56)"/><path class="cls-1" d="M288.22,272.38a2.09,2.09,0,0,0,1.93-.1c.4-.3-.21-.6-1.32-.5S287.4,272.08,288.22,272.38Z" transform="translate(-2.58 -2.56)"/><path class="cls-1" d="M125.42,278c-1.11,2.92-.91,4.33.41,3a3.55,3.55,0,0,0,.71-2.92C126.24,276.31,126.14,276.31,125.42,278Z" transform="translate(-2.58 -2.56)"/><path class="cls-1" d="M376.88,278.23c-2.85,3.32,2.24,8.56,6.3,6.45,2.45-1.31,2.34-3.43-.2-5.95S378.61,276.21,376.88,278.23Zm5.49,1.41c1,1.61-.51,4.13-2.44,4.13s-3.46-2.52-2.44-4.13a3.73,3.73,0,0,1,4.88,0Z" transform="translate(-2.58 -2.56)"/><path class="cls-1" d="M329.8,278.33c-1.62,1.71-.61,4.43,1.93,5,3.36.8,5.39-1,3.87-3.43C334.38,278.13,331,277.12,329.8,278.33Z" transform="translate(-2.58 -2.56)"/><path class="cls-1" d="M189.79,282.06a26.69,26.69,0,0,0,3.05,3.22c1.73,1.62,3,2.42,3,1.92s-1.32-2-3-3.23S189.79,281.86,189.79,282.06Z" transform="translate(-2.58 -2.56)"/><path class="cls-1" d="M354.51,286.29c-2.54,3.12,1.42,7.46,5.49,5.95,2.24-.91,2-5.14-.3-6.45C357.05,284.38,356,284.48,354.51,286.29Zm4.58,2.52c0,2.22-2.95,1.81-3.36-.3-.3-1.41.1-1.82,1.53-1.51A2.13,2.13,0,0,1,359.09,288.81Z" transform="translate(-2.58 -2.56)"/><path class="cls-1" d="M217.24,287.2c0,2,2.44,3.63,4,2.62a2,2,0,0,0,.81-2.42C221.21,285.38,217.24,285.28,217.24,287.2Z" transform="translate(-2.58 -2.56)"/><path class="cls-1" d="M238.6,287.8a1.08,1.08,0,0,0,1,1,1,1,0,0,0,1-1,1,1,0,0,0-1-1A1,1,0,0,0,238.6,287.8Z" transform="translate(-2.58 -2.56)"/><path class="cls-1" d="M161.32,290.83a1.08,1.08,0,0,0,1,1,1,1,0,0,0,1-1,1,1,0,0,0-1-1A1,1,0,0,0,161.32,290.83Z" transform="translate(-2.58 -2.56)"/><path class="cls-1" d="M20.39,293.24c-1.12,2.83.1,5.15,2.54,5.15,2.85,0,4.78-2.52,3.86-4.94C26,291.43,21.1,291.33,20.39,293.24Z" transform="translate(-2.58 -2.56)"/><path class="cls-1" d="M158.37,294.76c-.1,2.42.2,3.22.91,2.52s.72-1.92.11-3.53C158.47,291.43,158.37,291.53,158.37,294.76Z" transform="translate(-2.58 -2.56)"/><path class="cls-1" d="M172.5,294a4.54,4.54,0,0,0,1.53,2.92c1.93,1.62,1.93,0,0-2.62C172.81,292.64,172.6,292.64,172.5,294Z" transform="translate(-2.58 -2.56)"/><path class="cls-1" d="M185.21,296.87a1.84,1.84,0,0,0,.31,2.22c1.42,1.41,4.57.2,4.07-1.51S186.13,295.46,185.21,296.87Z" transform="translate(-2.58 -2.56)"/><path class="cls-1" d="M361.32,297.58c-1.62,1.51-.61,5.34,1.73,6.85,3.26,2.12,6.71.51,6.71-3S363.66,295.26,361.32,297.58Zm5.9,3.33c0,2.92-3.25,4.13-4.17,1.61s.41-4.84,2.34-4.44C366.61,298.28,367.22,299.29,367.22,300.91Z" transform="translate(-2.58 -2.56)"/><path class="cls-1" d="M340,301.71a6.1,6.1,0,0,0,.92,9.17c3.35,2.62,5.89,2.72,8.54.1s2.54-5.64-.51-8.56S342.31,299.19,340,301.71Zm7.22.81c4,2.72,2.34,8.46-2.44,8.46-2.14,0-5.49-3.32-5.49-5.24,0-1,3.86-4.83,4.88-4.83A8.81,8.81,0,0,1,347.19,302.52Z" transform="translate(-2.58 -2.56)"/><path class="cls-1" d="M179.72,308a21,21,0,0,0,1.83,5.54c1.12,2.22,2,3.33,2,2.52a21.18,21.18,0,0,0-1.83-5.54C180.64,308.26,179.72,307.15,179.72,308Z" transform="translate(-2.58 -2.56)"/><path class="cls-1" d="M267.27,308.87c-2.34,1.41-1,4.63,2.13,4.94,2.14.3,2.75-.1,2.75-1.52,0-1.81-1.73-4.33-2.95-4.33A4.48,4.48,0,0,0,267.27,308.87Z" transform="translate(-2.58 -2.56)"/><path class="cls-1" d="M107.73,310.58c-.81,2.22.51,4.64,2.44,4.23a2.65,2.65,0,0,0,.31-5.14C109.16,309.37,108.14,309.67,107.73,310.58Z" transform="translate(-2.58 -2.56)"/><path class="cls-1" d="M243.37,310.58c-.91,1,.21,2.42,1.94,2.42a1.47,1.47,0,0,0,1.42-1.51C246.73,310,244.59,309.37,243.37,310.58Z" transform="translate(-2.58 -2.56)"/><path class="cls-1" d="M373.83,311.49c-2.75,3.22,1.93,8.26,6.71,7.15,1.83-.5,2.44-1.31,2.44-3.42a6.57,6.57,0,0,0-1.22-4C380,309.47,375.36,309.67,373.83,311.49Zm6.1,1.11c1.12,1.21,1,1.81-.3,3.12-2.24,2.32-5.29,0-3.66-2.82C377.19,310.58,378.2,310.48,379.93,312.6Z" transform="translate(-2.58 -2.56)"/><path class="cls-1" d="M181.35,319.75c-1.22,1.11-.71,5.34.61,5.34,2.54,0,4-1.71,3.25-3.93S182.67,318.34,181.35,319.75Z" transform="translate(-2.58 -2.56)"/><path class="cls-1" d="M250.59,323.58c-.91,2.12-.81,2.83.72,4.54,3.15,3.43,7.62,2,7.62-2.52A4.37,4.37,0,0,0,250.59,323.58Zm6.31,2c0,.81-.92,1.51-2,1.51s-2-.7-2-1.51.92-1.51,2-1.51S256.9,324.79,256.9,325.6Z" transform="translate(-2.58 -2.56)"/><path class="cls-1" d="M300,324.59c-.81,3.33,1.12,5.54,4.78,5.54,2.54,0,2.95-.4,2.95-2.82,0-3.42-1.63-5.24-4.78-5.24C301.33,322.07,300.52,322.78,300,324.59Zm5.49,1.82c.2,1.2-.3,1.71-1.73,1.71-1.22,0-2.13-.61-2.13-1.31C301.64,323.68,304.89,323.38,305.5,326.41Z" transform="translate(-2.58 -2.56)"/><path class="cls-1" d="M322.28,325.7c-1.43,3.83,4.17,7.06,6.81,3.93,1.12-1.31,1-1.91-.51-3.53C326.35,323.68,323.19,323.48,322.28,325.7Zm4.27,1.41c.3.5.1,1-.41,1a1.12,1.12,0,0,1-1.12-1c0-.6.21-1,.41-1S326.24,326.51,326.55,327.11Z" transform="translate(-2.58 -2.56)"/><path class="cls-1" d="M5.65,330.84c-1.33,1.61-1.22,1.71.4.4a6.19,6.19,0,0,0,1.73-1.71C7.78,328.72,7,329.23,5.65,330.84Z" transform="translate(-2.58 -2.56)"/><path class="cls-1" d="M387.76,332c-2.24,2.42-2.13,3.43.41,6.65,3.56,4.44,9.05,3,9.05-2.42C397.22,330.94,391.12,328.32,387.76,332Zm6.81,2.42c1.32,2.22-1.42,5.44-3.86,4.53-1.63-.6-2.24-4.83-.92-6.14C390.91,331.65,393.35,332.45,394.57,334.37Z" transform="translate(-2.58 -2.56)"/><path class="cls-1" d="M214.6,332.65c-.92,2.32.3,4.54,2.54,4.54,2.54,0,3.46-1.41,2.64-4C219.07,330.84,215.41,330.44,214.6,332.65Z" transform="translate(-2.58 -2.56)"/><path class="cls-1" d="M254.86,336.59a4.5,4.5,0,0,0,1.53,2.62c1.93,1.61,4.17-.11,3.25-2.42C258.83,334.77,254.86,334.67,254.86,336.59Z" transform="translate(-2.58 -2.56)"/><path class="cls-1" d="M103.87,337.49c-.41,1-.51,2.12-.1,2.42,1,1,1.83-.4,1.32-2.42C104.68,335.78,104.68,335.78,103.87,337.49Z" transform="translate(-2.58 -2.56)"/><path class="cls-1" d="M6.76,339.61c0,.91.51,1.61,1,1.61a.94.94,0,0,0,1-.91,1.92,1.92,0,0,0-1-1.61C7.27,338.4,6.76,338.8,6.76,339.61Z" transform="translate(-2.58 -2.56)"/><path class="cls-1" d="M190.4,340.62c-.41,1.51-4.07,5.94-8.34,9.87-7.52,7.06-14.44,14.92-13.12,14.92.31,0,2.65-2.12,5.19-4.84s7.83-8,11.79-11.89c5.8-5.85,6.92-7.56,6.21-9C191.21,338.2,191,338.3,190.4,340.62Z" transform="translate(-2.58 -2.56)"/><path class="cls-1" d="M81,340.72a3.08,3.08,0,0,0-.61,3c.71,2,4.27,1.92,5.08-.1.82-2.22.82-2.22-1.32-3.33C82.72,339.51,81.91,339.61,81,340.72Z" transform="translate(-2.58 -2.56)"/><path class="cls-1" d="M154.71,343.24a2.08,2.08,0,0,0,2,3c1.43,0,2.75-2.42,1.83-3.43A2.85,2.85,0,0,0,154.71,343.24Z" transform="translate(-2.58 -2.56)"/><path class="cls-1" d="M52.22,344.55a2.54,2.54,0,0,0,2.94,3.53,2.34,2.34,0,0,0-.2-4.64A2.49,2.49,0,0,0,52.22,344.55Z" transform="translate(-2.58 -2.56)"/><path class="cls-1" d="M366.71,345.15a5.68,5.68,0,0,0,3.66,7.76c3.36.81,5.9-.6,6.31-3.52C377.49,344.35,369.15,340.82,366.71,345.15Zm7.53,1.62c.71,1.91-2,4.63-4,3.93-1.52-.61-2-3.53-.81-4.74S373.63,345.25,374.24,346.77Z" transform="translate(-2.58 -2.56)"/><path class="cls-1" d="M106.41,347.37c0,1.11.51,1.71,1,1.41a2.52,2.52,0,0,0,1-2.12c0-.8-.4-1.41-1-1.41S106.41,346.16,106.41,347.37Z" transform="translate(-2.58 -2.56)"/><path class="cls-1" d="M337.73,347.27a2.06,2.06,0,0,0,0,2c.92,1.52,3.56,1.21,3.56-.4S338.55,346,337.73,347.27Z" transform="translate(-2.58 -2.56)"/><path class="cls-1" d="M295.13,350.19c-1.12,1.82.61,4.24,2.85,3.93,2.95-.4,2.95-4.23-.11-4.63C296.76,349.28,295.43,349.59,295.13,350.19Z" transform="translate(-2.58 -2.56)"/><path class="cls-1" d="M193.35,352.31a2.18,2.18,0,0,0,1.62,1,1,1,0,0,0,.92-1c0-.61-.71-1-1.63-1S193,351.7,193.35,352.31Z" transform="translate(-2.58 -2.56)"/><path class="cls-1" d="M99.39,362.59c.11,4.23.31,4.84.92,2.82,1.22-3.63,1.22-8.06,0-8.06C99.7,357.35,99.29,359.77,99.39,362.59Z" transform="translate(-2.58 -2.56)"/><path class="cls-1" d="M121.87,359a3.11,3.11,0,0,0,1.62,2.22c.92.3,1.32-.2,1-1.41a3.12,3.12,0,0,0-1.63-2.22C122,357.25,121.56,357.75,121.87,359Z" transform="translate(-2.58 -2.56)"/><path class="cls-1" d="M285,363.9c-1.93,2-2,2.62-.3,4.94a3.88,3.88,0,0,0,3.86,1.41c3.15-.4,3.36-4.54.31-6.55C286.89,362.49,286.39,362.49,285,363.9Z" transform="translate(-2.58 -2.56)"/><path class="cls-1" d="M86.79,368.13c-.41.31-.72,1.72-.72,3,0,1.81.61,2.31,2.44,2.31,1.33,0,2.75-.7,3.06-1.61C92.68,369,88.82,366.12,86.79,368.13Z" transform="translate(-2.58 -2.56)"/><path class="cls-1" d="M200.67,368.13c-1.53,1.41-.61,5.24,1.32,5.85,2.54.81,4.07-.1,4.07-2.42C206.06,368.54,202.5,366.22,200.67,368.13Z" transform="translate(-2.58 -2.56)"/><path class="cls-1" d="M25.07,370c-1.83,2.21-.11,5,3.15,5,2,0,2.44-.51,2.44-3,0-2.32-.51-3.12-2.14-3.32A4.07,4.07,0,0,0,25.07,370Z" transform="translate(-2.58 -2.56)"/><path class="cls-1" d="M121.36,369.85c-1,2.52,3.35,5,4.78,2.72,1-1.61-.51-4.13-2.44-4.13A2.53,2.53,0,0,0,121.36,369.85Z" transform="translate(-2.58 -2.56)"/><path class="cls-1" d="M250,372.06a3.15,3.15,0,0,0,1.63,2.22c.92.3,1.32-.2,1-1.41a3.14,3.14,0,0,0-1.63-2.22C250.09,370.35,249.68,370.85,250,372.06Z" transform="translate(-2.58 -2.56)"/><path class="cls-1" d="M267.47,376c-.91,2.12.31,4.54,2.14,4.54,2.13,0,3.05-2.72,1.52-4.54S268.18,374.08,267.47,376Z" transform="translate(-2.58 -2.56)"/><path class="cls-1" d="M299.91,376.1c-.41,1.1.1,2.21,1.22,3.12,1.63,1.11,2.13,1.11,3.46-.1s1.22-1.82.1-3C303.06,374,300.72,374.08,299.91,376.1Z" transform="translate(-2.58 -2.56)"/><path class="cls-1" d="M224.46,376.9c-.91,1-.81,1.61.41,2.62,1.93,1.62,4.17-.1,3.25-2.42C227.31,375.09,226,375.09,224.46,376.9Z" transform="translate(-2.58 -2.56)"/><path class="cls-1" d="M167.83,378.41c-4.27,2.62-5.6,4.74-1.73,2.73,2.54-1.32,6.4-4.64,5.28-4.64A30,30,0,0,0,167.83,378.41Z" transform="translate(-2.58 -2.56)"/><path class="cls-1" d="M95.23,379.52a1.08,1.08,0,0,0,1,1,1,1,0,0,0,1-1,1,1,0,0,0-1-1A1,1,0,0,0,95.23,379.52Z" transform="translate(-2.58 -2.56)"/><path class="cls-1" d="M342.31,381.54c0,1.81,2.64,4,5,4,1.73,0,4.07-3,3.56-4.54-.41-1-2-1.51-4.58-1.51C343,379.52,342.31,379.82,342.31,381.54Z" transform="translate(-2.58 -2.56)"/><path class="cls-1" d="M158.78,385.17l-3.05,2.62,3.35-2.22c1.73-1.21,3.25-2.32,3.25-2.62C162.33,382.24,161.93,382.45,158.78,385.17Z" transform="translate(-2.58 -2.56)"/><path class="cls-1" d="M168.94,383.55c-1,1.72,2,4.44,4.07,3.63a2.09,2.09,0,0,0,1.32-2.32C173.93,382.75,170,381.84,168.94,383.55Z" transform="translate(-2.58 -2.56)"/><path class="cls-1" d="M28.32,387.79c-2.85,2.82-.3,7.25,4,6.65,3.05-.4,4.77-3.33,3.35-5.64C34.22,386.68,30.05,386.07,28.32,387.79Z" transform="translate(-2.58 -2.56)"/><path class="cls-1" d="M208.7,390.41c-1,3.22.41,5.24,3.56,5.24,5.49,0,5.08-6.25-.41-6.85C210,388.59,209.11,389,208.7,390.41Z" transform="translate(-2.58 -2.56)"/><path class="cls-1" d="M148.61,393.13c-1.63,1.31-2.54,2.42-1.93,2.52s2.13-1.11,3.45-2.52C153.18,389.9,152.57,389.9,148.61,393.13Z" transform="translate(-2.58 -2.56)"/><path class="cls-1" d="M194.06,393.33c.41,2.22,4.37,2.52,4.37.3,0-.8-1.12-1.61-2.34-1.81C194.16,391.52,193.75,391.82,194.06,393.33Z" transform="translate(-2.58 -2.56)"/><path class="cls-1" d="M158,394c-.51,1.31.1,1.61,2.95,1.61,2.44,0,3.46-.4,3.26-1.31C163.45,392.42,158.67,392.22,158,394Z" transform="translate(-2.58 -2.56)"/></svg>