<?xml version="1.0" standalone="no"?>
<!DOCTYPE svg PUBLIC "-//W3C//DTD SVG 20010904//EN"
 "http://www.w3.org/TR/2001/REC-SVG-20010904/DTD/svg10.dtd">
<svg version="1.0" xmlns="http://www.w3.org/2000/svg"
 width="390.000000pt" height="390.000000pt" viewBox="0 0 390.000000 390.000000"
 preserveAspectRatio="xMidYMid meet">

<g transform="translate(0.000000,390.000000) scale(0.100000,-0.100000)"
fill="#000000" stroke="none">
<path d="M202 3888 c-14 -14 -15 -47 -2 -68 6 -9 5 -20 -3 -30 -10 -13 -10
-13 5 -2 12 10 15 22 12 42 -5 20 0 33 17 49 22 20 22 21 3 21 -11 0 -25 -5
-32 -12z"/>
<path d="M329 3874 c14 -18 19 -35 15 -57 -4 -32 -4 -32 7 -5 8 21 7 33 -6 57
-8 17 -20 31 -26 31 -6 0 -1 -12 10 -26z"/>
<path d="M430 3896 c0 -9 39 -13 51 -5 10 6 4 9 -18 9 -18 0 -33 -2 -33 -4z"/>
<path d="M569 3888 c7 -10 26 -18 41 -18 15 0 34 8 41 18 11 14 11 15 -1 5 -8
-7 -26 -13 -40 -13 -14 0 -32 6 -40 13 -12 10 -12 9 -1 -5z"/>
<path d="M920 3875 c13 -14 27 -25 31 -25 5 0 -3 11 -17 25 -14 14 -28 25 -31
25 -4 0 4 -11 17 -25z"/>
<path d="M1030 3880 c-6 -11 -8 -20 -6 -20 3 0 10 9 16 20 6 11 8 20 6 20 -3
0 -10 -9 -16 -20z"/>
<path d="M1850 3891 c0 -10 19 -25 25 -20 1 2 -3 10 -11 17 -8 7 -14 8 -14 3z"/>
<path d="M1902 3884 c-7 -8 -8 -14 -3 -14 10 0 25 19 20 25 -2 1 -10 -3 -17
-11z"/>
<path d="M2167 3883 c-30 -34 -31 -67 -2 -101 42 -50 112 -46 140 9 20 37 19
51 -6 83 -17 22 -29 26 -68 26 -33 0 -53 -5 -64 -17z m126 -24 c23 -29 22 -45
-8 -74 -28 -29 -70 -32 -103 -9 -31 21 -30 77 1 99 29 21 86 13 110 -16z"/>
<path d="M2425 3889 c-4 -6 -5 -12 -2 -15 2 -3 7 2 10 11 7 17 1 20 -8 4z"/>
<path d="M2510 3875 c13 -14 26 -23 28 -20 7 7 -29 45 -41 45 -6 0 0 -11 13
-25z"/>
<path d="M3390 3885 c-7 -9 -11 -17 -9 -20 3 -2 10 5 17 15 14 24 10 26 -8 5z"/>
<path d="M3462 3880 c7 -11 16 -20 21 -20 4 0 3 9 -3 20 -6 11 -15 20 -20 20
-6 0 -5 -9 2 -20z"/>
<path d="M3764 3885 c25 -19 57 -19 82 0 23 18 11 20 -16 3 -15 -10 -27 -10
-52 -1 -30 11 -31 11 -14 -2z"/>
<path d="M3182 3874 c-34 -24 -26 -104 11 -104 5 0 1 7 -7 16 -23 22 -20 71 3
84 35 18 69 12 88 -16 16 -25 16 -28 0 -57 -14 -23 -14 -27 -3 -18 31 26 27
80 -8 103 -19 13 -60 9 -84 -8z"/>
<path d="M1407 3873 c-10 -9 -9 -51 2 -57 4 -3 6 5 4 18 -3 15 1 25 10 29 20
7 41 -18 33 -38 -3 -9 -2 -13 4 -10 14 8 13 38 -2 53 -13 13 -41 16 -51 5z"/>
<path d="M619 3831 l-24 -19 21 -29 c33 -44 67 -60 98 -45 31 14 36 62 9 83
-15 11 -16 11 -5 -1 34 -39 -6 -93 -54 -71 -42 19 -26 80 21 82 20 0 20 0 0 9
-30 13 -41 12 -66 -9z"/>
<path d="M2420 3844 c0 -12 37 -54 47 -54 4 0 -4 12 -18 28 -13 15 -25 29 -26
31 -2 2 -3 0 -3 -5z"/>
<path d="M3380 3841 c0 -10 29 -36 34 -30 1 2 -6 12 -16 22 -10 9 -18 13 -18
8z"/>
<path d="M3458 3828 c-10 -10 -14 -18 -9 -18 10 0 36 29 30 34 -2 1 -12 -6
-21 -16z"/>
<path d="M2535 3821 c-3 -11 -18 -24 -33 -30 -17 -6 -21 -10 -9 -10 18 -1 57
32 57 49 0 17 -8 11 -15 -9z"/>
<path d="M1096 3804 c-25 -24 -29 -58 -12 -99 28 -67 83 -86 124 -42 48 51 49
109 3 144 -23 18 -97 16 -115 -3z m116 -11 c25 -30 28 -52 13 -89 -27 -64
-102 -69 -125 -8 -28 72 65 151 112 97z"/>
<path d="M1572 3808 c6 -18 28 -21 28 -4 0 9 -7 16 -16 16 -9 0 -14 -5 -12
-12z"/>
<path d="M3532 3798 c-28 -28 -3 -72 39 -66 30 4 47 33 33 56 -14 21 -55 27
-72 10z m58 -13 c10 -12 10 -18 0 -30 -27 -32 -71 -8 -56 30 3 8 14 15 24 15
11 0 25 -7 32 -15z"/>
<path d="M117 3782 c-22 -24 -21 -32 1 -31 11 0 12 2 4 6 -10 4 -9 9 4 24 9
10 15 19 12 19 -3 0 -12 -8 -21 -18z"/>
<path d="M153 3735 c0 -33 2 -45 4 -27 2 18 2 45 0 60 -2 15 -4 0 -4 -33z"/>
<path d="M310 3780 c-9 -6 -10 -10 -3 -10 7 0 13 -20 16 -47 3 -47 3 -47 5 10
1 31 1 57 0 57 -2 0 -10 -5 -18 -10z"/>
<path d="M238 3741 c3 -30 0 -40 -12 -44 -13 -4 -13 -5 1 -3 13 1 19 11 21 35
2 18 0 37 -5 42 -5 5 -7 -9 -5 -30z"/>
<path d="M346 3768 c3 -5 12 -7 19 -4 20 7 33 -14 38 -59 l4 -40 1 40 c2 49
-8 66 -41 69 -15 2 -24 -1 -21 -6z"/>
<path d="M1466 3773 c-13 -14 -5 -33 14 -33 11 0 20 6 20 14 0 15 -24 28 -34
19z"/>
<path d="M181 3739 c0 -19 6 -44 15 -55 8 -10 12 -12 8 -4 -5 8 -11 33 -15 55
l-6 40 -2 -36z"/>
<path d="M268 3763 c7 -3 16 -2 19 1 4 3 -2 6 -13 5 -11 0 -14 -3 -6 -6z"/>
<path d="M422 3718 l1 -53 4 45 c3 24 10 48 16 52 8 5 6 8 -5 8 -15 0 -18 -8
-16 -52z"/>
<path d="M2767 3763 c-15 -14 -6 -23 12 -12 26 17 53 4 49 -23 -4 -29 -37 -36
-55 -12 -7 10 -13 13 -13 8 0 -16 22 -34 41 -34 27 0 50 39 38 62 -9 18 -58
26 -72 11z"/>
<path d="M3218 3763 c6 -2 18 -2 25 0 6 3 1 5 -13 5 -14 0 -19 -2 -12 -5z"/>
<path d="M202 3735 c0 -16 2 -22 5 -12 2 9 2 23 0 30 -3 6 -5 -1 -5 -18z"/>
<path d="M458 3749 c-13 -7 -18 -21 -16 -47 l1 -37 4 34 c3 19 12 41 21 48 20
15 14 16 -10 2z"/>
<path d="M760 3753 c-58 -21 -64 -67 -16 -117 37 -40 68 -46 104 -20 79 55 5
171 -88 137z m96 -34 c41 -46 0 -117 -61 -105 -71 14 -75 106 -5 128 22 7 46
-2 66 -23z"/>
<path d="M1968 3749 c-29 -16 -17 -99 14 -99 6 0 4 8 -5 18 -20 22 -22 43 -5
60 19 19 55 14 72 -10 13 -18 16 -19 16 -6 0 19 -37 48 -60 48 -8 0 -23 -5
-32 -11z"/>
<path d="M362 3744 c11 -3 18 -19 21 -42 l4 -37 -1 40 c-1 32 -5 40 -21 42
-15 1 -15 0 -3 -3z"/>
<path d="M1620 3735 c-17 -20 -5 -62 21 -70 21 -7 49 9 49 28 0 6 -6 2 -14 -9
-12 -15 -18 -17 -33 -8 -10 6 -19 19 -21 28 -5 21 26 32 49 17 11 -6 19 -7 19
-1 0 10 -32 30 -48 30 -5 0 -15 -7 -22 -15z"/>
<path d="M3832 3734 c-26 -18 -29 -56 -4 -75 14 -11 15 -11 5 1 -32 35 2 89
48 77 10 -3 17 -1 13 4 -8 14 -37 11 -62 -7z"/>
<path d="M2267 3714 c-3 -5 -8 -26 -12 -46 -6 -31 -3 -41 19 -62 32 -33 60
-33 91 -1 29 29 32 55 7 85 -18 22 -95 40 -105 24z m98 -34 c39 -43 -15 -107
-70 -82 -54 25 -35 102 25 102 15 0 35 -9 45 -20z"/>
<path d="M251 3687 c-13 -21 -12 -21 5 -5 10 10 16 20 13 22 -3 3 -11 -5 -18
-17z"/>
<path d="M1793 3695 c-29 -20 -37 -59 -18 -95 26 -50 101 -53 123 -5 17 37 15
50 -14 84 -28 34 -58 39 -91 16z m82 -20 c29 -28 31 -51 9 -83 -22 -31 -67
-29 -93 4 -12 15 -21 33 -21 41 0 19 45 63 65 63 9 0 27 -11 40 -25z"/>
<path d="M3274 3687 c-40 -22 -46 -67 -12 -91 46 -32 98 -7 98 46 0 40 -49 66
-86 45z m66 -21 c15 -20 9 -56 -12 -70 -25 -16 -72 4 -76 32 -5 31 15 52 48
52 15 0 33 -7 40 -14z"/>
<path d="M2046 3675 c-3 -8 -16 -20 -28 -25 -15 -5 -17 -9 -7 -9 17 -1 56 36
47 44 -3 3 -8 -1 -12 -10z"/>
<path d="M2170 3650 c0 -5 5 -10 10 -10 6 0 10 5 10 10 0 6 -4 10 -10 10 -5 0
-10 -4 -10 -10z"/>
<path d="M3870 3650 c-23 -7 -23 -8 -3 -9 12 -1 25 4 28 9 3 6 5 10 3 9 -2 -1
-14 -5 -28 -9z"/>
<path d="M2856 3599 c-31 -37 -32 -49 -5 -83 27 -34 77 -36 107 -3 30 32 28
71 -4 96 -37 29 -68 26 -98 -10z m94 1 c41 -41 13 -100 -46 -100 -23 0 -38 7
-48 22 -22 31 -20 45 9 73 29 30 58 32 85 5z"/>
<path d="M742 3568 c-18 -18 -15 -72 6 -91 44 -40 119 3 92 52 -13 25 -47 44
-65 37 -8 -3 -15 0 -17 5 -2 6 -8 5 -16 -3z m67 -18 c44 -23 31 -80 -19 -80
-59 0 -61 74 -2 89 2 1 11 -3 21 -9z"/>
<path d="M1394 3555 c-9 -23 3 -45 26 -45 25 0 37 25 20 45 -16 19 -39 19 -46
0z m41 -16 c0 -7 -8 -15 -17 -17 -18 -3 -25 18 -11 32 10 10 28 1 28 -15z"/>
<path d="M3852 3548 c-23 -23 -8 -78 22 -78 5 0 2 6 -8 13 -26 19 -17 59 14
68 21 6 22 7 5 8 -12 1 -26 -4 -33 -11z"/>
<path d="M256 3524 c-23 -23 -20 -47 12 -75 15 -13 21 -17 15 -9 -16 18 -17
62 -1 78 29 29 98 1 98 -40 0 -20 -29 -45 -60 -51 -25 -4 -24 -4 3 -6 31 -1
67 29 67 57 0 10 -9 28 -20 40 -25 27 -90 30 -114 6z"/>
<path d="M620 3521 c0 -22 21 -33 40 -21 18 11 4 40 -20 40 -13 0 -20 -7 -20
-19z m40 -1 c0 -5 -4 -10 -10 -10 -5 0 -10 5 -10 10 0 6 5 10 10 10 6 0 10 -4
10 -10z"/>
<path d="M2583 3497 c24 -20 21 -46 -5 -57 -13 -5 -18 -9 -11 -9 45 -3 61 50
21 69 -21 10 -21 10 -5 -3z"/>
<path d="M2536 3484 c-3 -9 -1 -23 5 -32 9 -15 10 -15 5 2 -4 10 -1 25 5 32 7
9 8 14 1 14 -5 0 -13 -7 -16 -16z"/>
<path d="M731 3434 c-1 -34 73 -288 138 -478 31 -90 37 -116 26 -116 -8 0 -15
4 -15 9 0 5 -8 12 -17 15 -14 6 -14 3 3 -15 10 -11 18 -30 16 -40 -2 -10 8
-45 22 -76 13 -32 38 -101 55 -153 46 -143 87 -253 116 -310 32 -64 17 -58
-21 8 -31 53 -203 266 -289 357 -90 95 -92 99 -62 135 22 26 24 34 16 59 -14
40 -52 58 -91 43 -29 -11 -32 -9 -86 50 -69 73 -95 112 -98 147 -3 30 -46 71
-74 71 -11 0 -38 -7 -60 -16 -57 -23 -64 -55 -19 -99 19 -19 48 -36 64 -40 29
-5 29 -5 5 5 -40 18 -60 41 -60 72 0 56 60 86 108 52 29 -20 30 -76 2 -104
-11 -11 -16 -20 -11 -20 6 0 13 5 16 11 4 5 10 9 15 7 18 -7 140 -164 140
-180 0 -25 -6 -23 -64 21 -28 21 -64 46 -81 56 l-30 18 20 -20 c11 -11 74 -64
139 -118 104 -84 125 -107 162 -172 24 -41 85 -134 137 -206 52 -73 107 -152
122 -177 16 -25 47 -70 70 -100 23 -30 84 -118 135 -195 52 -77 108 -158 126
-180 45 -56 57 -88 38 -107 -13 -13 -24 -11 -92 12 -42 14 -106 34 -141 44
-36 10 -75 25 -87 33 -14 9 -23 10 -26 4 -7 -22 -438 141 -438 165 0 24 -46
46 -79 39 -39 -8 -136 34 -331 144 -113 63 -146 78 -148 65 -5 -19 -22 -7 144
-106 130 -78 140 -86 128 -103 -13 -17 -16 -18 -71 -2 -77 22 -178 47 -192 47
-16 0 -13 -30 4 -36 8 -4 15 -12 15 -19 0 -18 21 -24 43 -13 23 12 82 -5 307
-89 96 -36 233 -80 304 -99 123 -32 176 -54 129 -54 -45 0 -169 33 -181 48
-10 13 -16 14 -30 5 -14 -8 -47 -5 -137 13 -66 12 -142 26 -169 29 -35 5 -50
12 -53 25 -6 24 -32 34 -49 19 -10 -8 -32 -3 -90 21 -98 40 -107 33 -12 -9 40
-18 80 -39 88 -46 15 -13 31 -16 185 -40 191 -30 281 -46 315 -56 67 -20 66
-19 51 -28 -7 -5 9 -6 37 -3 27 2 87 -3 135 -13 47 -9 91 -14 96 -10 6 3 39
-3 74 -14 34 -11 99 -32 145 -46 45 -15 82 -30 82 -34 0 -8 -93 -51 -109 -51
-5 0 -22 -11 -38 -23 -15 -13 -44 -26 -63 -29 -20 -4 -82 -27 -138 -52 -57
-26 -137 -53 -178 -61 -41 -8 -79 -17 -84 -20 -14 -9 -22 13 -8 22 7 4 78 31
157 58 156 54 206 89 79 54 -161 -44 -796 -263 -813 -281 -7 -7 -4 -9 10 -5
11 3 56 15 100 27 44 12 151 46 238 76 159 54 197 63 197 44 0 -5 -53 -26
-117 -45 -65 -20 -122 -38 -128 -40 -5 -2 3 -4 19 -4 17 -1 89 16 160 38 72
21 158 43 192 50 33 6 106 29 163 52 103 40 167 49 79 11 -26 -12 -72 -37
-103 -56 -30 -20 -81 -49 -112 -65 -77 -39 -183 -114 -263 -187 -36 -32 -103
-85 -150 -116 -47 -31 -125 -88 -173 -127 -55 -45 -97 -71 -112 -71 -18 0 -26
-7 -31 -24 -15 -62 33 -61 112 2 72 58 205 150 257 177 21 11 78 49 127 85
167 122 235 167 336 224 86 48 108 56 152 56 67 0 92 11 144 62 46 47 108 82
121 69 4 -4 3 -40 -3 -79 -6 -39 -9 -75 -6 -80 3 -4 -9 -35 -25 -68 -44 -86
-87 -231 -86 -288 l0 -49 19 44 c10 24 16 33 13 19 -4 -14 -9 -47 -11 -75 -7
-71 10 -38 30 60 9 44 25 105 35 135 25 74 37 118 40 148 0 6 5 12 10 12 4 0
11 -42 15 -93 4 -50 13 -121 21 -157 8 -37 14 -115 13 -180 -1 -111 12 -293
33 -450 5 -41 9 -92 9 -113 0 -24 5 -40 15 -43 9 -4 15 -19 15 -35 0 -16 5
-29 11 -29 6 0 8 16 4 43 -10 75 -26 327 -32 517 l-5 185 39 -40 c66 -66 83
-77 83 -50 0 8 -28 41 -61 73 l-61 58 8 180 c5 98 6 204 3 234 -5 46 -3 58 12
73 11 10 19 28 19 41 0 24 18 37 53 41 20 2 37 22 37 42 0 8 17 4 48 -11 26
-14 103 -43 172 -65 69 -23 132 -46 140 -51 30 -20 -26 -10 -95 15 -78 30
-122 29 -60 0 22 -11 46 -25 53 -32 7 -7 18 -13 24 -13 10 0 255 -94 325 -125
18 -8 97 -35 175 -61 79 -25 147 -50 153 -55 5 -5 20 -9 32 -9 33 0 301 -100
456 -171 71 -32 124 -52 118 -45 -6 6 -8 22 -4 34 4 17 1 22 -15 22 -11 0 -22
-5 -24 -12 -3 -8 -47 9 -129 49 -68 34 -182 84 -254 113 -71 28 -138 59 -147
67 -10 9 -24 13 -32 10 -27 -11 -516 159 -524 181 -2 6 34 2 80 -9 46 -10 88
-19 93 -19 6 -1 1 -5 -10 -10 -19 -7 -18 -9 8 -19 35 -14 60 -14 52 -1 -8 14
-1 13 43 -6 64 -26 205 -72 245 -79 20 -3 87 -28 147 -55 60 -28 114 -50 120
-50 5 0 17 -11 26 -25 30 -46 84 -43 84 4 0 59 -54 92 -83 51 -14 -20 -17 -18
-158 48 -79 38 -175 79 -212 92 l-69 24 51 12 c48 10 107 41 98 50 -2 2 -17
-2 -32 -10 -19 -10 -59 -15 -117 -15 -74 0 -99 5 -159 30 -40 16 -80 29 -90
29 -27 0 -227 79 -242 95 -6 8 -18 21 -25 30 -9 10 -31 15 -68 15 -30 0 -71 7
-91 15 -19 8 -45 15 -57 15 -30 0 -48 14 -41 32 5 13 13 14 42 6 20 -5 51 -7
70 -3 19 3 33 3 30 -2 -8 -13 342 -7 391 6 33 9 186 11 608 7 355 -3 562 -1
559 5 -4 5 5 9 19 9 34 0 50 30 30 58 -19 27 -60 29 -73 4 -7 -14 -6 -25 4
-39 14 -20 13 -20 -103 -16 -64 2 -226 11 -359 19 -133 8 -304 15 -380 15
-116 1 -130 3 -88 11 28 5 95 20 150 33 182 44 221 48 348 42 124 -6 135 0 38
23 -73 17 -192 8 -321 -24 -142 -36 -141 -35 -134 -25 8 13 -5 11 -64 -11 -44
-17 -154 -29 -141 -15 3 2 29 11 59 19 30 8 106 28 168 45 62 17 126 30 142
29 16 -1 37 5 47 15 11 10 59 23 118 32 187 30 439 103 390 113 -11 2 -38 21
-60 41 -25 23 -81 54 -150 83 -196 83 -184 76 -154 77 24 1 224 -32 266 -44
10 -3 5 1 -12 9 -16 7 -86 26 -155 41 -69 14 -132 29 -140 32 -27 9 30 30 155
57 217 48 335 78 335 87 0 15 -37 11 -185 -20 -77 -15 -178 -34 -225 -41 -91
-13 -161 -43 -325 -135 -125 -71 -172 -96 -315 -164 -69 -33 -161 -80 -205
-104 -44 -24 -97 -49 -117 -56 -20 -7 -51 -28 -68 -48 -18 -20 -53 -50 -78
-67 -41 -28 -54 -31 -99 -28 -31 2 -53 9 -53 15 0 7 40 31 89 54 48 24 121 67
162 98 41 30 80 55 87 55 7 0 28 16 48 35 19 19 43 35 53 35 10 0 21 7 24 15
4 8 24 23 45 34 47 24 309 220 405 302 38 33 72 59 76 59 5 0 14 -7 21 -15 15
-18 42 -19 58 -3 16 16 15 38 -3 58 -17 19 -11 25 195 195 146 120 169 141
215 193 31 34 55 52 70 52 12 0 28 7 35 14 17 22 8 60 -15 64 -19 4 -19 3 -1
-10 28 -22 17 -53 -19 -53 -36 0 -47 31 -19 53 18 13 18 14 -1 10 -15 -2 -21
-12 -23 -41 -3 -39 -14 -49 -217 -197 -33 -25 -103 -80 -153 -122 -229 -194
-273 -230 -367 -302 -111 -85 -310 -226 -319 -226 -20 0 4 27 77 85 45 37 137
117 205 178 68 62 136 119 152 128 16 9 27 19 24 22 -10 10 248 217 271 217
25 0 45 17 45 40 1 20 97 94 102 78 3 -7 12 -9 22 -5 14 6 16 10 7 21 -10 11
-4 20 28 43 22 15 43 34 45 41 7 17 -62 -19 -154 -81 -40 -27 -87 -54 -102
-59 -15 -6 -28 -14 -28 -19 0 -4 -30 -33 -68 -63 -47 -38 -78 -55 -102 -58
-29 -2 -36 -8 -40 -30 -8 -42 -183 -187 -262 -217 -42 -16 -63 -20 -66 -12 -2
6 -10 11 -18 11 -8 0 -14 3 -14 7 0 4 33 56 74 117 40 61 78 126 85 145 14 42
15 138 1 146 -5 3 -10 -3 -10 -13 0 -11 -9 -22 -20 -25 -27 -7 -27 -47 1 -54
37 -10 11 -78 -76 -193 -23 -30 -61 -88 -84 -127 -28 -49 -52 -78 -74 -89 -18
-9 -47 -28 -66 -42 l-34 -26 31 46 c17 25 47 88 66 139 88 241 87 239 112 233
17 -4 24 -2 24 9 0 8 -7 18 -15 21 -14 5 -13 11 6 48 12 24 38 68 58 98 55 82
54 80 37 74 -25 -10 -186 -242 -186 -268 0 -25 -45 -106 -62 -112 -17 -5 -19
-12 -14 -43 4 -28 -1 -51 -23 -98 -37 -77 -121 -197 -203 -289 -35 -39 -76
-86 -93 -105 -16 -19 -35 -47 -43 -64 -16 -36 -141 -157 -155 -148 -6 3 -7 43
-3 102 4 53 7 123 7 156 -1 33 3 74 7 90 9 29 9 29 17 -18 4 -26 8 -76 10
-110 4 -127 5 -128 21 -77 8 25 15 74 15 110 1 36 5 70 9 75 12 17 19 55 9 55
-5 0 -9 -7 -9 -17 0 -9 -3 -13 -7 -9 -4 4 -9 77 -11 164 -4 215 -4 238 7 307
6 33 13 81 16 108 6 43 8 47 29 41 30 -7 54 20 39 44 -6 10 -20 17 -32 16 -24
-1 -25 13 -15 128 6 58 10 67 29 72 30 8 37 29 19 55 -26 37 -74 21 -74 -26 0
-12 -9 -45 -20 -73 -11 -28 -20 -63 -19 -78 1 -20 5 -15 16 23 35 122 49 124
33 4 -7 -46 -15 -133 -20 -192 -4 -60 -12 -113 -17 -118 -4 -4 -19 -3 -33 4
-23 11 -26 10 -37 -11 -17 -32 -16 -52 3 -73 14 -16 15 -32 5 -139 -6 -66 -9
-131 -6 -143 3 -12 -4 -49 -16 -82 -24 -65 -28 -102 -17 -152 4 -18 4 -33 0
-33 -15 0 -42 100 -42 156 0 33 -5 75 -10 94 -6 19 -12 76 -14 125 -2 70 -8
100 -25 133 -25 48 -39 52 -19 6 6 -16 13 -80 14 -144 1 -63 6 -132 12 -152 6
-21 7 -38 3 -38 -7 0 -43 107 -96 285 -15 50 -38 124 -51 165 -22 71 -33 100
-105 282 -25 62 -30 85 -24 118 6 35 3 45 -16 66 -12 13 -33 24 -46 24 -17 0
-24 7 -29 28 -10 47 -12 48 -13 5 -1 -46 -9 -73 -21 -73 -10 0 -40 86 -40 115
0 11 -4 25 -9 30 -5 6 -27 57 -49 115 -22 58 -52 130 -66 160 -23 51 -25 53
-25 24z m143 -369 c26 -77 81 -215 121 -306 79 -177 91 -217 99 -318 5 -72 -6
-66 -25 14 -6 27 -46 138 -89 245 -89 222 -147 391 -185 540 -28 108 18 6 79
-175z m151 -65 c13 -15 16 -28 11 -56 -7 -33 -9 -35 -34 -29 -51 13 -65 42
-42 86 14 24 42 24 65 -1z m574 -8 c12 -22 -3 -42 -31 -42 -24 0 -34 26 -18
45 17 20 37 19 49 -3z m-622 -82 c21 0 143 -313 128 -329 -2 -2 2 -13 10 -25
17 -23 20 -46 6 -46 -5 0 -24 37 -41 83 -17 45 -54 129 -82 186 -27 57 -54
117 -59 134 -8 28 -7 29 10 13 9 -9 22 -16 28 -16z m-285 -57 c26 -24 23 -69
-7 -89 -29 -19 -60 -11 -81 21 -13 19 -13 28 -3 47 22 42 59 50 91 21z m274
-153 c20 -52 47 -120 59 -150 13 -30 26 -73 29 -95 l7 -40 -19 35 c-11 19 -27
64 -36 99 -14 54 -39 112 -114 264 -2 5 5 3 17 -5 12 -7 35 -50 57 -108z m629
16 c0 -22 -14 -29 -34 -17 -19 12 -6 43 16 39 10 -2 18 -12 18 -22z m1319 -34
c-33 -31 -83 -76 -110 -98 -120 -102 -229 -198 -232 -204 -2 -4 7 -10 18 -13
16 -4 21 -12 18 -29 -4 -31 -47 -38 -55 -9 -6 25 -25 27 -44 5 -51 -62 -452
-354 -485 -354 -3 0 -18 -10 -34 -23 -41 -35 -189 -109 -201 -101 -6 3 -24 -4
-41 -16 -60 -44 -37 -10 44 67 145 138 190 178 303 268 61 49 155 130 210 180
55 50 118 106 140 125 30 25 39 40 36 58 -2 22 0 24 26 19 23 -4 41 5 100 49
40 30 76 62 81 71 10 17 82 46 82 32 0 -5 -4 -9 -9 -9 -5 0 -11 -12 -13 -27
-2 -23 -9 -29 -35 -33 -36 -5 -106 -61 -316 -250 -179 -160 -242 -215 -333
-290 -44 -36 -114 -95 -158 -132 -43 -38 -82 -68 -87 -68 -4 0 -14 -10 -20
-22 -12 -22 -12 -22 12 -5 13 9 49 30 80 46 31 17 70 41 86 55 17 14 34 26 38
26 8 0 115 77 189 136 28 22 85 66 126 97 41 31 114 89 162 129 226 188 461
374 478 377 3 0 -22 -25 -56 -57z m-650 -23 c-8 -14 -34 -11 -34 4 0 8 3 17 7
20 9 9 34 -13 27 -24z m-786 -173 c-4 -28 -35 -33 -43 -6 -9 29 12 55 32 38 8
-6 13 -21 11 -32z m-529 -121 c64 -86 188 -281 173 -271 -5 3 -50 65 -100 138
-51 73 -118 169 -149 213 -67 97 -18 45 76 -80z m258 20 c17 -55 54 -172 82
-259 45 -138 50 -161 36 -168 -8 -5 -15 -21 -15 -35 0 -46 -17 -14 -61 117
-31 93 -42 143 -44 195 -2 97 -29 183 -60 197 -27 12 -32 27 -13 46 27 27 43
7 75 -93z m809 50 c4 -8 0 -22 -7 -31 -11 -13 -14 -13 -27 0 -17 17 -9 46 13
46 9 0 18 -7 21 -15z m-41 -117 c-22 -67 -193 -312 -250 -358 -20 -16 22 46
135 199 38 52 81 123 97 157 15 34 30 60 32 59 1 -2 -5 -28 -14 -57z m-845 9
c0 -16 -18 3 -23 25 -6 22 -5 22 8 4 8 -11 15 -24 15 -29z m364 -16 c3 -4 3
-11 0 -14 -8 -8 -34 3 -34 14 0 11 27 12 34 0z m616 -31 c-24 -16 -31 -11 -19
11 8 16 14 18 22 10 9 -9 8 -14 -3 -21z m75 -16 c-81 -73 -155 -125 -167 -118
-6 4 -8 3 -4 -4 3 -6 -80 -87 -195 -189 -197 -174 -242 -210 -203 -162 116
147 179 222 190 226 7 2 15 14 18 27 5 22 100 106 119 106 6 0 -7 -19 -29 -42
-22 -24 -46 -52 -53 -63 -8 -11 11 6 40 38 34 37 62 57 76 57 16 0 22 7 25 28
3 24 16 33 108 79 58 28 107 52 110 52 3 0 -13 -16 -35 -35z m-985 -124 c44
-142 43 -139 24 -106 -16 29 -84 221 -84 241 0 28 31 -43 60 -135z m-168 45
c9 -17 9 -18 -3 -8 -8 6 -22 26 -32 45 l-19 33 21 -25 c12 -14 27 -34 33 -45z
m1727 8 c-55 -16 -91 -49 -69 -63 10 -6 3 -12 -25 -24 -20 -9 -41 -16 -46 -16
-4 0 -36 -17 -71 -39 -35 -21 -96 -57 -135 -80 -71 -40 -84 -56 -63 -77 12
-12 -4 -39 -19 -30 -6 4 -11 14 -11 22 0 26 -39 15 -163 -45 -181 -87 -285
-127 -299 -113 -7 7 -10 14 -7 16 2 2 52 27 112 54 59 28 107 56 107 62 0 6
64 43 143 81 78 38 180 91 227 118 174 102 271 146 319 147 l46 1 -46 -14z
m-1262 -65 c-2 -13 -4 -3 -4 22 0 25 2 35 4 23 2 -13 2 -33 0 -45z m487 31
c-3 -5 -10 -7 -15 -3 -5 3 -7 10 -3 15 3 5 10 7 15 3 5 -3 7 -10 3 -15z m-544
-110 c-7 -21 -10 -55 -7 -75 6 -34 5 -36 -7 -18 -21 29 -21 43 0 114 14 47 20
58 22 41 2 -14 -2 -42 -8 -62z m1337 22 c32 -16 102 -49 157 -72 99 -43 164
-86 149 -99 -11 -11 -166 -45 -313 -69 -69 -12 -135 -24 -146 -27 -12 -3 -25
-1 -28 5 -7 11 -37 3 -48 -13 -4 -6 -24 -15 -45 -21 -34 -10 -39 -9 -48 10 -6
11 -19 20 -30 20 -15 0 -20 -7 -20 -28 1 -25 -4 -28 -80 -51 -155 -45 -201
-55 -275 -59 -89 -5 -103 -2 -90 21 5 9 11 25 14 35 3 10 68 47 163 94 156 76
157 76 171 55 17 -26 35 -28 53 -6 10 12 10 20 1 35 -14 21 -11 24 158 120
154 89 173 93 257 50z m-1567 -75 c0 -6 -7 -2 -15 8 -8 11 -15 25 -15 30 0 6
7 2 15 -8 8 -11 15 -25 15 -30z m-950 8 c0 -2 -9 0 -20 6 -11 6 -20 13 -20 16
0 2 9 0 20 -6 11 -6 20 -13 20 -16z m1010 -69 c0 -5 -5 -3 -10 5 -5 8 -10 20
-10 25 0 6 5 3 10 -5 5 -8 10 -19 10 -25z m-940 -5 c0 -13 -7 -20 -20 -20 -13
0 -20 7 -20 20 0 13 7 20 20 20 13 0 20 -7 20 -20z m-63 -22 c86 -32 56 -31
-43 2 -52 17 -73 27 -50 24 22 -3 64 -15 93 -26z m265 15 c24 -21 23 -45 -2
-68 -29 -26 -70 -7 -70 33 0 49 37 67 72 35z m-132 -9 c26 -11 40 -22 40 -35
0 -17 -3 -17 -41 -4 -54 19 -59 23 -52 40 6 18 4 18 53 -1z m15 -64 c13 -6 15
-9 5 -9 -8 0 -22 4 -30 9 -18 12 -2 12 25 0z m190 -25 c28 -13 43 -24 34 -24
-27 -2 -109 30 -103 40 7 12 12 11 69 -16z m814 7 c6 -11 6 -24 0 -33 -7 -11
-9 -10 -9 7 0 11 -5 25 -12 32 -9 9 -9 12 0 12 6 0 16 -8 21 -18z m-745 -57
c65 -19 121 -37 125 -41 22 -24 -257 47 -299 77 -22 15 31 4 174 -36z m1067 5
c-22 -19 -41 -26 -41 -15 0 5 51 34 60 34 3 0 -6 -9 -19 -19z m705 9 c10 -17
-13 -36 -27 -22 -12 12 -4 33 11 33 5 0 12 -5 16 -11z m152 -12 c2 -10 -3 -17
-12 -17 -18 0 -29 16 -21 31 9 14 29 6 33 -14z m-1578 -94 c69 -23 105 -41 97
-49 -6 -6 -168 42 -222 65 l-50 21 50 -6 c28 -3 84 -17 125 -31z m890 12 c-7
-9 -15 -13 -19 -10 -3 3 1 10 9 15 21 14 24 12 10 -5z m27 -15 c-4 -15 1 -22
19 -26 30 -8 22 -24 -12 -24 -37 0 -29 -20 9 -21 29 -1 27 -2 -18 -15 -34 -10
-72 -13 -117 -9 -41 4 -83 1 -107 -6 -32 -9 -50 -9 -86 1 -25 7 -45 16 -45 20
0 3 24 7 53 7 28 0 99 6 157 14 80 11 105 18 105 29 0 13 32 49 44 50 2 0 1
-9 -2 -20z m-982 -20 c18 -8 18 -9 -5 -8 -14 0 -36 4 -50 8 -24 8 -24 8 5 8
17 0 39 -3 50 -8z m535 1 c0 -3 -4 -12 -9 -20 -8 -12 -12 -12 -25 2 -22 21
-20 25 9 25 14 0 25 -3 25 -7z m313 -18 c-7 -2 -19 -2 -25 0 -7 3 -2 5 12 5
14 0 19 -2 13 -5z m1505 -2 c21 -13 10 -46 -16 -49 -24 -4 -38 18 -28 43 6 17
24 19 44 6z m-2083 -31 c4 -7 -3 -8 -22 -4 -38 9 -42 14 -10 14 14 0 29 -5 32
-10z m100 -20 c-5 -8 -11 -8 -21 1 -12 10 -12 14 -2 20 16 10 33 -5 23 -21z
m1210 10 c36 -4 -53 -7 -225 -7 -157 0 -267 3 -245 7 53 10 394 10 470 0z
m-1181 -69 c8 -13 -11 -61 -24 -61 -11 0 -13 30 -4 54 7 18 20 21 28 7z m96
-19 c0 -10 -6 -24 -12 -31 -11 -10 -9 -11 7 -5 11 4 27 13 36 21 13 11 18 11
27 0 16 -18 4 -53 -23 -71 -15 -10 -22 -22 -18 -35 6 -23 -16 -39 -28 -20 -5
8 -12 26 -15 41 -6 28 -41 45 -58 28 -14 -14 -26 -12 -26 4 0 7 14 16 30 20
20 3 37 16 48 36 19 34 32 39 32 12z m-130 -56 c0 -7 -26 -25 -57 -39 -32 -14
-76 -43 -98 -66 -21 -23 -43 -41 -48 -41 -5 0 12 20 37 45 25 24 46 49 46 55
0 6 20 20 45 31 24 11 47 24 50 29 8 13 25 3 25 -14z m625 -66 c77 -32 158
-61 180 -65 22 -3 65 -20 95 -36 54 -29 47 -30 -40 -3 -25 7 -79 22 -120 32
-41 11 -100 30 -130 42 -30 13 -81 34 -114 47 -32 13 -68 30 -80 39 -44 32 66
3 209 -56z m-551 -45 c-1 -17 -5 -51 -9 -78 -6 -38 -4 -51 9 -66 22 -24 7 -35
-28 -21 -19 7 -27 17 -28 37 -3 50 4 108 15 128 6 11 10 24 9 28 -1 5 5 7 15
5 13 -2 18 -12 17 -33z m33 -7 c-3 -7 -5 -2 -5 12 0 14 2 19 5 13 2 -7 2 -19
0 -25z m-16 -69 c-6 -24 -9 -28 -10 -12 -1 24 9 56 16 50 2 -3 0 -20 -6 -38z
m-433 6 c-3 -3 -58 -32 -123 -65 -129 -65 -166 -76 -125 -36 38 37 180 106
219 106 19 0 32 -2 29 -5z m421 -157 c-1 -37 -2 -39 -9 -18 -12 36 -12 60 0
60 6 0 10 -19 9 -42z m-103 -39 c-12 -29 -14 -30 -15 -11 -1 24 22 69 27 53 2
-5 -4 -24 -12 -42z m1544 7 c16 -20 9 -60 -12 -64 -22 -4 -38 27 -27 56 10 26
22 28 39 8z m-1568 -88 c-8 -8 -9 -4 -5 13 4 13 8 18 11 10 2 -7 -1 -18 -6
-23z"/>
<path d="M2617 2024 c-14 -15 -6 -34 14 -34 14 0 19 5 17 17 -3 18 -20 27 -31
17z"/>
<path d="M1627 3442 c-10 -10 -17 -27 -17 -38 0 -24 27 -64 43 -63 8 0 8 2 -1
6 -7 3 -18 16 -23 30 -13 34 11 70 48 76 28 4 28 4 -3 6 -19 0 -37 -6 -47 -17z"/>
<path d="M1768 3450 c-13 -8 -15 -16 -7 -43 15 -54 71 -76 100 -40 13 15 12
15 -7 3 -27 -16 -71 -6 -79 19 -19 62 71 85 94 23 6 -17 10 -21 10 -9 2 42
-67 72 -111 47z"/>
<path d="M1718 3440 c6 -8 12 -29 12 -47 0 -29 -5 -36 -32 -48 -20 -9 -26 -14
-15 -15 23 0 67 44 67 68 0 10 -10 27 -22 38 -13 10 -17 12 -10 4z"/>
<path d="M2436 3414 c-35 -34 -9 -86 41 -83 10 0 3 5 -15 10 -28 8 -33 14 -30
36 7 59 73 55 73 -5 0 -16 3 -28 7 -25 14 8 9 51 -8 67 -8 9 -24 16 -34 16
-10 0 -26 -7 -34 -16z"/>
<path d="M2162 3397 c-27 -29 -29 -78 -4 -100 10 -10 23 -17 28 -17 4 0 -2 7
-14 16 -15 10 -22 25 -22 49 0 69 87 85 118 22 17 -34 2 -64 -41 -82 -20 -9
-25 -14 -14 -15 23 0 77 53 77 75 0 25 -55 75 -82 75 -14 0 -34 -10 -46 -23z"/>
<path d="M3523 3394 c-10 -26 11 -49 43 -49 23 0 30 5 32 24 2 13 -2 28 -10
32 -22 14 -58 10 -65 -7z m62 -19 c0 -22 -31 -33 -47 -17 -17 17 -1 44 24 40
15 -2 23 -10 23 -23z"/>
<path d="M244 3390 c-28 -11 -37 -26 -29 -49 7 -23 51 -44 76 -36 36 12 33 85
-3 85 -5 0 -2 -7 6 -16 20 -19 20 -38 1 -54 -19 -16 -52 -4 -61 22 -5 15 0 26
17 39 26 20 25 22 -7 9z"/>
<path d="M2918 3349 c-10 -5 -18 -15 -18 -20 0 -6 7 -3 16 5 31 32 84 14 84
-29 0 -43 -47 -60 -82 -28 -22 20 -24 11 -2 -11 35 -36 94 -6 94 47 0 40 -51
60 -92 36z"/>
<path d="M901 3335 c-1 -30 55 -235 68 -248 8 -8 11 -4 11 14 0 30 -78 262
-79 234z"/>
<path d="M1490 3320 c-8 -15 -6 -24 10 -40 11 -11 24 -20 28 -20 18 0 44 28
39 41 -4 11 -6 10 -6 -2 -1 -9 -8 -19 -16 -23 -25 -9 -46 5 -43 28 2 15 10 21
30 21 14 -1 24 3 22 7 -10 16 -53 8 -64 -12z"/>
<path d="M3286 3327 c-11 -8 -17 -23 -14 -38 3 -21 8 -24 42 -25 30 0 41 -5
47 -22 16 -42 92 -58 121 -24 32 35 31 60 -1 92 -37 38 -65 38 -101 1 -27 -27
-29 -27 -32 -8 -2 11 -10 22 -18 24 -12 4 -12 3 -2 -5 23 -16 10 -47 -21 -50
-22 -3 -27 1 -27 19 0 12 8 28 18 35 22 17 11 18 -12 1z m182 -13 c15 -10 22
-25 22 -48 0 -40 -15 -56 -55 -56 -64 0 -92 54 -51 95 29 29 52 31 84 9z"/>
<path d="M1913 3279 c-27 -10 -38 -42 -23 -69 15 -28 22 -25 8 5 -14 32 5 57
40 53 54 -6 54 -64 1 -79 -21 -6 -22 -7 -3 -8 11 -1 29 8 39 19 36 40 -10 99
-62 79z"/>
<path d="M2546 3243 c-13 -14 -5 -33 14 -33 11 0 20 6 20 14 0 15 -24 28 -34
19z"/>
<path d="M3594 3225 c-15 -23 -15 -27 0 -49 21 -33 52 -41 81 -22 54 35 34 96
-31 96 -25 0 -38 -7 -50 -25z m84 3 c36 -36 -11 -93 -57 -69 -20 11 -30 59
-14 74 11 11 58 8 71 -5z"/>
<path d="M2928 3229 c-10 -5 -18 -15 -18 -21 0 -6 9 -3 20 7 42 38 105 -18 70
-61 -20 -23 -56 -17 -79 14 -15 19 -19 22 -15 7 15 -45 68 -60 97 -27 46 50
-16 116 -75 81z"/>
<path d="M2350 3200 c-18 -11 -4 -42 17 -38 10 2 19 10 21 19 4 19 -19 31 -38
19z m30 -21 c0 -5 -7 -9 -15 -9 -15 0 -20 12 -9 23 8 8 24 -1 24 -14z"/>
<path d="M1720 3186 c-15 -19 -9 -56 11 -69 23 -14 67 0 74 24 14 43 -56 79
-85 45z m71 -12 c17 -21 0 -48 -34 -52 -21 -3 -28 2 -33 22 -3 14 -3 30 1 35
10 16 51 13 66 -5z"/>
<path d="M1287 3162 c-22 -24 -21 -45 1 -65 25 -23 57 -21 82 5 11 12 20 16
20 10 0 -7 11 -17 25 -24 19 -9 29 -8 50 6 14 9 25 25 25 35 0 42 -73 69 -100
36 -11 -13 -15 -13 -33 0 -29 20 -50 19 -70 -3z m64 -2 c21 -12 25 -40 7 -58
-36 -36 -96 11 -62 49 20 22 28 23 55 9z m117 -2 c20 -20 14 -48 -13 -60 -22
-10 -29 -9 -46 9 -17 17 -19 24 -10 42 13 23 50 28 69 9z"/>
<path d="M38 3120 c18 -21 15 -67 -6 -79 -9 -6 -12 -11 -6 -11 34 -1 47 68 17
91 -15 11 -16 11 -5 -1z"/>
<path d="M2328 3119 c-30 -17 -17 -80 17 -79 5 0 2 5 -7 11 -39 22 -8 81 31
59 26 -13 27 -45 4 -60 -17 -11 -17 -11 0 -6 10 3 21 6 23 6 2 0 4 13 4 28 0
21 -7 32 -25 40 -30 14 -26 14 -47 1z"/>
<path d="M2050 3100 c-11 -11 -20 -29 -20 -39 0 -20 43 -61 64 -61 6 0 -4 9
-21 20 -18 11 -33 28 -33 38 0 22 30 52 53 52 41 0 64 -69 30 -89 -10 -6 -13
-11 -7 -11 17 0 34 23 34 47 0 28 -33 63 -60 63 -11 0 -29 -9 -40 -20z"/>
<path d="M3692 3108 c-17 -17 -15 -43 5 -59 15 -13 15 -12 3 8 -17 27 0 53 36
53 44 0 39 -69 -5 -71 -11 0 -12 -2 -3 -6 16 -6 62 23 62 41 0 36 -71 61 -98
34z"/>
<path d="M2962 3084 c-45 -32 -17 -104 41 -104 30 0 67 31 67 55 0 22 -45 65
-67 65 -10 0 -29 -7 -41 -16z m78 -14 c11 -11 20 -25 20 -32 0 -21 -33 -48
-60 -48 -33 0 -50 17 -50 52 0 46 54 64 90 28z"/>
<path d="M3144 3085 c-8 -21 4 -35 31 -35 26 0 39 22 22 39 -16 16 -47 14 -53
-4z m46 -10 c0 -8 -6 -15 -14 -15 -17 0 -28 14 -19 24 12 12 33 6 33 -9z"/>
<path d="M131 3081 c-24 -15 12 -59 51 -63 26 -2 45 -18 105 -87 61 -71 71
-88 66 -112 -4 -21 0 -31 20 -43 13 -9 30 -15 37 -14 7 2 51 -47 99 -108 47
-62 130 -163 184 -225 97 -112 97 -112 77 -131 -25 -23 -26 -60 -2 -81 23 -21
41 -21 69 -2 20 14 23 12 70 -49 162 -212 338 -420 372 -440 12 -8 12 -4 -3
20 -40 60 -158 216 -267 351 -63 77 -143 178 -179 224 -36 46 -101 125 -145
174 -127 142 -242 289 -237 303 5 17 -16 42 -46 53 -13 5 -26 18 -29 29 -3 11
-10 20 -17 20 -16 0 -146 134 -146 151 0 33 -46 51 -79 30z m65 -40 c-9 -14
-33 -14 -41 -1 -4 6 -1 18 6 26 11 13 14 13 27 0 8 -8 11 -19 8 -25z m234
-220 c14 -28 -13 -55 -41 -41 -22 12 -25 30 -7 48 18 18 36 15 48 -7z m410
-536 c13 -16 6 -47 -16 -66 -37 -30 -86 35 -52 69 16 16 53 15 68 -3z m291
-367 c19 -24 26 -37 16 -29 -20 16 -61 71 -54 71 3 0 20 -19 38 -42z"/>
<path d="M1486 3072 c-3 -5 5 -8 17 -8 13 1 22 -5 22 -14 0 -9 -9 -15 -23 -14
-14 0 -19 -3 -13 -9 17 -17 46 -3 46 23 0 18 -6 26 -22 28 -11 2 -24 -1 -27
-6z"/>
<path d="M2212 3019 c-18 -34 -60 -99 -94 -146 -56 -77 -63 -83 -88 -78 -48
10 -81 -45 -45 -75 22 -18 11 -24 -14 -8 -23 14 -51 3 -59 -23 -2 -8 2 -6 10
5 22 28 60 13 56 -22 -4 -32 -29 -40 -52 -17 -9 9 -16 12 -16 5 0 -6 11 -15
24 -21 l24 -11 -61 -97 c-33 -53 -74 -118 -92 -146 -17 -27 -44 -84 -59 -125
-15 -41 -54 -126 -87 -187 -54 -104 -117 -245 -103 -230 4 4 24 34 44 68 29
46 39 56 43 43 2 -13 25 25 65 108 47 97 68 130 89 140 26 13 28 18 25 65 -3
56 27 139 53 149 8 4 15 15 15 26 0 12 17 48 39 82 21 34 52 89 69 122 17 34
38 64 47 67 8 4 15 11 15 17 0 6 -7 4 -16 -4 -18 -19 -20 -19 -45 -6 -21 12
-25 40 -7 58 17 17 35 15 56 -9 17 -17 20 -18 25 -4 4 8 24 39 46 68 38 50
136 235 128 243 -2 2 -18 -24 -35 -57z m-399 -761 c15 -23 1 -48 -28 -48 -21
0 -25 5 -25 29 0 41 32 52 53 19z"/>
<path d="M1852 3058 c-27 -27 3 -89 43 -88 5 1 -3 8 -18 16 -22 12 -28 21 -25
42 2 22 9 28 33 30 19 3 33 -2 42 -14 7 -10 13 -13 13 -8 0 18 -24 34 -50 34
-14 0 -31 -5 -38 -12z"/>
<path d="M1700 3025 c-16 -19 -6 -45 18 -45 31 0 46 25 27 44 -20 20 -29 20
-45 1z m40 -10 c10 -12 9 -16 -5 -21 -19 -8 -40 9 -31 25 10 15 21 14 36 -4z"/>
<path d="M1922 3000 c-7 -11 -8 -20 -3 -20 9 0 24 30 18 36 -1 2 -8 -6 -15
-16z"/>
<path d="M2373 2973 c-14 -5 -18 -39 -5 -47 5 -3 8 5 8 17 -1 16 5 22 19 22
14 0 20 -6 19 -23 0 -16 2 -20 10 -12 22 22 -19 57 -51 43z"/>
<path d="M3419 2964 c-9 -11 -10 -20 -2 -32 14 -22 53 -22 67 1 9 15 7 21 -8
33 -25 18 -40 18 -57 -2z m48 -5 c16 -16 5 -39 -17 -39 -23 0 -34 16 -26 35 6
18 28 19 43 4z"/>
<path d="M1632 2958 c-17 -17 -15 -43 6 -59 15 -13 16 -12 4 3 -19 24 -6 58
22 58 49 0 59 -51 14 -70 -15 -5 -17 -9 -7 -9 17 -1 49 29 49 46 0 16 -35 43
-56 43 -11 0 -25 -5 -32 -12z"/>
<path d="M1172 2948 c-28 -28 1 -68 49 -68 25 0 29 4 29 28 0 33 -16 52 -45
52 -12 0 -26 -5 -33 -12z m66 -30 c3 -24 0 -28 -22 -28 -30 0 -51 31 -33 49
21 21 52 9 55 -21z"/>
<path d="M3680 2940 c-11 -11 -20 -26 -20 -34 0 -18 39 -66 53 -66 7 0 4 5 -5
11 -52 30 -37 99 22 99 56 0 82 -64 38 -94 -12 -9 -18 -16 -12 -16 19 0 44 36
44 63 0 51 -81 76 -120 37z"/>
<path d="M3330 2890 c-11 -11 -20 -31 -20 -43 0 -23 27 -57 46 -57 4 0 -2 7
-14 16 -27 18 -29 55 -4 77 39 36 92 13 92 -39 0 -30 -5 -37 -32 -49 -18 -8
-26 -14 -17 -15 29 0 62 34 62 65 0 56 -73 85 -113 45z"/>
<path d="M2752 2878 c-30 -30 -2 -72 45 -66 21 2 29 9 31 27 6 40 -48 67 -76
39z m58 -13 c18 -21 5 -45 -25 -45 -14 0 -28 7 -31 15 -7 17 12 45 31 45 7 0
18 -7 25 -15z"/>
<path d="M1834 2865 c-8 -20 4 -35 26 -35 25 0 35 17 20 35 -16 19 -39 19 -46
0z m39 -10 c1 -5 -6 -11 -15 -13 -11 -2 -18 3 -18 13 0 17 30 18 33 0z"/>
<path d="M2306 2865 c-17 -18 -30 -54 -22 -62 3 -4 6 1 6 11 0 13 4 15 19 6
11 -5 27 -7 35 -4 17 7 22 39 7 48 -5 4 -7 -2 -4 -13 6 -24 -13 -36 -33 -20
-13 10 -12 14 2 30 20 23 12 26 -10 4z"/>
<path d="M2577 2773 c-4 -3 -7 -12 -7 -20 0 -15 26 -18 34 -4 7 11 -18 33 -27
24z"/>
<path d="M3238 2749 c-28 -16 -23 -57 7 -65 38 -9 57 2 53 33 -2 14 -10 29
-18 31 -13 5 -13 3 -1 -11 19 -23 6 -49 -21 -45 -29 4 -35 35 -11 53 21 17 16
19 -9 4z"/>
<path d="M1371 2733 c-51 -35 -2 -120 54 -95 32 15 43 57 21 81 -24 26 -51 31
-75 14z m70 -19 c16 -19 3 -61 -22 -69 -23 -8 -59 19 -59 43 0 42 53 59 81 26z"/>
<path d="M817 2726 c-8 -20 19 -47 39 -39 22 8 13 47 -12 51 -12 2 -24 -4 -27
-12z m43 -11 c0 -8 -7 -15 -15 -15 -8 0 -15 7 -15 15 0 8 7 15 15 15 8 0 15
-7 15 -15z"/>
<path d="M1775 2700 c-37 -41 24 -97 63 -58 18 18 14 56 -7 68 -27 14 -35 13
-56 -10z m53 1 c8 -4 12 -19 10 -32 -4 -30 -45 -33 -62 -6 -9 15 -7 21 8 33
23 16 26 17 44 5z"/>
<path d="M3481 2654 c-26 -33 -26 -36 0 -65 l20 -24 -15 25 c-23 39 -2 75 44
75 69 0 72 -81 4 -96 l-29 -7 28 -1 c31 -1 67 30 67 57 0 26 -42 62 -72 62
-17 0 -34 -10 -47 -26z"/>
<path d="M3298 2659 c-21 -12 -24 -59 -6 -77 7 -7 27 -12 45 -12 43 0 61 31
38 66 -8 13 -18 24 -21 24 -4 0 -1 -7 6 -14 6 -8 10 -25 8 -38 -2 -19 -9 -23
-38 -23 -32 0 -35 2 -35 30 0 21 7 33 25 42 14 7 18 13 10 13 -8 -1 -23 -5
-32 -11z"/>
<path d="M1595 2630 c-10 -17 20 -44 40 -36 9 3 15 14 13 23 -4 21 -43 30 -53
13z m43 -12 c-3 -7 -11 -13 -18 -13 -7 0 -15 6 -17 13 -3 7 4 12 17 12 13 0
20 -5 18 -12z"/>
<path d="M202 2594 c-16 -11 -22 -24 -20 -42 2 -22 10 -29 40 -36 31 -8 41 -6
58 9 25 23 26 47 2 68 -23 21 -51 22 -80 1z m78 -13 c18 -36 -11 -68 -50 -56
-42 13 -29 75 15 75 14 0 29 -8 35 -19z"/>
<path d="M3876 2578 c-9 -12 -13 -31 -10 -43 4 -15 0 -24 -10 -28 -38 -15 -7
-79 36 -76 7 0 0 5 -15 11 -36 13 -34 49 3 58 17 4 21 8 12 14 -15 9 -16 58 0
74 7 7 9 12 6 12 -4 0 -14 -10 -22 -22z"/>
<path d="M3635 2560 c-15 -16 -17 -26 -9 -47 5 -14 16 -29 24 -31 12 -4 11 -1
-2 15 -21 23 -23 44 -6 61 26 26 88 3 88 -33 0 -7 -7 -21 -16 -29 -8 -9 -12
-16 -7 -16 36 0 43 62 11 84 -31 22 -61 20 -83 -4z"/>
<path d="M2372 2518 c4 -31 53 -34 53 -3 0 15 -8 21 -28 23 -25 3 -28 0 -25
-20z m48 -3 c0 -8 -9 -15 -20 -15 -11 0 -20 7 -20 15 0 8 9 15 20 15 11 0 20
-7 20 -15z"/>
<path d="M1942 2513 c2 -10 14 -19 26 -21 19 -3 23 1 20 15 -2 10 -14 19 -26
21 -19 3 -23 -1 -20 -15z m38 -3 c0 -5 -7 -10 -15 -10 -8 0 -15 5 -15 10 0 6
7 10 15 10 8 0 15 -4 15 -10z"/>
<path d="M2910 2425 c-25 -30 14 -74 53 -59 23 8 27 29 11 53 -17 24 -46 27
-64 6z m58 -23 c4 -28 -24 -40 -45 -19 -21 21 -9 49 19 45 15 -2 24 -11 26
-26z"/>
<path d="M3470 2420 c-24 -24 -25 -32 -2 -57 9 -10 13 -13 9 -7 -15 22 -3 58
23 71 18 9 20 13 8 13 -10 0 -27 -9 -38 -20z"/>
<path d="M3544 2414 c9 -8 16 -22 16 -29 0 -19 -28 -45 -48 -46 -9 0 -12 -3
-6 -5 22 -9 64 15 64 36 0 27 -17 60 -31 60 -6 0 -3 -7 5 -16z"/>
<path d="M3720 2402 c-27 -22 -30 -67 -6 -90 16 -16 16 -15 2 12 -18 36 -8 68
27 80 43 15 77 -6 77 -48 0 -39 -13 -52 -55 -59 l-30 -4 33 -2 c43 -2 76 31
67 67 -13 56 -72 79 -115 44z"/>
<path d="M321 2386 c-35 -37 -23 -72 30 -88 40 -11 43 -11 66 16 24 28 24 54
1 84 -18 21 -72 14 -97 -12z m99 -12 c18 -47 -26 -88 -69 -65 -49 27 -32 91
25 91 28 0 36 -5 44 -26z"/>
<path d="M2774 2375 c-15 -23 -15 -27 0 -50 28 -43 96 -26 96 23 0 35 -17 52
-52 52 -18 0 -33 -8 -44 -25z m84 -13 c4 -30 -14 -52 -44 -52 -31 0 -49 32
-34 61 16 30 74 23 78 -9z"/>
<path d="M3300 2335 c-17 -20 3 -45 37 -45 31 0 42 29 18 46 -24 18 -40 18
-55 -1z m48 -18 c2 -12 -3 -17 -17 -17 -15 0 -21 6 -21 21 0 25 33 22 38 -4z"/>
<path d="M518 2325 c6 -11 37 -42 68 -70 99 -85 207 -185 246 -227 40 -43 71
-47 76 -10 4 26 -23 40 -47 25 -13 -9 -31 4 -97 66 -145 137 -257 235 -246
216z m372 -305 c0 -11 -4 -20 -9 -20 -14 0 -23 18 -16 30 10 17 25 11 25 -10z"/>
<path d="M3884 2329 c-3 -6 -2 -15 3 -20 5 -5 9 -1 9 11 0 23 -2 24 -12 9z"/>
<path d="M3841 2266 c-22 -26 10 -63 44 -50 20 8 19 50 -1 58 -23 9 -30 8 -43
-8z m47 -19 c2 -11 -3 -17 -16 -17 -24 0 -32 8 -25 26 7 20 37 13 41 -9z"/>
<path d="M3263 2229 c-26 -26 22 -68 57 -49 25 14 26 36 1 50 -25 13 -44 13
-58 -1z m55 -22 c3 -14 -1 -18 -20 -15 -12 2 -24 11 -26 21 -3 14 1 18 20 15
12 -2 24 -11 26 -21z"/>
<path d="M450 2227 c0 -2 11 -18 25 -37 14 -18 23 -35 21 -37 -2 -2 -20 3 -40
11 -20 8 -36 13 -36 11 0 -7 134 -75 148 -75 8 0 12 -6 9 -13 -3 -8 5 -14 23
-15 15 -1 53 -14 85 -28 72 -33 84 -24 15 11 -35 18 -50 31 -46 40 5 14 -18
45 -34 45 -5 0 -16 -7 -24 -16 -24 -23 -50 -9 -88 46 -27 40 -58 70 -58 57z
m190 -122 c0 -19 -20 -29 -32 -17 -15 15 -2 43 17 36 8 -3 15 -12 15 -19z"/>
<path d="M1595 2222 c-17 -12 -45 -72 -45 -95 0 -21 1 -21 20 3 18 22 43 90
37 96 -1 2 -7 0 -12 -4z"/>
<path d="M135 2200 c-13 -14 -25 -18 -44 -14 -21 5 -19 1 14 -20 22 -14 47
-26 55 -26 53 -1 472 -140 485 -160 3 -5 -4 -25 -16 -44 -19 -32 -19 -37 -5
-42 9 -3 31 -4 49 -1 18 2 45 -2 61 -10 30 -15 30 -15 -7 28 -20 23 -35 44
-32 47 2 2 71 -31 152 -75 162 -87 249 -126 223 -99 -23 24 -378 205 -445 228
-33 11 -91 33 -130 50 -38 16 -99 36 -135 44 -127 29 -160 43 -160 69 0 14 -9
29 -19 35 -26 13 -25 13 -46 -10z m51 -11 c3 -6 0 -17 -7 -25 -18 -17 -44 -2
-36 20 7 18 33 21 43 5z m502 -262 c2 -12 -3 -17 -17 -17 -15 0 -21 6 -21 21
0 25 33 22 38 -4z"/>
<path d="M3079 2185 c-31 -8 -103 -19 -160 -25 -56 -5 -105 -13 -108 -16 -3
-4 50 -4 119 -1 95 4 143 11 200 30 63 21 69 25 40 25 -19 0 -60 -6 -91 -13z"/>
<path d="M3630 2030 c-11 -11 -20 -26 -20 -34 0 -21 40 -66 58 -66 12 0 10 4
-7 13 -33 17 -43 49 -25 76 16 23 44 27 75 11 27 -15 25 -64 -3 -84 -18 -13
-19 -16 -6 -16 18 0 48 36 48 58 0 22 -48 62 -75 62 -14 0 -34 -9 -45 -20z"/>
<path d="M770 2009 c8 -5 62 -34 120 -64 72 -37 120 -69 155 -104 53 -55 88
-72 39 -19 l-29 32 30 -19 c17 -10 47 -30 68 -43 20 -14 40 -23 42 -20 9 9
-99 88 -184 134 -47 26 -88 51 -89 56 -2 4 -7 6 -12 3 -4 -3 -38 8 -75 25 -69
31 -92 38 -65 19z"/>
<path d="M3405 1924 c-21 -21 -16 -42 16 -66 20 -15 30 -17 52 -9 34 13 37 53
5 75 -29 20 -52 20 -73 0z m69 -10 c21 -21 20 -30 -6 -48 -15 -11 -26 -12 -40
-5 -17 9 -25 49 -11 62 11 12 41 7 57 -9z"/>
<path d="M800 1820 c8 -5 20 -10 25 -10 6 0 3 5 -5 10 -8 5 -19 10 -25 10 -5
0 -3 -5 5 -10z"/>
<path d="M855 1820 c3 -5 0 -10 -7 -12 -12 -4 77 -42 122 -52 16 -4 12 1 -13
13 -21 10 -43 25 -50 33 -12 16 -61 32 -52 18z"/>
<path d="M3453 1793 c-7 -2 -13 -15 -13 -29 0 -17 7 -25 24 -30 44 -11 62 19
30 50 -16 17 -21 18 -41 9z m34 -37 c-4 -9 -11 -16 -17 -16 -17 0 -24 31 -9
41 18 11 34 -5 26 -25z"/>
<path d="M1145 1739 c41 -27 85 -51 85 -44 0 10 -83 65 -99 65 -10 0 -5 -8 14
-21z"/>
<path d="M2440 1705 c-14 -8 -20 -14 -14 -15 5 0 19 7 30 15 24 18 16 19 -16
0z"/>
<path d="M2970 1686 c-15 -19 -9 -56 11 -69 22 -14 66 -1 72 22 6 23 -1 34
-30 50 -28 15 -38 14 -53 -3z m55 -12 c18 -18 16 -33 -7 -47 -35 -22 -66 21
-36 51 16 16 23 15 43 -4z"/>
<path d="M3407 1662 c-36 -40 -4 -102 52 -102 59 0 81 58 38 98 -28 27 -68 28
-90 4z m85 -9 c22 -20 23 -41 1 -65 -20 -22 -51 -23 -75 -1 -22 20 -23 46 -2
67 20 21 53 20 76 -1z"/>
<path d="M328 1633 c17 -2 47 -2 65 0 17 2 3 4 -33 4 -36 0 -50 -2 -32 -4z"/>
<path d="M465 1620 c22 -5 81 -8 130 -8 50 0 128 -3 175 -6 68 -5 79 -4 55 5
-16 6 -113 13 -215 14 -122 3 -171 1 -145 -5z"/>
<path d="M881 1596 c2 -2 22 -6 44 -9 27 -4 35 -3 25 3 -14 9 -79 15 -69 6z"/>
<path d="M3160 1540 c-20 -12 -2 -44 27 -48 26 -4 37 23 17 43 -18 17 -24 18
-44 5z m38 -21 c-2 -6 -8 -10 -13 -10 -5 0 -11 4 -13 10 -2 6 4 11 13 11 9 0
15 -5 13 -11z"/>
<path d="M900 1523 c-65 -9 -196 -15 -342 -16 -157 -1 -229 -5 -210 -11 15 -5
117 -9 227 -10 111 0 203 -5 207 -10 4 -6 34 -5 80 2 40 6 113 16 161 23 59 7
85 15 79 21 -17 17 -91 17 -202 1z"/>
<path d="M2889 1524 c-19 -23 1 -49 37 -49 34 0 43 24 19 49 -21 20 -39 20
-56 0z m51 -19 c0 -21 -19 -28 -36 -15 -10 9 -11 16 -3 26 12 15 39 8 39 -11z"/>
<path d="M3742 1488 c-30 -30 1 -88 46 -88 23 0 52 24 52 44 0 39 -71 71 -98
44z m62 -11 c33 -24 0 -76 -39 -61 -20 8 -29 42 -15 59 15 19 31 19 54 2z"/>
<path d="M167 1462 c-32 -35 -14 -72 35 -72 35 0 53 34 33 65 -17 27 -47 30
-68 7z m57 -19 c4 -9 1 -23 -7 -30 -7 -8 -21 -11 -30 -7 -17 6 -23 35 -10 47
12 13 41 7 47 -10z"/>
<path d="M1921 1457 c3 -4 52 -13 109 -22 58 -9 108 -19 112 -23 3 -4 8 -18
10 -32 4 -33 42 -35 46 -2 4 25 4 26 72 11 53 -11 65 -25 28 -32 -20 -4 -19
-4 5 -6 15 0 27 4 27 12 1 6 7 -3 15 -20 8 -18 18 -33 24 -33 23 0 41 14 41
31 0 24 -1 24 68 -5 86 -36 303 -108 308 -103 3 3 -19 13 -48 22 -29 9 -89 32
-133 50 -180 74 -449 141 -605 152 -47 3 -83 3 -79 0z m467 -118 c-2 -6 -8
-10 -13 -10 -5 0 -11 4 -13 10 -2 6 4 11 13 11 9 0 15 -5 13 -11z"/>
<path d="M3468 1435 c-13 -29 8 -69 42 -80 29 -9 70 20 70 49 0 54 -90 80
-112 31z m92 -5 c21 -38 -22 -80 -61 -60 -19 10 -27 59 -12 73 15 15 63 7 73
-13z"/>
<path d="M3205 1440 c-10 -16 4 -48 24 -55 41 -13 68 24 39 53 -15 15 -54 16
-63 2z m53 -23 c2 -12 -3 -17 -17 -17 -15 0 -21 6 -21 21 0 25 33 22 38 -4z"/>
<path d="M3871 1421 c-17 -11 -7 -56 14 -65 8 -3 15 -1 15 4 0 6 -4 10 -10 10
-14 0 -13 33 2 48 14 14 0 16 -21 3z"/>
<path d="M2816 1402 c-9 -15 12 -35 29 -28 14 5 15 9 5 21 -14 17 -26 19 -34
7z"/>
<path d="M3072 1368 c-19 -19 -14 -55 10 -72 28 -20 43 -20 62 0 21 21 20 40
-4 64 -23 23 -50 26 -68 8z m66 -41 c-4 -32 -54 -36 -63 -6 -5 16 -2 26 10 35
25 18 57 0 53 -29z"/>
<path d="M1687 1343 c27 -45 55 -72 118 -118 122 -88 334 -337 340 -400 0 -5
8 -21 16 -35 9 -14 42 -72 74 -129 49 -87 57 -106 47 -122 -16 -26 -15 -44 4
-60 12 -10 20 -10 35 -1 10 7 21 12 24 12 3 0 26 -28 51 -62 73 -100 136 -168
156 -168 26 0 43 41 29 69 -12 22 -55 29 -66 11 -13 -21 -27 -6 -102 107 -77
116 -134 223 -189 353 -69 162 -218 340 -380 455 -52 37 -94 73 -94 80 0 12
-48 35 -72 35 -5 0 -1 -12 9 -27z"/>
<path d="M2654 1355 c-10 -25 4 -45 31 -45 30 0 43 24 25 45 -16 19 -49 19
-56 0z m41 -15 c0 -7 -6 -15 -12 -17 -8 -3 -13 4 -13 17 0 13 5 20 13 18 6 -3
12 -11 12 -18z"/>
<path d="M3407 1332 c-24 -26 -21 -49 8 -77 31 -32 70 -32 90 -1 39 59 -51
130 -98 78z m77 -8 c24 -24 20 -63 -8 -75 -49 -23 -93 34 -55 72 23 23 42 24
63 3z"/>
<path d="M56 1314 c-4 -10 -2 -22 3 -27 15 -15 46 -3 46 18 0 26 -40 33 -49 9z"/>
<path d="M1220 1290 c-24 -15 -8 -17 30 -4 30 11 32 13 10 13 -14 1 -32 -3
-40 -9z"/>
<path d="M3764 1285 c-8 -21 14 -45 42 -45 31 0 39 17 18 41 -20 23 -52 25
-60 4z m46 -15 c0 -5 -7 -10 -15 -10 -8 0 -15 5 -15 10 0 6 7 10 15 10 8 0 15
-4 15 -10z"/>
<path d="M2808 1223 c7 -3 16 -2 19 1 4 3 -2 6 -13 5 -11 0 -14 -3 -6 -6z"/>
<path d="M1207 1167 c-11 -29 -9 -43 4 -30 6 6 9 19 7 29 -3 18 -4 18 -11 1z"/>
<path d="M3680 1165 c-28 -33 22 -85 62 -64 24 13 23 34 -2 59 -24 24 -43 25
-60 5z m54 -14 c10 -16 -5 -41 -24 -41 -19 0 -34 25 -24 41 3 5 14 9 24 9 10
0 21 -4 24 -9z"/>
<path d="M3217 1164 c-16 -17 -6 -44 19 -50 33 -8 53 10 38 34 -12 18 -45 28
-57 16z"/>
<path d="M1840 1127 c0 -2 14 -16 30 -32 17 -16 30 -24 30 -19 0 6 -13 20 -30
32 -16 13 -30 21 -30 19z"/>
<path d="M3460 1085 c-25 -31 14 -74 54 -59 22 9 20 51 -3 64 -26 14 -36 13
-51 -5z m45 -25 c0 -22 -29 -18 -33 3 -3 14 1 18 15 15 10 -2 18 -10 18 -18z"/>
<path d="M2110 1076 c0 -20 24 -36 39 -26 8 4 11 15 8 24 -8 20 -47 21 -47 2z"/>
<path d="M2320 1070 c0 -5 5 -10 10 -10 6 0 10 5 10 10 0 6 -4 10 -10 10 -5 0
-10 -4 -10 -10z"/>
<path d="M1560 1040 c0 -5 5 -10 10 -10 6 0 10 5 10 10 0 6 -4 10 -10 10 -5 0
-10 -4 -10 -10z"/>
<path d="M174 1016 c-11 -28 1 -51 25 -51 28 0 47 25 38 49 -8 20 -56 21 -63
2z"/>
<path d="M1531 1001 c-1 -24 2 -32 9 -25 7 7 7 19 1 35 -9 23 -10 22 -10 -10z"/>
<path d="M1670 1009 c0 -9 7 -22 15 -29 19 -16 19 0 0 26 -12 16 -14 16 -15 3z"/>
<path d="M1795 980 c-4 -7 -3 -16 3 -22 14 -14 45 -2 40 15 -6 16 -34 21 -43
7z"/>
<path d="M3527 973 c-16 -15 -6 -53 17 -68 32 -21 66 -5 66 30 0 34 -60 61
-83 38z m58 -33 c0 -29 -32 -41 -41 -16 -9 24 4 48 23 44 12 -2 18 -12 18 -28z"/>
<path d="M3317 932 c-25 -28 -21 -67 9 -91 33 -26 58 -27 84 -1 27 27 25 56
-5 85 -29 30 -65 32 -88 7z m71 -8 c39 -27 23 -84 -24 -84 -21 0 -54 33 -54
52 0 10 38 48 48 48 4 0 18 -7 30 -16z"/>
<path d="M1741 870 c0 -8 8 -33 18 -55 11 -22 20 -33 20 -25 0 8 -8 33 -18 55
-11 22 -20 33 -20 25z"/>
<path d="M2602 861 c-23 -14 -10 -46 21 -49 21 -3 27 1 27 15 0 18 -17 43 -29
43 -4 0 -12 -4 -19 -9z"/>
<path d="M1033 844 c-8 -22 5 -46 24 -42 27 5 29 44 3 51 -13 3 -23 0 -27 -9z"/>
<path d="M2367 844 c-9 -10 2 -24 19 -24 8 0 14 7 14 15 0 15 -21 21 -33 9z"/>
<path d="M3650 835 c-27 -32 19 -82 66 -71 18 5 24 13 24 34 0 15 -5 33 -12
40 -17 17 -63 15 -78 -3z m60 -11 c11 -12 10 -18 -3 -31 -22 -23 -52 0 -36 28
12 23 22 24 39 3z"/>
<path d="M1757 753 c-12 -11 -7 -53 6 -53 25 0 39 17 32 39 -6 21 -25 28 -38
14z"/>
<path d="M2438 715 c-9 -21 -8 -28 7 -45 31 -34 75 -20 75 25 0 48 -62 63 -82
20z m62 -20 c0 -8 -9 -15 -20 -15 -11 0 -20 7 -20 15 0 8 9 15 20 15 11 0 20
-7 20 -15z"/>
<path d="M2924 705 c-8 -33 11 -55 47 -55 25 0 29 4 29 28 0 34 -16 52 -47 52
-16 0 -24 -7 -29 -25z m54 -18 c2 -12 -3 -17 -17 -17 -12 0 -21 6 -21 13 0 31
32 34 38 4z"/>
<path d="M3143 694 c-14 -38 41 -70 67 -39 11 13 10 19 -5 35 -22 24 -53 26
-62 4z m42 -14 c3 -5 1 -10 -4 -10 -6 0 -11 5 -11 10 0 6 2 10 4 10 3 0 8 -4
11 -10z"/>
<path d="M29 643 c-13 -16 -12 -17 4 -4 9 7 17 15 17 17 0 8 -8 3 -21 -13z"/>
<path d="M3787 632 c-22 -24 -21 -34 4 -66 35 -44 89 -30 89 24 0 52 -60 78
-93 42z m67 -24 c13 -22 -14 -54 -38 -45 -16 6 -22 48 -9 61 11 11 35 3 47
-16z"/>
<path d="M2084 625 c-9 -23 3 -45 25 -45 25 0 34 14 26 40 -7 23 -43 27 -51 5z"/>
<path d="M2480 586 c0 -7 7 -19 15 -26 19 -16 41 1 32 24 -8 20 -47 21 -47 2z"/>
<path d="M995 577 c-4 -10 -5 -21 -1 -24 10 -10 18 4 13 24 -4 17 -4 17 -12 0z"/>
<path d="M40 556 c0 -9 5 -16 10 -16 6 0 10 4 10 9 0 6 -4 13 -10 16 -5 3 -10
-1 -10 -9z"/>
<path d="M1846 546 c-4 -15 -40 -59 -82 -98 -74 -70 -142 -148 -129 -148 3 0
26 21 51 48 25 26 77 79 116 118 57 58 68 75 61 89 -9 15 -11 14 -17 -9z"/>
<path d="M770 545 c-7 -8 -10 -22 -6 -30 7 -20 42 -19 50 1 8 22 8 22 -13 33
-14 8 -22 7 -31 -4z"/>
<path d="M1495 520 c-8 -13 3 -30 20 -30 14 0 27 24 18 34 -10 9 -31 7 -38 -4z"/>
<path d="M487 507 c-8 -21 8 -39 29 -35 27 5 25 42 -2 46 -12 2 -24 -3 -27
-11z"/>
<path d="M3580 501 c-15 -29 4 -69 36 -77 33 -8 58 6 62 35 8 50 -74 85 -98
42z m74 -16 c7 -19 -20 -46 -39 -39 -15 6 -20 35 -8 47 12 12 41 7 47 -8z"/>
<path d="M1020 479 c0 -11 5 -17 10 -14 6 3 10 13 10 21 0 8 -4 14 -10 14 -5
0 -10 -9 -10 -21z"/>
<path d="M3295 480 c-4 -6 -3 -14 0 -20 9 -15 35 -12 35 4 0 17 -27 29 -35 16z"/>
<path d="M2876 451 c-11 -18 6 -42 28 -39 29 4 29 42 -1 46 -11 2 -24 -1 -27
-7z"/>
<path d="M1875 430 c3 -5 10 -10 16 -10 5 0 9 5 9 10 0 6 -7 10 -16 10 -8 0
-12 -4 -9 -10z"/>
<path d="M951 328 c1 -42 3 -48 9 -28 12 36 12 80 0 80 -6 0 -10 -24 -9 -52z"/>
<path d="M1172 364 c1 -9 9 -19 16 -22 9 -3 13 2 10 14 -1 9 -9 19 -16 22 -9
3 -13 -2 -10 -14z"/>
<path d="M3355 330 c3 -5 1 -10 -4 -10 -6 0 -11 -3 -11 -7 0 -5 81 -7 180 -5
118 2 180 -1 180 -7 0 -7 -67 -12 -182 -14 l-183 -2 188 -3 c175 -2 188 -1
185 16 -3 15 -20 17 -156 20 -90 1 -152 6 -152 12 0 6 -12 10 -26 10 -14 0
-23 -4 -19 -10z"/>
<path d="M2776 315 c-19 -20 -20 -26 -3 -49 8 -11 23 -17 38 -14 31 4 33 45 3
65 -19 12 -24 12 -38 -2z"/>
<path d="M827 273 c-4 -3 -7 -17 -7 -30 0 -18 6 -23 24 -23 13 0 27 7 30 16
11 28 -27 57 -47 37z"/>
<path d="M1947 273 c-15 -14 -6 -52 13 -58 25 -8 40 1 40 24 0 30 -35 53 -53
34z"/>
<path d="M220 255 c-18 -22 -1 -50 31 -50 20 0 24 5 24 30 0 23 -5 31 -21 33
-11 2 -27 -4 -34 -13z"/>
<path d="M1167 256 c-10 -25 33 -50 47 -27 10 16 -5 41 -24 41 -10 0 -20 -6
-23 -14z"/>
<path d="M3402 258 c-15 -15 -15 -28 -1 -28 5 0 8 4 4 9 -3 5 0 13 6 17 8 5
10 -4 7 -30 -2 -20 0 -36 4 -36 4 0 8 18 8 40 0 41 -7 49 -28 28z"/>
<path d="M3444 256 c-11 -29 0 -61 21 -61 15 0 20 7 20 26 1 14 -5 26 -12 26
-8 0 -9 -6 -2 -18 12 -24 11 -29 -4 -29 -20 0 -18 58 2 63 13 4 13 5 -2 6 -10
0 -20 -5 -23 -13z"/>
<path d="M2432 234 c1 -9 9 -19 16 -22 9 -3 13 2 10 14 -1 9 -9 19 -16 22 -9
3 -13 -2 -10 -14z"/>
<path d="M3530 224 c7 -19 7 -31 -1 -40 -7 -9 -8 -14 -1 -14 6 0 12 6 14 12 3
8 23 12 54 11 48 -1 49 0 50 28 1 29 0 29 -47 28 -43 -2 -49 -5 -48 -23 0 -21
1 -21 10 -1 7 17 8 17 6 2 -3 -25 -21 -23 -25 3 -2 11 -7 20 -12 20 -6 0 -5
-11 0 -26z m104 8 c-6 -4 -14 -14 -17 -22 -4 -12 -6 -11 -6 3 -1 9 -5 17 -10
17 -5 0 -12 -8 -14 -17 -4 -14 -5 -12 -6 5 -1 18 4 22 32 22 17 0 27 -4 21 -8z"/>
<path d="M2604 195 c-9 -21 3 -45 21 -45 21 0 30 27 15 45 -16 19 -29 19 -36
0z"/>
<path d="M2923 194 c-4 -11 1 -22 12 -31 16 -11 21 -11 34 1 12 12 12 18 1 30
-16 21 -39 20 -47 0z"/>
<path d="M2181 186 c-9 -10 -8 -16 4 -26 19 -16 41 1 32 24 -8 20 -21 20 -36
2z"/>
<path d="M1624 171 c-42 -26 -55 -47 -17 -27 25 13 63 46 52 46 -2 0 -18 -9
-35 -19z"/>
<path d="M910 160 c0 -5 5 -10 10 -10 6 0 10 5 10 10 0 6 -4 10 -10 10 -5 0
-10 -4 -10 -10z"/>
<path d="M3340 140 c0 -18 26 -40 49 -40 17 0 40 30 35 45 -4 10 -20 15 -45
15 -32 0 -39 -3 -39 -20z"/>
<path d="M1535 104 l-30 -26 33 22 c17 12 32 23 32 26 0 7 -4 5 -35 -22z"/>
<path d="M1635 120 c-10 -17 20 -44 40 -36 9 3 15 14 13 23 -4 21 -43 30 -53
13z"/>
<path d="M252 78 c-28 -28 -3 -72 39 -66 30 4 47 33 33 56 -14 21 -55 27 -72
10z"/>
<path d="M2026 52 c-10 -32 4 -52 35 -52 54 0 50 62 -4 68 -18 2 -27 -2 -31
-16z"/>
<path d="M1435 25 c-16 -13 -25 -24 -19 -25 6 0 21 11 34 25 30 32 24 32 -15
0z"/>
<path d="M1882 23 c4 -22 43 -25 43 -3 0 8 -11 16 -23 18 -19 3 -23 0 -20 -15z"/>
<path d="M1527 16 c-5 -13 1 -16 29 -16 24 0 34 4 32 13 -7 19 -54 21 -61 3z"/>
</g>
</svg>
